<svg width="16" height="115" viewBox="0 0 16 115" fill="none" xmlns="http://www.w3.org/2000/svg">
<path d="M7.62621 94.6456L14.9426 90.1969L15.1084 90.4473L10.3707 102.372C9.457 106.527 8.5433 110.681 7.62621 114.835C6.71251 110.681 5.79882 106.527 4.88173 102.372L0.14403 90.4473L0.269241 90.1969L7.62621 94.6456Z" fill="black"/>
<path d="M7.62621 20.2208L14.9426 24.6694L15.1084 24.4191L10.3707 12.494C9.457 8.3396 8.5433 4.18526 7.62621 0.030907C6.71251 4.18526 5.79882 8.3396 4.88173 12.494L0.144031 24.4191L0.269242 24.6694L7.62621 20.2208Z" fill="black"/>
<rect width="88.1043" height="2.60308" transform="matrix(-4.37114e-08 -1 -1 4.37114e-08 8.901 97.8154)" fill="#070707"/>
</svg>
