<svg width="116" height="16" viewBox="0 0 116 16" fill="none" xmlns="http://www.w3.org/2000/svg">
<path d="M20.3681 8.42433L20.2106 8.16528L20.3675 7.90584L24.2256 1.52555L13.2531 5.88475L13.2157 5.89963L13.1763 5.90832C9.76071 6.66232 6.34514 7.41403 2.92971 8.1653C6.3446 8.91825 9.75955 9.66932 13.1746 10.4204L13.1759 10.4207L13.2155 10.4294L13.2531 10.4444L24.2538 14.8148L20.3681 8.42433Z" fill="white" stroke="black"/>
<path d="M95.648 7.90607L95.8049 8.16551L95.6474 8.42456L91.7617 14.815L102.762 10.4446L102.8 10.4296L102.84 10.4209C106.255 9.66974 109.67 8.91857 113.086 8.16553C109.67 7.41426 106.255 6.66255 102.839 5.90855L102.8 5.89986L102.762 5.88498L91.7899 1.52578L95.648 7.90607Z" fill="white" stroke="black"/>
<rect width="88.1043" height="2.60308" transform="matrix(1 0 0 -1 17.625 9.43945)" fill="white"/>
</svg>
