<svg width="20" height="20" viewBox="0 0 20 20" fill="none" xmlns="http://www.w3.org/2000/svg">
<path d="M15.4006 5.08873C14.2837 4.57279 13.1046 4.20676 11.8934 4C11.7277 4.29895 11.5777 4.60652 11.4441 4.92144C10.154 4.72528 8.84198 4.72528 7.55182 4.92144C7.41819 4.60655 7.26822 4.29898 7.10255 4C5.89058 4.20851 4.71068 4.5754 3.59264 5.09143C1.37304 8.40484 0.771342 11.6359 1.07219 14.8212C2.37204 15.7902 3.82695 16.5271 5.37367 17C5.72194 16.5274 6.03012 16.026 6.29494 15.5011C5.79196 15.3116 5.3065 15.0778 4.84417 14.8023C4.96585 14.7133 5.08485 14.6215 5.19985 14.5325C6.54511 15.1708 8.01339 15.5018 9.49999 15.5018C10.9866 15.5018 12.4549 15.1708 13.8001 14.5325C13.9165 14.6283 14.0355 14.72 14.1558 14.8023C13.6926 15.0782 13.2062 15.3125 12.7024 15.5025C12.9668 16.0271 13.275 16.5281 13.6236 17C15.1717 16.529 16.6277 15.7924 17.9278 14.8225C18.2808 11.1287 17.3247 7.92725 15.4006 5.08873ZM6.67601 12.8623C5.83765 12.8623 5.14502 12.0946 5.14502 11.1503C5.14502 10.2059 5.81358 9.43151 6.67334 9.43151C7.5331 9.43151 8.22037 10.2059 8.20567 11.1503C8.19096 12.0946 7.53043 12.8623 6.67601 12.8623ZM12.324 12.8623C11.4843 12.8623 10.7943 12.0946 10.7943 11.1503C10.7943 10.2059 11.4629 9.43151 12.324 9.43151C13.1851 9.43151 13.867 10.2059 13.8523 11.1503C13.8376 12.0946 13.1784 12.8623 12.324 12.8623Z" fill="white"/>
</svg>
