<svg width="20" height="20" viewBox="0 0 20 20" fill="none" xmlns="http://www.w3.org/2000/svg">
<path d="M10.3125 2C8.10789 2 5.99357 2.87578 4.43467 4.43467C2.87578 5.99357 2 8.10789 2 10.3125C2 12.5171 2.87578 14.6314 4.43467 16.1903C5.99357 17.7492 8.10789 18.625 10.3125 18.625C12.5171 18.625 14.6314 17.7492 16.1903 16.1903C17.7492 14.6314 18.625 12.5171 18.625 10.3125C18.625 8.10789 17.7492 5.99357 16.1903 4.43467C14.6314 2.87578 12.5171 2 10.3125 2Z" fill="white"/>
<path d="M11.4253 12.5159H13.5765L13.9143 10.3306H11.4249V9.13621C11.4249 8.2284 11.7215 7.4234 12.5707 7.4234H13.9352V5.51634C13.6955 5.48396 13.1884 5.41309 12.2303 5.41309C10.2296 5.41309 9.05669 6.46965 9.05669 8.87677V10.3306H7V12.5159H9.05669V18.5223C9.464 18.5836 9.87656 18.6251 10.3001 18.6251C10.6829 18.6251 11.0565 18.5901 11.4253 18.5403V12.5159Z" fill="#20222B"/>
</svg>
