<svg width="20" height="20" viewBox="0 0 20 20" fill="none" xmlns="http://www.w3.org/2000/svg">
<path d="M9.75 1C4.91738 1 1 4.91738 1 9.75C1 13.6381 3.53794 16.9298 7.04625 18.0695H12.4538C15.9621 16.9298 18.5 13.6381 18.5 9.75C18.5 4.91738 14.5826 1 9.75 1Z" fill="white"/>
<path opacity="0.05" d="M12.3794 17.6231L12.375 15.0865C12.375 14.6757 12.2788 14.2745 12.0941 13.911C14.5621 13.4153 15.763 11.9562 15.763 9.45852C15.763 8.47196 15.4721 7.60089 14.8985 6.86852C14.9423 6.72983 14.9746 6.58633 14.9948 6.43933C15.077 5.8404 14.9847 5.44883 14.9103 5.13383L14.8985 5.08308C14.8171 4.73483 14.7196 4.48633 14.7156 4.47583L14.6671 4.35246L14.6185 4.22908L14.4864 4.21508L14.3538 4.20108C14.3538 4.20108 14.2668 4.19189 14.1346 4.19189C13.9513 4.19189 13.6796 4.21027 13.4228 4.29733L13.3371 4.32621C13.0133 4.43514 12.7075 4.53839 12.2796 4.79389C12.1545 4.86871 12.0176 4.95402 11.871 5.04939C11.2086 4.88533 10.4959 4.80177 9.75001 4.80177C8.99663 4.80177 8.27782 4.88577 7.61107 5.05158C7.46276 4.95533 7.32495 4.86914 7.19895 4.79389C6.77107 4.53839 6.46526 4.43558 6.14151 4.32621L6.05576 4.29733C5.79982 4.21027 5.5277 4.19189 5.34438 4.19189C5.21226 4.19189 5.1252 4.20108 5.1252 4.20108L4.99307 4.21508L4.86182 4.22864L4.81282 4.35158L4.76338 4.47539C4.75901 4.48677 4.66145 4.73527 4.58007 5.08396L4.56826 5.13427C4.49388 5.44883 4.40157 5.84083 4.48382 6.43933C4.50482 6.59071 4.53851 6.73902 4.58445 6.88164C4.02226 7.61052 3.73745 8.47677 3.73745 9.45852C3.73745 11.9501 4.9397 13.4083 7.41113 13.9079C7.32626 14.0776 7.2602 14.257 7.21338 14.4434C7.1272 14.4727 7.04801 14.4924 6.97801 14.5033C6.87388 14.5191 6.76495 14.527 6.6547 14.527C6.35457 14.527 6.11876 14.4683 6.02688 14.4136C5.88995 14.3323 5.64538 14.0956 5.40826 13.7495C5.2057 13.4542 4.88982 13.0679 4.53676 12.9065C4.23138 12.7669 3.90807 12.6868 3.64907 12.6868C3.5887 12.6868 3.53313 12.6912 3.48457 12.6991C3.25838 12.735 3.06938 12.8592 2.96657 13.0403C2.87776 13.1965 2.86376 13.3785 2.92807 13.5395C3.02388 13.7793 3.30038 13.9705 3.51563 14.0886C3.62151 14.1468 3.85032 14.3594 3.98376 14.5738C4.08395 14.7348 4.13032 14.8494 4.19463 15.0078C4.2327 15.1018 4.2747 15.2042 4.33157 15.328C4.5372 15.7751 5.17901 16.1698 5.25163 16.2131C5.60426 16.4244 6.19707 16.4922 6.63282 16.5119L6.68663 16.5132H6.68707C6.79207 16.5132 6.93645 16.5031 7.12632 16.4821V17.6253C7.1272 17.8568 6.89138 17.9093 6.57945 17.9045L6.81876 17.985C7.73532 18.3126 8.7197 18.4999 9.75001 18.4999C10.7803 18.4999 11.7647 18.3126 12.6826 17.9854L12.9901 17.8708C12.6791 17.8603 12.382 17.8095 12.3794 17.6231Z" fill="black"/>
<path opacity="0.07" d="M12.7167 17.9736C12.5391 17.9941 12.1562 17.9259 12.1562 17.6258V15.0865C12.1562 14.6079 12.0127 14.1455 11.7467 13.7513C14.3346 13.3326 15.5438 11.9606 15.5438 9.45852C15.5438 8.47983 15.2437 7.62364 14.6517 6.91139C14.7117 6.75171 14.7537 6.58327 14.7777 6.40958C14.8543 5.85133 14.7707 5.49696 14.6972 5.18414L14.6854 5.13339C14.6076 4.80046 14.5157 4.56596 14.5117 4.55633L14.4632 4.43296L14.3306 4.41896C14.3306 4.41896 14.2527 4.41064 14.1342 4.41064C13.9675 4.41064 13.7212 4.42683 13.4928 4.50471L13.4071 4.53358C13.0947 4.63902 12.7994 4.73833 12.3916 4.98158C12.2464 5.06821 12.0845 5.17014 11.9099 5.28521C11.2392 5.10977 10.5134 5.02052 9.74999 5.02052C8.97912 5.02052 8.24718 5.11021 7.57168 5.28739C7.39537 5.17146 7.23262 5.06908 7.08649 4.98158C6.67874 4.73833 6.38343 4.63858 6.07106 4.53358L5.98531 4.50471C5.75737 4.42727 5.51062 4.41064 5.34393 4.41064C5.22537 4.41064 5.14749 4.41896 5.14749 4.41896L5.01537 4.43296L4.96593 4.55677C4.96199 4.56639 4.87012 4.80089 4.79224 5.13383L4.78043 5.18458C4.70649 5.49739 4.62293 5.85133 4.69993 6.40958C4.72443 6.58764 4.76818 6.76002 4.83031 6.92321C4.24974 7.63196 3.95574 8.48377 3.95574 9.45852C3.95574 11.9536 5.16587 13.3251 7.75587 13.7486C7.58306 14.0068 7.46231 14.2977 7.40018 14.6079C7.25581 14.6648 7.12499 14.7024 7.01037 14.7199C6.89531 14.7374 6.77543 14.7461 6.65424 14.7461C6.35237 14.7461 6.06231 14.6897 5.91487 14.6022C5.72237 14.488 5.45243 14.2023 5.22712 13.8738C5.07399 13.6506 4.76906 13.2538 4.44487 13.106C4.16706 12.9791 3.87699 12.906 3.64818 12.906C3.60006 12.906 3.55631 12.9095 3.51781 12.9156C3.35768 12.941 3.22556 13.0259 3.15556 13.1493C3.09956 13.2473 3.09037 13.3606 3.12974 13.459C3.20806 13.655 3.49812 13.8309 3.61931 13.8974C3.76587 13.9779 4.02137 14.2229 4.16793 14.4591C4.27774 14.6359 4.32981 14.7641 4.39587 14.926C4.43306 15.0174 4.47374 15.1171 4.52887 15.2375C4.67368 15.552 5.12081 15.8815 5.36231 16.0263C5.69218 16.224 6.30468 16.2791 6.64068 16.294L6.68924 16.2949C6.82006 16.2949 7.03924 16.2752 7.34331 16.2358V17.6258C7.34331 17.9666 6.90974 17.9801 6.80343 17.9801C6.78987 17.9801 7.02349 18.0606 7.02349 18.0606C7.88231 18.3424 8.79712 18.4999 9.74999 18.4999C10.7029 18.4999 11.6177 18.3424 12.4761 18.0611C12.4761 18.0611 12.7302 17.9718 12.7167 17.9736Z" fill="black"/>
<path d="M15.3255 9.45857C15.3255 8.44795 14.9834 7.6097 14.3993 6.95257C14.4628 6.81038 14.5288 6.61963 14.5616 6.37988C14.6369 5.83301 14.5481 5.50488 14.4728 5.18376C14.3976 4.86263 14.3088 4.63688 14.3088 4.63688C14.3088 4.63688 13.9054 4.59576 13.5637 4.71213C13.222 4.82851 12.928 4.91732 12.5041 5.1702C12.3059 5.28832 12.1064 5.41782 11.9484 5.52282C11.2734 5.33557 10.5309 5.23932 9.75 5.23932C8.96206 5.23932 8.21306 5.33601 7.53319 5.52457C7.37481 5.41913 7.174 5.28876 6.9745 5.16976C6.55056 4.91688 6.25656 4.82807 5.91488 4.7117C5.57319 4.59532 5.16981 4.63645 5.16981 4.63645C5.16981 4.63645 5.081 4.8622 5.00575 5.18332C4.9305 5.50445 4.84169 5.83257 4.91694 6.37945C4.95063 6.62532 5.01888 6.81957 5.08406 6.96263C4.51094 7.61582 4.17494 8.44882 4.17494 9.45813C4.17494 12.0757 5.58894 13.2705 8.16538 13.5859C7.86481 13.9036 7.66313 14.3104 7.59531 14.7633C7.426 14.8376 7.23088 14.9076 7.04319 14.9356C6.56019 15.0087 6.04963 14.9356 5.80375 14.7899C5.55788 14.6443 5.26606 14.3161 5.04731 13.9968C4.86269 13.7273 4.59625 13.4144 4.35475 13.3042C4.03581 13.1585 3.72563 13.1038 3.55281 13.1309C3.37956 13.1585 3.29775 13.2858 3.33406 13.3773C3.37038 13.4683 3.54363 13.6052 3.72606 13.7054C3.9085 13.8056 4.19113 14.079 4.35519 14.3433C4.53806 14.6381 4.57394 14.8083 4.72881 15.1452C4.83775 15.3823 5.2105 15.6785 5.47606 15.8378C5.704 15.9747 6.15944 16.0526 6.65206 16.0749C6.82225 16.0828 7.22431 16.0329 7.56338 15.9848V17.6254C7.56338 17.9049 7.30744 18.1176 7.04231 18.0686C7.89325 18.3547 8.80194 18.4999 9.75 18.4999C10.6976 18.4999 11.6063 18.3547 12.4581 18.0694C12.1934 18.118 11.9375 17.9054 11.9375 17.6258V15.0866C11.9375 14.5051 11.7069 13.9797 11.3368 13.5881C13.8944 13.281 15.3255 12.1146 15.3255 9.45857ZM4.16706 13.568C4.09969 13.5334 4.06338 13.4696 4.08613 13.4245C4.10888 13.3794 4.18238 13.3711 4.24975 13.4057C4.31713 13.4403 4.35344 13.5041 4.33069 13.5492C4.30794 13.5943 4.23444 13.6026 4.16706 13.568ZM4.69731 13.8983C4.66188 13.9368 4.58575 13.9246 4.52713 13.8712C4.4685 13.8178 4.44969 13.743 4.48513 13.7045C4.52056 13.666 4.59669 13.6783 4.65531 13.7316C4.71394 13.785 4.73275 13.8598 4.69731 13.8983ZM5.02719 14.4452C4.98256 14.4767 4.90688 14.4474 4.85831 14.3796C4.80975 14.3118 4.80669 14.2308 4.85131 14.1993C4.89594 14.1678 4.97163 14.1971 5.02019 14.2649C5.06831 14.3328 5.07181 14.4137 5.02719 14.4452ZM5.501 14.8569C5.47081 14.9059 5.38506 14.9081 5.30981 14.8621C5.23456 14.8162 5.19781 14.7392 5.228 14.6902C5.25819 14.6412 5.34394 14.639 5.41919 14.6849C5.49444 14.7309 5.53119 14.8079 5.501 14.8569ZM5.949 15.2598C5.85581 15.2484 5.78669 15.1903 5.79456 15.1299C5.802 15.0695 5.88381 15.0301 5.97656 15.0415C6.06975 15.0529 6.13888 15.1111 6.131 15.1714C6.12356 15.2314 6.04219 15.2712 5.949 15.2598ZM6.67131 15.3644C6.572 15.3587 6.49456 15.3018 6.4985 15.2379C6.50244 15.1741 6.586 15.1264 6.68531 15.1321C6.78463 15.1378 6.86206 15.1946 6.85813 15.2585C6.85419 15.3228 6.77063 15.3701 6.67131 15.3644ZM7.35294 15.2961C7.24706 15.2961 7.16131 15.241 7.16131 15.1732C7.16131 15.1054 7.24706 15.0503 7.35294 15.0503C7.45881 15.0503 7.54456 15.1054 7.54456 15.1732C7.54456 15.241 7.45838 15.2961 7.35294 15.2961Z" fill="#20222B"/>
</svg>
