<svg width="26" height="25" viewBox="0 0 26 25" fill="none" xmlns="http://www.w3.org/2000/svg">
<path d="M13.0233 0.09375C5.85783 0.09375 0.0473633 5.77495 0.0473633 12.7836C0.0473633 18.3904 3.76536 23.1472 8.9211 24.8252C9.56959 24.9427 9.80768 24.5499 9.80768 24.2147C9.80768 23.9121 9.79564 22.9125 9.79006 21.8521C6.18014 22.6198 5.4184 20.3548 5.4184 20.3548C4.82814 18.888 3.97766 18.498 3.97766 18.498C2.80035 17.7104 4.0664 17.7266 4.0664 17.7266C5.36941 17.8159 6.05551 19.0343 6.05551 19.0343C7.21283 20.9743 9.09107 20.4135 9.83153 20.0892C9.94799 19.2692 10.2843 18.709 10.6554 18.3923C7.77323 18.0714 4.74348 16.9833 4.74348 12.1208C4.74348 10.7354 5.25037 9.60332 6.08044 8.71463C5.94571 8.3948 5.50156 7.10431 6.20614 5.35635C6.20614 5.35635 7.29578 5.01529 9.77545 6.65713C10.8105 6.37596 11.9206 6.23495 13.0233 6.23012C14.126 6.23495 15.237 6.37596 16.2739 6.65713C18.7506 5.01529 19.8387 5.35635 19.8387 5.35635C20.545 7.10431 20.1007 8.3948 19.9659 8.71463C20.7979 9.60332 21.3014 10.7354 21.3014 12.1208C21.3014 16.9949 18.2658 18.0681 15.3764 18.3822C15.8418 18.776 16.2565 19.5483 16.2565 20.7323C16.2565 22.43 16.2415 23.7966 16.2415 24.2147C16.2415 24.5524 16.4751 24.9481 17.1328 24.8235C22.2857 23.1436 25.999 18.3885 25.999 12.7836C25.999 5.77495 20.1894 0.09375 13.0233 0.09375Z" fill="white"/>
<path d="M4.96177 18.3138C4.93319 18.377 4.83177 18.3957 4.73937 18.3524C4.64526 18.311 4.5924 18.2251 4.62291 18.1618C4.65084 18.0969 4.75248 18.079 4.84638 18.1221C4.94071 18.1637 4.99443 18.2505 4.96177 18.3138Z" fill="white"/>
<path d="M5.48764 18.887C5.42576 18.9431 5.30478 18.9171 5.2227 18.8284C5.13782 18.7399 5.12192 18.6216 5.18467 18.5647C5.24848 18.5086 5.36581 18.5348 5.4509 18.6233C5.53577 18.7128 5.55232 18.8303 5.48764 18.887Z" fill="white"/>
<path d="M5.99919 19.6182C5.91968 19.6722 5.78968 19.6215 5.70932 19.5087C5.62981 19.3958 5.62981 19.2605 5.71104 19.2063C5.79161 19.1521 5.91968 19.2008 6.00112 19.3128C6.08041 19.4273 6.08041 19.5629 5.99919 19.6182Z" fill="white"/>
<path d="M6.70008 20.3241C6.62896 20.4008 6.47747 20.3802 6.3666 20.2756C6.25314 20.1732 6.22155 20.028 6.29289 19.9513C6.36488 19.8744 6.51722 19.896 6.62896 19.9999C6.74155 20.102 6.77594 20.2482 6.70008 20.3241Z" fill="white"/>
<path d="M7.66729 20.7342C7.63592 20.8336 7.49002 20.8788 7.34304 20.8365C7.19628 20.793 7.10024 20.6766 7.12989 20.5762C7.1604 20.4761 7.30695 20.4291 7.455 20.4743C7.60154 20.5175 7.69781 20.6331 7.66729 20.7342Z" fill="white"/>
<path d="M8.72899 20.8102C8.73264 20.9149 8.60802 21.0017 8.45373 21.0033C8.29859 21.0069 8.17311 20.9222 8.17139 20.8192C8.17139 20.7135 8.29322 20.6276 8.44836 20.6251C8.60264 20.6221 8.72899 20.7062 8.72899 20.8102Z" fill="white"/>
<path d="M9.71731 20.6456C9.73578 20.7477 9.62856 20.8526 9.47535 20.8803C9.32473 20.9074 9.18527 20.8444 9.16615 20.7431C9.14745 20.6384 9.25661 20.5336 9.40702 20.5065C9.56045 20.4804 9.69775 20.5418 9.71731 20.6456Z" fill="white"/>
</svg>
