<svg width="20" height="20" viewBox="0 0 20 20" fill="none" xmlns="http://www.w3.org/2000/svg">
<path d="M3.74998 5.5625H3.77056C4.87494 5.5625 5.5625 4.77083 5.5625 3.78125C5.54192 2.7699 4.87494 2 3.79154 2C2.70815 2 2 2.7699 2 3.78125C2 4.77083 2.68717 5.5625 3.74998 5.5625ZM2 6.75H5.5625V17.0417H2V6.75ZM17.8333 10.5104C17.8333 8.43348 16.1499 6.75 14.0729 6.75C12.8644 6.75 11.7921 7.32238 11.1042 8.20825V6.75H7.54167V17.0417H11.1042V11.1042C11.1042 10.2298 11.8131 9.52083 12.6875 9.52083C13.5619 9.52083 14.2708 10.2298 14.2708 11.1042V17.0417H17.8333C17.8333 17.0417 17.8333 11.0864 17.8333 10.5104Z" fill="#FEFEFE"/>
</svg>
