<svg width="20" height="20" viewBox="0 0 20 20" fill="none" xmlns="http://www.w3.org/2000/svg">
<path d="M12.02 9.8C10.9723 9.8 10.12 8.9028 10.12 7.8V3C10.12 1.8972 10.9723 1 12.02 1C13.0677 1 13.92 1.8972 13.92 3V7.8C13.92 8.9028 13.0677 9.8 12.02 9.8ZM16.58 9.8H15.06C14.8499 9.8 14.68 9.6212 14.68 9.4V7.8C14.68 6.6972 15.5323 5.8 16.58 5.8C17.6277 5.8 18.48 6.6972 18.48 7.8C18.48 8.9028 17.6277 9.8 16.58 9.8ZM7.46 9.8H2.9C1.85234 9.8 1 8.9028 1 7.8C1 6.6972 1.85234 5.8 2.9 5.8H7.46C8.50766 5.8 9.36 6.6972 9.36 7.8C9.36 8.9028 8.50766 9.8 7.46 9.8ZM8.98 5H7.46C6.41234 5 5.56 4.1028 5.56 3C5.56 1.8972 6.41234 1 7.46 1C8.50766 1 9.36 1.8972 9.36 3V4.6C9.36 4.8212 9.19014 5 8.98 5ZM7.46 19.4C6.41234 19.4 5.56 18.5028 5.56 17.4V12.6C5.56 11.4972 6.41234 10.6 7.46 10.6C8.50766 10.6 9.36 11.4972 9.36 12.6V17.4C9.36 18.5028 8.50766 19.4 7.46 19.4ZM2.9 14.6C1.85234 14.6 1 13.7028 1 12.6C1 11.4972 1.85234 10.6 2.9 10.6H4.42C4.63014 10.6 4.8 10.7788 4.8 11V12.6C4.8 13.7028 3.94766 14.6 2.9 14.6ZM16.58 14.6H12.02C10.9723 14.6 10.12 13.7028 10.12 12.6C10.12 11.4972 10.9723 10.6 12.02 10.6H16.58C17.6277 10.6 18.48 11.4972 18.48 12.6C18.48 13.7028 17.6277 14.6 16.58 14.6ZM12.02 19.4C10.9723 19.4 10.12 18.5028 10.12 17.4V15.8C10.12 15.5788 10.2899 15.4 10.5 15.4H12.02C13.0677 15.4 13.92 16.2972 13.92 17.4C13.92 18.5028 13.0677 19.4 12.02 19.4Z" fill="white"/>
</svg>
