<svg width="20" height="20" viewBox="0 0 20 20" fill="none" xmlns="http://www.w3.org/2000/svg">
<path d="M18.0256 14.5133C17.8518 15.4 17.1136 16.0757 16.2016 16.2024C14.7683 16.4133 12.3794 16.6667 9.68656 16.6667C7.03725 16.6667 4.6484 16.4133 3.17154 16.2024C2.25954 16.0757 1.52092 15.4 1.34754 14.5133C1.17377 13.5424 1 12.1067 1 10.3333C1 8.56 1.17377 7.12431 1.34754 6.15333C1.52131 5.26667 2.25954 4.59098 3.17154 4.46431C4.60485 4.25333 6.99371 4 9.68656 4C12.3794 4 14.7247 4.25333 16.2016 4.46431C17.1136 4.59098 17.8522 5.26667 18.0256 6.15333C18.1994 7.12431 18.4167 8.56 18.4167 10.3333C18.3731 12.1067 18.1994 13.5424 18.0256 14.5133Z" fill="white"/>
<path opacity="0.05" d="M13.0143 9.71618L8.48759 6.69835C8.2592 6.54595 7.96747 6.5317 7.72561 6.66154C7.48376 6.79097 7.33334 7.04154 7.33334 7.31585V13.3515C7.33334 13.6258 7.48376 13.8768 7.72561 14.0062C7.83566 14.0652 7.95559 14.0941 8.07553 14.0941C8.21961 14.0941 8.36291 14.0521 8.4872 13.9694L13.0139 10.9516C13.221 10.8134 13.3445 10.5827 13.3445 10.3341C13.3449 10.0851 13.221 9.85433 13.0143 9.71618Z" fill="black"/>
<path opacity="0.07" d="M8.39456 6.86468L12.6656 9.71231C12.9383 9.90824 13.122 10.0836 13.122 10.3112C13.122 10.5388 13.0333 10.6975 12.839 10.8392C12.6921 10.9461 8.467 13.7542 8.467 13.7542C8.11035 13.9932 7.53125 13.9426 7.53125 13.1608V7.4612C7.53125 6.66756 8.15825 6.70714 8.39456 6.86468Z" fill="black"/>
<path d="M7.72919 13.3292V7.33822C7.72919 7.04412 8.05694 6.86837 8.30196 7.03185L12.7955 10.0275C13.0144 10.1732 13.0144 10.4946 12.7955 10.6407L8.30196 13.6363C8.05694 13.799 7.72919 13.6237 7.72919 13.3292Z" fill="#20222B"/>
</svg>
