<?xml version="1.0" encoding="UTF-8"?><svg id="a" xmlns="http://www.w3.org/2000/svg" width="20" height="20" viewBox="0 0 20 20"><path d="M18,15.5c.39,0,.76,.15,1.03,.41,.28,.27,.44,.63,.46,1.01,.02,.38-.11,.76-.36,1.05-.25,.29-.61,.47-.99,.51h-.14s-16,0-16,0c-.39,0-.76-.15-1.03-.41-.28-.27-.44-.63-.46-1.01-.02-.38,.11-.76,.36-1.05,.25-.29,.61-.47,.99-.51h.14s16,0,16,0Zm0-7c.4,0,.78,.16,1.06,.44,.28,.28,.44,.66,.44,1.06s-.16,.78-.44,1.06c-.28,.28-.66,.44-1.06,.44H2c-.4,0-.78-.16-1.06-.44-.28-.28-.44-.66-.44-1.06s.16-.78,.44-1.06c.28-.28,.66-.44,1.06-.44H18Zm0-7c.4,0,.78,.16,1.06,.44s.44,.66,.44,1.06-.16,.78-.44,1.06-.66,.44-1.06,.44H2c-.4,0-.78-.16-1.06-.44-.28-.28-.44-.66-.44-1.06s.16-.78,.44-1.06c.28-.28,.66-.44,1.06-.44H18Z" style="fill:#fff;"/><rect width="20" height="20" style="fill:none;"/></svg>