<svg width="56" height="56" viewBox="0 0 56 56" fill="none" xmlns="http://www.w3.org/2000/svg">
<g clip-path="url(#clip0_1476_1708)">
<path d="M27.9977 55.9954C43.4604 55.9954 55.9954 43.4604 55.9954 27.9977C55.9954 12.535 43.4604 0 27.9977 0C12.535 0 0 12.535 0 27.9977C0 43.4604 12.535 55.9954 27.9977 55.9954Z" fill="#3C174C"/>
<mask id="mask0_1476_1708" style="mask-type:luminance" maskUnits="userSpaceOnUse" x="0" y="0" width="56" height="56">
<path d="M27.9977 55.9954C43.4604 55.9954 55.9954 43.4604 55.9954 27.9977C55.9954 12.535 43.4604 0 27.9977 0C12.535 0 0 12.535 0 27.9977C0 43.4604 12.535 55.9954 27.9977 55.9954Z" fill="white"/>
</mask>
<g mask="url(#mask0_1476_1708)">
<path d="M40.7831 56.0001H46.9026V44.7127L40.7831 39.5903V56.0001Z" fill="#6D3288"/>
<path d="M32.2409 37.9014L27.9973 41.1888L23.7583 37.9014L15.2164 39.5906V56.0004H40.7827V39.5906L32.2409 37.9014Z" fill="#9E4EC4"/>
<path d="M15.2167 56.0004H9.09717V44.7129L15.2167 39.5906V56.0004Z" fill="#6D3288"/>
<path d="M32.2412 37.9009L27.9976 41.1883L23.7859 37.9009V32.1274H32.2412V37.9009Z" fill="#C76FF2"/>
<path d="M39.6637 9.32495L27.9983 3.96582L16.6062 9.32495V21.3454H39.6637V9.32495Z" fill="#5D137D"/>
<path d="M38.0746 21.2772V14.2652L27.9983 13.3591L18.1953 16.9926V21.2772H16.6062V26.5225H18.1953V29.992L27.9983 36.6352L38.0746 29.992V26.5225H39.6637V21.2772H38.0746Z" fill="#C76FF2"/>
<g opacity="0.15">
<path d="M16.6058 9.32495V21.2771V21.3454V26.5225H18.1949V29.992L23.7862 33.7803V37.9009H23.7589L15.2171 39.5902L9.09753 44.7125V56H15.2171H27.9979V3.96582L16.6058 9.32495Z" fill="#3C174C"/>
</g>
</g>
</g>
<defs>
<clipPath id="clip0_1476_1708">
<rect width="56" height="56" fill="white"/>
</clipPath>
</defs>
</svg>
