<svg width="58" height="45" viewBox="0 0 58 45" fill="none" xmlns="http://www.w3.org/2000/svg">
<path d="M57.6373 32.8398C57.6373 32.4732 57.6907 32.076 57.6907 31.74C57.6979 29.7397 57.2297 27.7664 56.3246 25.9826C55.4195 24.1988 54.1036 22.6556 52.4851 21.4802C50.8666 20.3047 48.992 19.5307 47.0157 19.2219C45.0394 18.913 43.018 19.0782 41.1181 19.7039C43.3634 14.0753 49.6412 6.53741 53.307 3.15415L50.4049 1.21101e-05C41.6451 7.32404 32.4958 19.0929 32.3965 31.6331L32.3965 31.8317C32.3965 32.2822 32.3965 32.7328 32.45 33.1758C32.7993 36.2621 34.2728 39.1118 36.5893 41.1809C38.9059 43.2501 41.9032 44.3938 45.0092 44.3938C48.1153 44.3938 51.1126 43.2501 53.4291 41.1809C55.7457 39.1118 57.2192 36.2621 57.5685 33.1758L57.6525 33.1758C57.6831 33.0536 57.6525 32.9467 57.6373 32.8398Z" fill="currentColor"/>
<path d="M25.2408 32.8397C25.2408 32.4732 25.2942 32.076 25.2942 31.74C25.3014 29.7397 24.8332 27.7664 23.9281 25.9826C23.0231 24.1988 21.7071 22.6556 20.0886 21.4801C18.4701 20.3047 16.5955 19.5307 14.6192 19.2218C12.6429 18.913 10.6215 19.0782 8.72163 19.7039C10.9669 14.0753 17.2065 6.5374 20.9411 3.15415L18.0237 4.47804e-06C9.25623 7.32403 0.0992863 19.0929 5.5309e-06 31.6331C5.5309e-06 31.6331 5.54158e-06 31.6942 5.54693e-06 31.7247L5.56562e-06 31.8316C5.6444e-06 32.2822 5.72319e-06 32.7328 0.061103 33.1758C0.410429 36.2621 1.88397 39.1118 4.2005 41.1809C6.51703 43.2501 9.51434 44.3938 12.6204 44.3938C15.7265 44.3938 18.7238 43.2501 21.0403 41.1809C23.3568 39.1118 24.8304 36.2621 25.1797 33.1758L25.2637 33.1758C25.2866 33.0536 25.2561 32.9467 25.2408 32.8397Z" fill="currentColor"/>
</svg>
