<svg width="128" height="128" viewBox="0 0 128 128" fill="none" xmlns="http://www.w3.org/2000/svg">
<path fill-rule="evenodd" clip-rule="evenodd" d="M49 13.7778V11H51.7778V13H51V13.7778H49ZM61.7778 11H56.2222V13H61.7778V11ZM66.2222 11V13H71.7778V11H66.2222ZM76.2222 11V13H77V13.7778H79V11H76.2222ZM79 18.2222H77V23.7778H79V18.2222ZM79 28.2222H77V33.7778H79V28.2222ZM79 38.2222H77V39H76.2222V41H79V38.2222ZM71.7778 41V39H66.2222V41H71.7778ZM61.7778 41V39H56.2222V41H61.7778ZM51.7778 41V39H51V38.2222H49V41H51.7778ZM49 33.7778H51V28.2222H49V33.7778ZM49 23.7778H51V18.2222H49V23.7778Z" fill="white"/>
<path d="M57 33L64 19L71 33H57Z" fill="white"/>
<path fill-rule="evenodd" clip-rule="evenodd" d="M87 51.7778V49H89.7778V51H89V51.7778H87ZM99.7778 49H94.2222V51H99.7778V49ZM104.222 49V51H109.778V49H104.222ZM114.222 49V51H115V51.7778H117V49H114.222ZM117 56.2222H115V61.7778H117V56.2222ZM117 66.2222H115V71.7778H117V66.2222ZM117 76.2222H115V77H114.222V79H117V76.2222ZM109.778 79V77H104.222V79H109.778ZM99.7778 79V77H94.2222V79H99.7778ZM89.7778 79V77H89V76.2222H87V79H89.7778ZM87 71.7778H89V66.2222H87V71.7778ZM87 61.7778H89V56.2222H87V61.7778Z" fill="white"/>
<path fill-rule="evenodd" clip-rule="evenodd" d="M11 51.7778V49H13.7778V51H13V51.7778H11ZM23.7778 49H18.2222V51H23.7778V49ZM28.2222 49V51H33.7778V49H28.2222ZM38.2222 49V51H39V51.7778H41V49H38.2222ZM41 56.2222H39V61.7778H41V56.2222ZM41 66.2222H39V71.7778H41V66.2222ZM41 76.2222H39V77H38.2222V79H41V76.2222ZM33.7778 79V77H28.2222V79H33.7778ZM23.7778 79V77H18.2222V79H23.7778ZM13.7778 79V77H13V76.2222H11V79H13.7778ZM11 71.7778H13V66.2222H11V71.7778ZM11 61.7778H13V56.2222H11V61.7778Z" fill="white"/>
<path fill-rule="evenodd" clip-rule="evenodd" d="M49 89.7778V87H51.7778V89H51V89.7778H49ZM61.7778 87H56.2222V89H61.7778V87ZM66.2222 87V89H71.7778V87H66.2222ZM76.2222 87V89H77V89.7778H79V87H76.2222ZM79 94.2222H77V99.7778H79V94.2222ZM79 104.222H77V109.778H79V104.222ZM79 114.222H77V115H76.2222V117H79V114.222ZM71.7778 117V115H66.2222V117H71.7778ZM61.7778 117V115H56.2222V117H61.7778ZM51.7778 117V115H51V114.222H49V117H51.7778ZM49 109.778H51V104.222H49V109.778ZM49 99.7778H51V94.2222H49V99.7778Z" fill="white"/>
<path fill-rule="evenodd" clip-rule="evenodd" d="M71.0715 98.0716L67.9286 94.9287L64 98.8573L60.0714 94.9286L56.9285 98.0715L60.8572 102L56.9285 105.929L60.0714 109.072L64 105.143L67.9286 109.072L71.0715 105.929L67.1429 102L71.0715 98.0716Z" fill="white"/>
<path d="M44 26H26V44" stroke="white" stroke-width="2"/>
<path d="M102 44L102 26L84 26" stroke="white" stroke-width="2"/>
<path d="M83 102L101 102L101 84" stroke="white" stroke-width="2"/>
<path d="M25 84L25 102L43 102" stroke="white" stroke-width="2"/>
<rect x="19" y="57" width="14" height="14" fill="white"/>
<circle cx="102" cy="64" r="7" fill="white"/>
<circle cx="64.5" cy="63.5" r="10.5" fill="white"/>
</svg>
