<svg width="32" height="32" viewBox="0 0 32 32" fill="none" xmlns="http://www.w3.org/2000/svg">
	<rect width="32" height="32" rx="6" fill="url(#paint0_linear_3136_2773)" />
	<rect x="0.5" y="0.5" width="31" height="31" rx="5.5" stroke="white" stroke-opacity="0.5" />
	<path d="M16 7C11.0293 7 7 11.0293 7 16C7 20.9707 11.0293 25 16 25C20.9707 25 25 20.9707 25 16C25 11.0293 20.9707 7 16 7ZM16 22.6774C12.3096 22.6774 9.32258 19.6911 9.32258 16C9.32258 12.3096 12.3089 9.32258 16 9.32258C19.6904 9.32258 22.6774 12.3089 22.6774 16C22.6774 19.6904 19.6911 22.6774 16 22.6774ZM16 11.3548C13.4346 11.3548 11.3548 13.4346 11.3548 16C11.3548 18.5654 13.4346 20.6452 16 20.6452C18.5654 20.6452 20.6452 18.5654 20.6452 16C20.6452 13.4346 18.5654 11.3548 16 11.3548ZM16 18.3226C14.7193 18.3226 13.6774 17.2807 13.6774 16C13.6774 14.7193 14.7193 13.6774 16 13.6774C17.2807 13.6774 18.3226 14.7193 18.3226 16C18.3226 17.2807 17.2807 18.3226 16 18.3226Z" fill="white" />
	<defs>
		<linearGradient id="paint0_linear_3136_2773" x1="-12.046" y1="-12.9562" x2="30.903" y2="32.0767" gradientUnits="userSpaceOnUse">
			<stop stop-color="#0CB1F2" />
			<stop offset="0.135417" stop-color="#12C0C5" />
			<stop offset="0.28125" stop-color="#256CD4" />
			<stop offset="0.40625" stop-color="#15A1E6" />
			<stop offset="0.640625" stop-color="#0CA6F2" />
			<stop offset="0.915447" stop-color="#01ECB0" />
			<stop offset="1" stop-color="#0CF06E" />
		</linearGradient>
	</defs>
</svg>
