<svg viewBox="0 0 32 32" fill="none" class="h-8"><rect width="32" height="32" rx="6" fill="url(#paint0_linear_1674_25662)"></rect><rect x="0.5" y="0.5" width="31" height="31" rx="5.5" stroke="white" stroke-opacity="0.5"></rect><g filter="url(#filter0_d_1674_25662)"><path d="M7 24C7 23.7333 7 23.4909 7 23.2727C7 23.0545 7 22.8121 7 22.5455C7.33926 22.5455 7.65486 22.5455 7.94678 22.5455C8.23871 22.5455 8.5543 22.5455 8.89357 22.5455C8.89357 22.8121 8.89357 23.0545 8.89357 23.2727C8.89357 23.4909 8.89357 23.7333 8.89357 24C8.5543 24 8.23871 24 7.94678 24C7.65486 24 7.33926 24 7 24ZM7 24C7 23.7333 7 23.4909 7 23.2727C7 23.0545 7 22.8121 7 22.5455C7.33926 22.5455 7.65486 22.5455 7.94678 22.5455C8.23871 22.5455 8.5543 22.5455 8.89357 22.5455C8.89357 22.8121 8.89357 23.0545 8.89357 23.2727C8.89357 23.4909 8.89357 23.7333 8.89357 24C8.5543 24 8.23871 24 7.94678 24C7.65486 24 7.33926 24 7 24ZM7 24C7 23.7333 7 23.4909 7 23.2727C7 23.0545 7 22.8121 7 22.5455C7.33926 22.5455 7.65486 22.5455 7.94678 22.5455C8.23871 22.5455 8.5543 22.5455 8.89357 22.5455C8.89357 22.8121 8.89357 23.0545 8.89357 23.2727C8.89357 23.4909 8.89357 23.7333 8.89357 24C8.5543 24 8.23871 24 7.94678 24C7.65486 24 7.33926 24 7 24ZM7 24C7 23.7333 7 23.4909 7 23.2727C7 23.0545 7 22.8121 7 22.5455C7.33926 22.5455 7.65486 22.5455 7.94678 22.5455C8.23871 22.5455 8.5543 22.5455 8.89357 22.5455C8.89357 22.8121 8.89357 23.0545 8.89357 23.2727C8.89357 23.4909 8.89357 23.7333 8.89357 24C8.5543 24 8.23871 24 7.94678 24C7.65486 24 7.33926 24 7 24ZM7 24C7 23.7333 7 23.4909 7 23.2727C7 23.0545 7 22.8121 7 22.5455C7.33926 22.5455 7.65486 22.5455 7.94678 22.5455C8.23871 22.5455 8.5543 22.5455 8.89357 22.5455C8.89357 22.8121 8.89357 23.0545 8.89357 23.2727C8.89357 23.4909 8.89357 23.7333 8.89357 24C8.5543 24 8.23871 24 7.94678 24C7.65486 24 7.33926 24 7 24ZM7 24C7 23.7333 7 23.4909 7 23.2727C7 23.0545 7 22.8121 7 22.5455C7.33926 22.5455 7.65486 22.5455 7.94678 22.5455C8.23871 22.5455 8.5543 22.5455 8.89357 22.5455C8.89357 22.8121 8.89357 23.0545 8.89357 23.2727C8.89357 23.4909 8.89357 23.7333 8.89357 24C8.5543 24 8.23871 24 7.94678 24C7.65486 24 7.33926 24 7 24ZM7 24C7 23.7333 7 23.4909 7 23.2727C7 23.0545 7 22.8121 7 22.5455C7.33926 22.5455 7.65486 22.5455 7.94678 22.5455C8.23871 22.5455 8.5543 22.5455 8.89357 22.5455C8.89357 22.8121 8.89357 23.0545 8.89357 23.2727C8.89357 23.4909 8.89357 23.7333 8.89357 24C8.5543 24 8.23871 24 7.94678 24C7.65486 24 7.33926 24 7 24ZM7 24C7 23.7333 7 23.4909 7 23.2727C7 23.0545 7 22.8121 7 22.5455C7.33926 22.5455 7.65486 22.5455 7.94678 22.5455C8.23871 22.5455 8.5543 22.5455 8.89357 22.5455C8.89357 22.8121 8.89357 23.0545 8.89357 23.2727C8.89357 23.4909 8.89357 23.7333 8.89357 24C8.5543 24 8.23871 24 7.94678 24C7.65486 24 7.33926 24 7 24ZM7 24C7 23.7333 7 23.4909 7 23.2727C7 23.0545 7 22.8121 7 22.5455C7.33926 22.5455 7.65486 22.5455 7.94678 22.5455C8.23871 22.5455 8.5543 22.5455 8.89357 22.5455C8.89357 22.8121 8.89357 23.0545 8.89357 23.2727C8.89357 23.4909 8.89357 23.7333 8.89357 24C8.5543 24 8.23871 24 7.94678 24C7.65486 24 7.33926 24 7 24ZM14.5743 24C14.5743 23.7333 14.5743 23.4909 14.5743 23.2727C14.5743 23.0545 14.5743 22.8121 14.5743 22.5455C14.9135 22.5455 15.2291 22.5455 15.5211 22.5455C15.813 22.5455 16.1286 22.5455 16.4678 22.5455C16.4678 22.8121 16.4678 23.0545 16.4678 23.2727C16.4678 23.4909 16.4678 23.7333 16.4678 24C16.1286 24 15.813 24 15.5211 24C15.2291 24 14.9135 24 14.5743 24ZM14.5743 24C14.5743 23.7333 14.5743 23.4909 14.5743 23.2727C14.5743 23.0545 14.5743 22.8121 14.5743 22.5455C14.9135 22.5455 15.2291 22.5455 15.5211 22.5455C15.813 22.5455 16.1286 22.5455 16.4678 22.5455C16.4678 22.8121 16.4678 23.0545 16.4678 23.2727C16.4678 23.4909 16.4678 23.7333 16.4678 24C16.1286 24 15.813 24 15.5211 24C15.2291 24 14.9135 24 14.5743 24ZM14.5743 24C14.5743 23.7333 14.5743 23.4909 14.5743 23.2727C14.5743 23.0545 14.5743 22.8121 14.5743 22.5455C14.9135 22.5455 15.2291 22.5455 15.5211 22.5455C15.813 22.5455 16.1286 22.5455 16.4678 22.5455C16.4678 22.8121 16.4678 23.0545 16.4678 23.2727C16.4678 23.4909 16.4678 23.7333 16.4678 24C16.1286 24 15.813 24 15.5211 24C15.2291 24 14.9135 24 14.5743 24ZM14.5743 24C14.5743 23.7333 14.5743 23.4909 14.5743 23.2727C14.5743 23.0545 14.5743 22.8121 14.5743 22.5455C14.9135 22.5455 15.2291 22.5455 15.5211 22.5455C15.813 22.5455 16.1286 22.5455 16.4678 22.5455C16.4678 22.8121 16.4678 23.0545 16.4678 23.2727C16.4678 23.4909 16.4678 23.7333 16.4678 24C16.1286 24 15.813 24 15.5211 24C15.2291 24 14.9135 24 14.5743 24ZM14.5743 24C14.5743 23.7333 14.5743 23.4909 14.5743 23.2727C14.5743 23.0545 14.5743 22.8121 14.5743 22.5455C14.9135 22.5455 15.2291 22.5455 15.5211 22.5455C15.813 22.5455 16.1286 22.5455 16.4678 22.5455C16.4678 22.8121 16.4678 23.0545 16.4678 23.2727C16.4678 23.4909 16.4678 23.7333 16.4678 24C16.1286 24 15.813 24 15.5211 24C15.2291 24 14.9135 24 14.5743 24ZM14.5743 24C14.5743 23.7333 14.5743 23.4909 14.5743 23.2727C14.5743 23.0545 14.5743 22.8121 14.5743 22.5455C14.9135 22.5455 15.2291 22.5455 15.5211 22.5455C15.813 22.5455 16.1286 22.5455 16.4678 22.5455C16.4678 22.8121 16.4678 23.0545 16.4678 23.2727C16.4678 23.4909 16.4678 23.7333 16.4678 24C16.1286 24 15.813 24 15.5211 24C15.2291 24 14.9135 24 14.5743 24ZM14.5743 24C14.5743 23.7333 14.5743 23.4909 14.5743 23.2727C14.5743 23.0545 14.5743 22.8121 14.5743 22.5455C14.9135 22.5455 15.2291 22.5455 15.5211 22.5455C15.813 22.5455 16.1286 22.5455 16.4678 22.5455C16.4678 22.8121 16.4678 23.0545 16.4678 23.2727C16.4678 23.4909 16.4678 23.7333 16.4678 24C16.1286 24 15.813 24 15.5211 24C15.2291 24 14.9135 24 14.5743 24ZM14.5743 24C14.5743 23.7333 14.5743 23.4909 14.5743 23.2727C14.5743 23.0545 14.5743 22.8121 14.5743 22.5455C14.9135 22.5455 15.2291 22.5455 15.5211 22.5455C15.813 22.5455 16.1286 22.5455 16.4678 22.5455C16.4678 22.8121 16.4678 23.0545 16.4678 23.2727C16.4678 23.4909 16.4678 23.7333 16.4678 24C16.1286 24 15.813 24 15.5211 24C15.2291 24 14.9135 24 14.5743 24ZM14.5743 24C14.5743 23.7333 14.5743 23.4909 14.5743 23.2727C14.5743 23.0545 14.5743 22.8121 14.5743 22.5455C14.9135 22.5455 15.2291 22.5455 15.5211 22.5455C15.813 22.5455 16.1286 22.5455 16.4678 22.5455C16.4678 22.8121 16.4678 23.0545 16.4678 23.2727C16.4678 23.4909 16.4678 23.7333 16.4678 24C16.1286 24 15.813 24 15.5211 24C15.2291 24 14.9135 24 14.5743 24ZM7 22.5455C7 22.2788 7 22.0364 7 21.8182C7 21.6 7 21.3576 7 21.0909C7.33926 21.0909 7.65486 21.0909 7.94678 21.0909C8.23871 21.0909 8.5543 21.0909 8.89357 21.0909C8.89357 21.3576 8.89357 21.6 8.89357 21.8182C8.89357 22.0364 8.89357 22.2788 8.89357 22.5455C8.5543 22.5455 8.23871 22.5455 7.94678 22.5455C7.65486 22.5455 7.33926 22.5455 7 22.5455ZM7 22.5455C7 22.2788 7 22.0364 7 21.8182C7 21.6 7 21.3576 7 21.0909C7.33926 21.0909 7.65486 21.0909 7.94678 21.0909C8.23871 21.0909 8.5543 21.0909 8.89357 21.0909C8.89357 21.3576 8.89357 21.6 8.89357 21.8182C8.89357 22.0364 8.89357 22.2788 8.89357 22.5455C8.5543 22.5455 8.23871 22.5455 7.94678 22.5455C7.65486 22.5455 7.33926 22.5455 7 22.5455ZM7 22.5455C7 22.2788 7 22.0364 7 21.8182C7 21.6 7 21.3576 7 21.0909C7.33926 21.0909 7.65486 21.0909 7.94678 21.0909C8.23871 21.0909 8.5543 21.0909 8.89357 21.0909C8.89357 21.3576 8.89357 21.6 8.89357 21.8182C8.89357 22.0364 8.89357 22.2788 8.89357 22.5455C8.5543 22.5455 8.23871 22.5455 7.94678 22.5455C7.65486 22.5455 7.33926 22.5455 7 22.5455ZM7 22.5455C7 22.2788 7 22.0364 7 21.8182C7 21.6 7 21.3576 7 21.0909C7.33926 21.0909 7.65486 21.0909 7.94678 21.0909C8.23871 21.0909 8.5543 21.0909 8.89357 21.0909C8.89357 21.3576 8.89357 21.6 8.89357 21.8182C8.89357 22.0364 8.89357 22.2788 8.89357 22.5455C8.5543 22.5455 8.23871 22.5455 7.94678 22.5455C7.65486 22.5455 7.33926 22.5455 7 22.5455ZM7 22.5455C7 22.2788 7 22.0364 7 21.8182C7 21.6 7 21.3576 7 21.0909C7.33926 21.0909 7.65486 21.0909 7.94678 21.0909C8.23871 21.0909 8.5543 21.0909 8.89357 21.0909C8.89357 21.3576 8.89357 21.6 8.89357 21.8182C8.89357 22.0364 8.89357 22.2788 8.89357 22.5455C8.5543 22.5455 8.23871 22.5455 7.94678 22.5455C7.65486 22.5455 7.33926 22.5455 7 22.5455ZM7 22.5455C7 22.2788 7 22.0364 7 21.8182C7 21.6 7 21.3576 7 21.0909C7.33926 21.0909 7.65486 21.0909 7.94678 21.0909C8.23871 21.0909 8.5543 21.0909 8.89357 21.0909C8.89357 21.3576 8.89357 21.6 8.89357 21.8182C8.89357 22.0364 8.89357 22.2788 8.89357 22.5455C8.5543 22.5455 8.23871 22.5455 7.94678 22.5455C7.65486 22.5455 7.33926 22.5455 7 22.5455ZM7 22.5455C7 22.2788 7 22.0364 7 21.8182C7 21.6 7 21.3576 7 21.0909C7.33926 21.0909 7.65486 21.0909 7.94678 21.0909C8.23871 21.0909 8.5543 21.0909 8.89357 21.0909C8.89357 21.3576 8.89357 21.6 8.89357 21.8182C8.89357 22.0364 8.89357 22.2788 8.89357 22.5455C8.5543 22.5455 8.23871 22.5455 7.94678 22.5455C7.65486 22.5455 7.33926 22.5455 7 22.5455ZM7 22.5455C7 22.2788 7 22.0364 7 21.8182C7 21.6 7 21.3576 7 21.0909C7.33926 21.0909 7.65486 21.0909 7.94678 21.0909C8.23871 21.0909 8.5543 21.0909 8.89357 21.0909C8.89357 21.3576 8.89357 21.6 8.89357 21.8182C8.89357 22.0364 8.89357 22.2788 8.89357 22.5455C8.5543 22.5455 8.23871 22.5455 7.94678 22.5455C7.65486 22.5455 7.33926 22.5455 7 22.5455ZM7 22.5455C7 22.2788 7 22.0364 7 21.8182C7 21.6 7 21.3576 7 21.0909C7.33926 21.0909 7.65486 21.0909 7.94678 21.0909C8.23871 21.0909 8.5543 21.0909 8.89357 21.0909C8.89357 21.3576 8.89357 21.6 8.89357 21.8182C8.89357 22.0364 8.89357 22.2788 8.89357 22.5455C8.5543 22.5455 8.23871 22.5455 7.94678 22.5455C7.65486 22.5455 7.33926 22.5455 7 22.5455ZM14.5743 22.5455C14.5743 22.2788 14.5743 22.0364 14.5743 21.8182C14.5743 21.6 14.5743 21.3576 14.5743 21.0909C14.9135 21.0909 15.2291 21.0909 15.5211 21.0909C15.813 21.0909 16.1286 21.0909 16.4678 21.0909C16.4678 21.3576 16.4678 21.6 16.4678 21.8182C16.4678 22.0364 16.4678 22.2788 16.4678 22.5455C16.1286 22.5455 15.813 22.5455 15.5211 22.5455C15.2291 22.5455 14.9135 22.5455 14.5743 22.5455ZM14.5743 22.5455C14.5743 22.2788 14.5743 22.0364 14.5743 21.8182C14.5743 21.6 14.5743 21.3576 14.5743 21.0909C14.9135 21.0909 15.2291 21.0909 15.5211 21.0909C15.813 21.0909 16.1286 21.0909 16.4678 21.0909C16.4678 21.3576 16.4678 21.6 16.4678 21.8182C16.4678 22.0364 16.4678 22.2788 16.4678 22.5455C16.1286 22.5455 15.813 22.5455 15.5211 22.5455C15.2291 22.5455 14.9135 22.5455 14.5743 22.5455ZM14.5743 22.5455C14.5743 22.2788 14.5743 22.0364 14.5743 21.8182C14.5743 21.6 14.5743 21.3576 14.5743 21.0909C14.9135 21.0909 15.2291 21.0909 15.5211 21.0909C15.813 21.0909 16.1286 21.0909 16.4678 21.0909C16.4678 21.3576 16.4678 21.6 16.4678 21.8182C16.4678 22.0364 16.4678 22.2788 16.4678 22.5455C16.1286 22.5455 15.813 22.5455 15.5211 22.5455C15.2291 22.5455 14.9135 22.5455 14.5743 22.5455ZM14.5743 22.5455C14.5743 22.2788 14.5743 22.0364 14.5743 21.8182C14.5743 21.6 14.5743 21.3576 14.5743 21.0909C14.9135 21.0909 15.2291 21.0909 15.5211 21.0909C15.813 21.0909 16.1286 21.0909 16.4678 21.0909C16.4678 21.3576 16.4678 21.6 16.4678 21.8182C16.4678 22.0364 16.4678 22.2788 16.4678 22.5455C16.1286 22.5455 15.813 22.5455 15.5211 22.5455C15.2291 22.5455 14.9135 22.5455 14.5743 22.5455ZM14.5743 22.5455C14.5743 22.2788 14.5743 22.0364 14.5743 21.8182C14.5743 21.6 14.5743 21.3576 14.5743 21.0909C14.9135 21.0909 15.2291 21.0909 15.5211 21.0909C15.813 21.0909 16.1286 21.0909 16.4678 21.0909C16.4678 21.3576 16.4678 21.6 16.4678 21.8182C16.4678 22.0364 16.4678 22.2788 16.4678 22.5455C16.1286 22.5455 15.813 22.5455 15.5211 22.5455C15.2291 22.5455 14.9135 22.5455 14.5743 22.5455ZM14.5743 22.5455C14.5743 22.2788 14.5743 22.0364 14.5743 21.8182C14.5743 21.6 14.5743 21.3576 14.5743 21.0909C14.9135 21.0909 15.2291 21.0909 15.5211 21.0909C15.813 21.0909 16.1286 21.0909 16.4678 21.0909C16.4678 21.3576 16.4678 21.6 16.4678 21.8182C16.4678 22.0364 16.4678 22.2788 16.4678 22.5455C16.1286 22.5455 15.813 22.5455 15.5211 22.5455C15.2291 22.5455 14.9135 22.5455 14.5743 22.5455ZM14.5743 22.5455C14.5743 22.2788 14.5743 22.0364 14.5743 21.8182C14.5743 21.6 14.5743 21.3576 14.5743 21.0909C14.9135 21.0909 15.2291 21.0909 15.5211 21.0909C15.813 21.0909 16.1286 21.0909 16.4678 21.0909C16.4678 21.3576 16.4678 21.6 16.4678 21.8182C16.4678 22.0364 16.4678 22.2788 16.4678 22.5455C16.1286 22.5455 15.813 22.5455 15.5211 22.5455C15.2291 22.5455 14.9135 22.5455 14.5743 22.5455ZM14.5743 22.5455C14.5743 22.2788 14.5743 22.0364 14.5743 21.8182C14.5743 21.6 14.5743 21.3576 14.5743 21.0909C14.9135 21.0909 15.2291 21.0909 15.5211 21.0909C15.813 21.0909 16.1286 21.0909 16.4678 21.0909C16.4678 21.3576 16.4678 21.6 16.4678 21.8182C16.4678 22.0364 16.4678 22.2788 16.4678 22.5455C16.1286 22.5455 15.813 22.5455 15.5211 22.5455C15.2291 22.5455 14.9135 22.5455 14.5743 22.5455ZM14.5743 22.5455C14.5743 22.2788 14.5743 22.0364 14.5743 21.8182C14.5743 21.6 14.5743 21.3576 14.5743 21.0909C14.9135 21.0909 15.2291 21.0909 15.5211 21.0909C15.813 21.0909 16.1286 21.0909 16.4678 21.0909C16.4678 21.3576 16.4678 21.6 16.4678 21.8182C16.4678 22.0364 16.4678 22.2788 16.4678 22.5455C16.1286 22.5455 15.813 22.5455 15.5211 22.5455C15.2291 22.5455 14.9135 22.5455 14.5743 22.5455ZM7 21.0909C7 20.8242 7 20.5818 7 20.3636C7 20.1455 7 19.903 7 19.6364C7.33926 19.6364 7.65486 19.6364 7.94678 19.6364C8.23871 19.6364 8.5543 19.6364 8.89357 19.6364C8.89357 19.903 8.89357 20.1455 8.89357 20.3636C8.89357 20.5818 8.89357 20.8242 8.89357 21.0909C8.5543 21.0909 8.23871 21.0909 7.94678 21.0909C7.65486 21.0909 7.33926 21.0909 7 21.0909ZM7 21.0909C7 20.8242 7 20.5818 7 20.3636C7 20.1455 7 19.903 7 19.6364C7.33926 19.6364 7.65486 19.6364 7.94678 19.6364C8.23871 19.6364 8.5543 19.6364 8.89357 19.6364C8.89357 19.903 8.89357 20.1455 8.89357 20.3636C8.89357 20.5818 8.89357 20.8242 8.89357 21.0909C8.5543 21.0909 8.23871 21.0909 7.94678 21.0909C7.65486 21.0909 7.33926 21.0909 7 21.0909ZM7 21.0909C7 20.8242 7 20.5818 7 20.3636C7 20.1455 7 19.903 7 19.6364C7.33926 19.6364 7.65486 19.6364 7.94678 19.6364C8.23871 19.6364 8.5543 19.6364 8.89357 19.6364C8.89357 19.903 8.89357 20.1455 8.89357 20.3636C8.89357 20.5818 8.89357 20.8242 8.89357 21.0909C8.5543 21.0909 8.23871 21.0909 7.94678 21.0909C7.65486 21.0909 7.33926 21.0909 7 21.0909ZM7 21.0909C7 20.8242 7 20.5818 7 20.3636C7 20.1455 7 19.903 7 19.6364C7.33926 19.6364 7.65486 19.6364 7.94678 19.6364C8.23871 19.6364 8.5543 19.6364 8.89357 19.6364C8.89357 19.903 8.89357 20.1455 8.89357 20.3636C8.89357 20.5818 8.89357 20.8242 8.89357 21.0909C8.5543 21.0909 8.23871 21.0909 7.94678 21.0909C7.65486 21.0909 7.33926 21.0909 7 21.0909ZM7 21.0909C7 20.8242 7 20.5818 7 20.3636C7 20.1455 7 19.903 7 19.6364C7.33926 19.6364 7.65486 19.6364 7.94678 19.6364C8.23871 19.6364 8.5543 19.6364 8.89357 19.6364C8.89357 19.903 8.89357 20.1455 8.89357 20.3636C8.89357 20.5818 8.89357 20.8242 8.89357 21.0909C8.5543 21.0909 8.23871 21.0909 7.94678 21.0909C7.65486 21.0909 7.33926 21.0909 7 21.0909ZM7 21.0909C7 20.8242 7 20.5818 7 20.3636C7 20.1455 7 19.903 7 19.6364C7.33926 19.6364 7.65486 19.6364 7.94678 19.6364C8.23871 19.6364 8.5543 19.6364 8.89357 19.6364C8.89357 19.903 8.89357 20.1455 8.89357 20.3636C8.89357 20.5818 8.89357 20.8242 8.89357 21.0909C8.5543 21.0909 8.23871 21.0909 7.94678 21.0909C7.65486 21.0909 7.33926 21.0909 7 21.0909ZM7 21.0909C7 20.8242 7 20.5818 7 20.3636C7 20.1455 7 19.903 7 19.6364C7.33926 19.6364 7.65486 19.6364 7.94678 19.6364C8.23871 19.6364 8.5543 19.6364 8.89357 19.6364C8.89357 19.903 8.89357 20.1455 8.89357 20.3636C8.89357 20.5818 8.89357 20.8242 8.89357 21.0909C8.5543 21.0909 8.23871 21.0909 7.94678 21.0909C7.65486 21.0909 7.33926 21.0909 7 21.0909ZM7 21.0909C7 20.8242 7 20.5818 7 20.3636C7 20.1455 7 19.903 7 19.6364C7.33926 19.6364 7.65486 19.6364 7.94678 19.6364C8.23871 19.6364 8.5543 19.6364 8.89357 19.6364C8.89357 19.903 8.89357 20.1455 8.89357 20.3636C8.89357 20.5818 8.89357 20.8242 8.89357 21.0909C8.5543 21.0909 8.23871 21.0909 7.94678 21.0909C7.65486 21.0909 7.33926 21.0909 7 21.0909ZM7 21.0909C7 20.8242 7 20.5818 7 20.3636C7 20.1455 7 19.903 7 19.6364C7.33926 19.6364 7.65486 19.6364 7.94678 19.6364C8.23871 19.6364 8.5543 19.6364 8.89357 19.6364C8.89357 19.903 8.89357 20.1455 8.89357 20.3636C8.89357 20.5818 8.89357 20.8242 8.89357 21.0909C8.5543 21.0909 8.23871 21.0909 7.94678 21.0909C7.65486 21.0909 7.33926 21.0909 7 21.0909ZM14.5743 21.0909C14.5743 20.8242 14.5743 20.5818 14.5743 20.3636C14.5743 20.1455 14.5743 19.903 14.5743 19.6364C14.9135 19.6364 15.2291 19.6364 15.5211 19.6364C15.813 19.6364 16.1286 19.6364 16.4678 19.6364C16.4678 19.903 16.4678 20.1455 16.4678 20.3636C16.4678 20.5818 16.4678 20.8242 16.4678 21.0909C16.1286 21.0909 15.813 21.0909 15.5211 21.0909C15.2291 21.0909 14.9135 21.0909 14.5743 21.0909ZM14.5743 21.0909C14.5743 20.8242 14.5743 20.5818 14.5743 20.3636C14.5743 20.1455 14.5743 19.903 14.5743 19.6364C14.9135 19.6364 15.2291 19.6364 15.5211 19.6364C15.813 19.6364 16.1286 19.6364 16.4678 19.6364C16.4678 19.903 16.4678 20.1455 16.4678 20.3636C16.4678 20.5818 16.4678 20.8242 16.4678 21.0909C16.1286 21.0909 15.813 21.0909 15.5211 21.0909C15.2291 21.0909 14.9135 21.0909 14.5743 21.0909ZM14.5743 21.0909C14.5743 20.8242 14.5743 20.5818 14.5743 20.3636C14.5743 20.1455 14.5743 19.903 14.5743 19.6364C14.9135 19.6364 15.2291 19.6364 15.5211 19.6364C15.813 19.6364 16.1286 19.6364 16.4678 19.6364C16.4678 19.903 16.4678 20.1455 16.4678 20.3636C16.4678 20.5818 16.4678 20.8242 16.4678 21.0909C16.1286 21.0909 15.813 21.0909 15.5211 21.0909C15.2291 21.0909 14.9135 21.0909 14.5743 21.0909ZM14.5743 21.0909C14.5743 20.8242 14.5743 20.5818 14.5743 20.3636C14.5743 20.1455 14.5743 19.903 14.5743 19.6364C14.9135 19.6364 15.2291 19.6364 15.5211 19.6364C15.813 19.6364 16.1286 19.6364 16.4678 19.6364C16.4678 19.903 16.4678 20.1455 16.4678 20.3636C16.4678 20.5818 16.4678 20.8242 16.4678 21.0909C16.1286 21.0909 15.813 21.0909 15.5211 21.0909C15.2291 21.0909 14.9135 21.0909 14.5743 21.0909ZM14.5743 21.0909C14.5743 20.8242 14.5743 20.5818 14.5743 20.3636C14.5743 20.1455 14.5743 19.903 14.5743 19.6364C14.9135 19.6364 15.2291 19.6364 15.5211 19.6364C15.813 19.6364 16.1286 19.6364 16.4678 19.6364C16.4678 19.903 16.4678 20.1455 16.4678 20.3636C16.4678 20.5818 16.4678 20.8242 16.4678 21.0909C16.1286 21.0909 15.813 21.0909 15.5211 21.0909C15.2291 21.0909 14.9135 21.0909 14.5743 21.0909ZM14.5743 21.0909C14.5743 20.8242 14.5743 20.5818 14.5743 20.3636C14.5743 20.1455 14.5743 19.903 14.5743 19.6364C14.9135 19.6364 15.2291 19.6364 15.5211 19.6364C15.813 19.6364 16.1286 19.6364 16.4678 19.6364C16.4678 19.903 16.4678 20.1455 16.4678 20.3636C16.4678 20.5818 16.4678 20.8242 16.4678 21.0909C16.1286 21.0909 15.813 21.0909 15.5211 21.0909C15.2291 21.0909 14.9135 21.0909 14.5743 21.0909ZM14.5743 21.0909C14.5743 20.8242 14.5743 20.5818 14.5743 20.3636C14.5743 20.1455 14.5743 19.903 14.5743 19.6364C14.9135 19.6364 15.2291 19.6364 15.5211 19.6364C15.813 19.6364 16.1286 19.6364 16.4678 19.6364C16.4678 19.903 16.4678 20.1455 16.4678 20.3636C16.4678 20.5818 16.4678 20.8242 16.4678 21.0909C16.1286 21.0909 15.813 21.0909 15.5211 21.0909C15.2291 21.0909 14.9135 21.0909 14.5743 21.0909ZM14.5743 21.0909C14.5743 20.8242 14.5743 20.5818 14.5743 20.3636C14.5743 20.1455 14.5743 19.903 14.5743 19.6364C14.9135 19.6364 15.2291 19.6364 15.5211 19.6364C15.813 19.6364 16.1286 19.6364 16.4678 19.6364C16.4678 19.903 16.4678 20.1455 16.4678 20.3636C16.4678 20.5818 16.4678 20.8242 16.4678 21.0909C16.1286 21.0909 15.813 21.0909 15.5211 21.0909C15.2291 21.0909 14.9135 21.0909 14.5743 21.0909ZM14.5743 21.0909C14.5743 20.8242 14.5743 20.5818 14.5743 20.3636C14.5743 20.1455 14.5743 19.903 14.5743 19.6364C14.9135 19.6364 15.2291 19.6364 15.5211 19.6364C15.813 19.6364 16.1286 19.6364 16.4678 19.6364C16.4678 19.903 16.4678 20.1455 16.4678 20.3636C16.4678 20.5818 16.4678 20.8242 16.4678 21.0909C16.1286 21.0909 15.813 21.0909 15.5211 21.0909C15.2291 21.0909 14.9135 21.0909 14.5743 21.0909ZM7 19.6364C7 19.3697 7 19.1273 7 18.9091C7 18.6909 7 18.4485 7 18.1818C7.33926 18.1818 7.65486 18.1818 7.94678 18.1818C8.23871 18.1818 8.5543 18.1818 8.89357 18.1818C8.89357 18.4485 8.89357 18.6909 8.89357 18.9091C8.89357 19.1273 8.89357 19.3697 8.89357 19.6364C8.5543 19.6364 8.23871 19.6364 7.94678 19.6364C7.65486 19.6364 7.33926 19.6364 7 19.6364ZM7 19.6364C7 19.3697 7 19.1273 7 18.9091C7 18.6909 7 18.4485 7 18.1818C7.33926 18.1818 7.65486 18.1818 7.94678 18.1818C8.23871 18.1818 8.5543 18.1818 8.89357 18.1818C8.89357 18.4485 8.89357 18.6909 8.89357 18.9091C8.89357 19.1273 8.89357 19.3697 8.89357 19.6364C8.5543 19.6364 8.23871 19.6364 7.94678 19.6364C7.65486 19.6364 7.33926 19.6364 7 19.6364ZM7 19.6364C7 19.3697 7 19.1273 7 18.9091C7 18.6909 7 18.4485 7 18.1818C7.33926 18.1818 7.65486 18.1818 7.94678 18.1818C8.23871 18.1818 8.5543 18.1818 8.89357 18.1818C8.89357 18.4485 8.89357 18.6909 8.89357 18.9091C8.89357 19.1273 8.89357 19.3697 8.89357 19.6364C8.5543 19.6364 8.23871 19.6364 7.94678 19.6364C7.65486 19.6364 7.33926 19.6364 7 19.6364ZM7 19.6364C7 19.3697 7 19.1273 7 18.9091C7 18.6909 7 18.4485 7 18.1818C7.33926 18.1818 7.65486 18.1818 7.94678 18.1818C8.23871 18.1818 8.5543 18.1818 8.89357 18.1818C8.89357 18.4485 8.89357 18.6909 8.89357 18.9091C8.89357 19.1273 8.89357 19.3697 8.89357 19.6364C8.5543 19.6364 8.23871 19.6364 7.94678 19.6364C7.65486 19.6364 7.33926 19.6364 7 19.6364ZM7 19.6364C7 19.3697 7 19.1273 7 18.9091C7 18.6909 7 18.4485 7 18.1818C7.33926 18.1818 7.65486 18.1818 7.94678 18.1818C8.23871 18.1818 8.5543 18.1818 8.89357 18.1818C8.89357 18.4485 8.89357 18.6909 8.89357 18.9091C8.89357 19.1273 8.89357 19.3697 8.89357 19.6364C8.5543 19.6364 8.23871 19.6364 7.94678 19.6364C7.65486 19.6364 7.33926 19.6364 7 19.6364ZM7 19.6364C7 19.3697 7 19.1273 7 18.9091C7 18.6909 7 18.4485 7 18.1818C7.33926 18.1818 7.65486 18.1818 7.94678 18.1818C8.23871 18.1818 8.5543 18.1818 8.89357 18.1818C8.89357 18.4485 8.89357 18.6909 8.89357 18.9091C8.89357 19.1273 8.89357 19.3697 8.89357 19.6364C8.5543 19.6364 8.23871 19.6364 7.94678 19.6364C7.65486 19.6364 7.33926 19.6364 7 19.6364ZM7 19.6364C7 19.3697 7 19.1273 7 18.9091C7 18.6909 7 18.4485 7 18.1818C7.33926 18.1818 7.65486 18.1818 7.94678 18.1818C8.23871 18.1818 8.5543 18.1818 8.89357 18.1818C8.89357 18.4485 8.89357 18.6909 8.89357 18.9091C8.89357 19.1273 8.89357 19.3697 8.89357 19.6364C8.5543 19.6364 8.23871 19.6364 7.94678 19.6364C7.65486 19.6364 7.33926 19.6364 7 19.6364ZM7 19.6364C7 19.3697 7 19.1273 7 18.9091C7 18.6909 7 18.4485 7 18.1818C7.33926 18.1818 7.65486 18.1818 7.94678 18.1818C8.23871 18.1818 8.5543 18.1818 8.89357 18.1818C8.89357 18.4485 8.89357 18.6909 8.89357 18.9091C8.89357 19.1273 8.89357 19.3697 8.89357 19.6364C8.5543 19.6364 8.23871 19.6364 7.94678 19.6364C7.65486 19.6364 7.33926 19.6364 7 19.6364ZM7 19.6364C7 19.3697 7 19.1273 7 18.9091C7 18.6909 7 18.4485 7 18.1818C7.33926 18.1818 7.65486 18.1818 7.94678 18.1818C8.23871 18.1818 8.5543 18.1818 8.89357 18.1818C8.89357 18.4485 8.89357 18.6909 8.89357 18.9091C8.89357 19.1273 8.89357 19.3697 8.89357 19.6364C8.5543 19.6364 8.23871 19.6364 7.94678 19.6364C7.65486 19.6364 7.33926 19.6364 7 19.6364ZM8.89357 19.6364C8.89357 19.3697 8.89357 19.1273 8.89357 18.9091C8.89357 18.6909 8.89357 18.4485 8.89357 18.1818C9.23283 18.1818 9.54843 18.1818 9.84035 18.1818C10.1323 18.1818 10.4479 18.1818 10.7871 18.1818C10.7871 18.4485 10.7871 18.6909 10.7871 18.9091C10.7871 19.1273 10.7871 19.3697 10.7871 19.6364C10.4479 19.6364 10.1323 19.6364 9.84035 19.6364C9.54843 19.6364 9.23283 19.6364 8.89357 19.6364ZM8.89357 19.6364C8.89357 19.3697 8.89357 19.1273 8.89357 18.9091C8.89357 18.6909 8.89357 18.4485 8.89357 18.1818C9.23283 18.1818 9.54843 18.1818 9.84035 18.1818C10.1323 18.1818 10.4479 18.1818 10.7871 18.1818C10.7871 18.4485 10.7871 18.6909 10.7871 18.9091C10.7871 19.1273 10.7871 19.3697 10.7871 19.6364C10.4479 19.6364 10.1323 19.6364 9.84035 19.6364C9.54843 19.6364 9.23283 19.6364 8.89357 19.6364ZM8.89357 19.6364C8.89357 19.3697 8.89357 19.1273 8.89357 18.9091C8.89357 18.6909 8.89357 18.4485 8.89357 18.1818C9.23283 18.1818 9.54843 18.1818 9.84035 18.1818C10.1323 18.1818 10.4479 18.1818 10.7871 18.1818C10.7871 18.4485 10.7871 18.6909 10.7871 18.9091C10.7871 19.1273 10.7871 19.3697 10.7871 19.6364C10.4479 19.6364 10.1323 19.6364 9.84035 19.6364C9.54843 19.6364 9.23283 19.6364 8.89357 19.6364ZM8.89357 19.6364C8.89357 19.3697 8.89357 19.1273 8.89357 18.9091C8.89357 18.6909 8.89357 18.4485 8.89357 18.1818C9.23283 18.1818 9.54843 18.1818 9.84035 18.1818C10.1323 18.1818 10.4479 18.1818 10.7871 18.1818C10.7871 18.4485 10.7871 18.6909 10.7871 18.9091C10.7871 19.1273 10.7871 19.3697 10.7871 19.6364C10.4479 19.6364 10.1323 19.6364 9.84035 19.6364C9.54843 19.6364 9.23283 19.6364 8.89357 19.6364ZM8.89357 19.6364C8.89357 19.3697 8.89357 19.1273 8.89357 18.9091C8.89357 18.6909 8.89357 18.4485 8.89357 18.1818C9.23283 18.1818 9.54843 18.1818 9.84035 18.1818C10.1323 18.1818 10.4479 18.1818 10.7871 18.1818C10.7871 18.4485 10.7871 18.6909 10.7871 18.9091C10.7871 19.1273 10.7871 19.3697 10.7871 19.6364C10.4479 19.6364 10.1323 19.6364 9.84035 19.6364C9.54843 19.6364 9.23283 19.6364 8.89357 19.6364ZM8.89357 19.6364C8.89357 19.3697 8.89357 19.1273 8.89357 18.9091C8.89357 18.6909 8.89357 18.4485 8.89357 18.1818C9.23283 18.1818 9.54843 18.1818 9.84035 18.1818C10.1323 18.1818 10.4479 18.1818 10.7871 18.1818C10.7871 18.4485 10.7871 18.6909 10.7871 18.9091C10.7871 19.1273 10.7871 19.3697 10.7871 19.6364C10.4479 19.6364 10.1323 19.6364 9.84035 19.6364C9.54843 19.6364 9.23283 19.6364 8.89357 19.6364ZM8.89357 19.6364C8.89357 19.3697 8.89357 19.1273 8.89357 18.9091C8.89357 18.6909 8.89357 18.4485 8.89357 18.1818C9.23283 18.1818 9.54843 18.1818 9.84035 18.1818C10.1323 18.1818 10.4479 18.1818 10.7871 18.1818C10.7871 18.4485 10.7871 18.6909 10.7871 18.9091C10.7871 19.1273 10.7871 19.3697 10.7871 19.6364C10.4479 19.6364 10.1323 19.6364 9.84035 19.6364C9.54843 19.6364 9.23283 19.6364 8.89357 19.6364ZM8.89357 19.6364C8.89357 19.3697 8.89357 19.1273 8.89357 18.9091C8.89357 18.6909 8.89357 18.4485 8.89357 18.1818C9.23283 18.1818 9.54843 18.1818 9.84035 18.1818C10.1323 18.1818 10.4479 18.1818 10.7871 18.1818C10.7871 18.4485 10.7871 18.6909 10.7871 18.9091C10.7871 19.1273 10.7871 19.3697 10.7871 19.6364C10.4479 19.6364 10.1323 19.6364 9.84035 19.6364C9.54843 19.6364 9.23283 19.6364 8.89357 19.6364ZM8.89357 19.6364C8.89357 19.3697 8.89357 19.1273 8.89357 18.9091C8.89357 18.6909 8.89357 18.4485 8.89357 18.1818C9.23283 18.1818 9.54843 18.1818 9.84035 18.1818C10.1323 18.1818 10.4479 18.1818 10.7871 18.1818C10.7871 18.4485 10.7871 18.6909 10.7871 18.9091C10.7871 19.1273 10.7871 19.3697 10.7871 19.6364C10.4479 19.6364 10.1323 19.6364 9.84035 19.6364C9.54843 19.6364 9.23283 19.6364 8.89357 19.6364ZM10.7871 19.6364C10.7871 19.3697 10.7871 19.1273 10.7871 18.9091C10.7871 18.6909 10.7871 18.4485 10.7871 18.1818C11.1264 18.1818 11.442 18.1818 11.7339 18.1818C12.0258 18.1818 12.3414 18.1818 12.6807 18.1818C12.6807 18.4485 12.6807 18.6909 12.6807 18.9091C12.6807 19.1273 12.6807 19.3697 12.6807 19.6364C12.3414 19.6364 12.0258 19.6364 11.7339 19.6364C11.442 19.6364 11.1264 19.6364 10.7871 19.6364ZM10.7871 19.6364C10.7871 19.3697 10.7871 19.1273 10.7871 18.9091C10.7871 18.6909 10.7871 18.4485 10.7871 18.1818C11.1264 18.1818 11.442 18.1818 11.7339 18.1818C12.0258 18.1818 12.3414 18.1818 12.6807 18.1818C12.6807 18.4485 12.6807 18.6909 12.6807 18.9091C12.6807 19.1273 12.6807 19.3697 12.6807 19.6364C12.3414 19.6364 12.0258 19.6364 11.7339 19.6364C11.442 19.6364 11.1264 19.6364 10.7871 19.6364ZM10.7871 19.6364C10.7871 19.3697 10.7871 19.1273 10.7871 18.9091C10.7871 18.6909 10.7871 18.4485 10.7871 18.1818C11.1264 18.1818 11.442 18.1818 11.7339 18.1818C12.0258 18.1818 12.3414 18.1818 12.6807 18.1818C12.6807 18.4485 12.6807 18.6909 12.6807 18.9091C12.6807 19.1273 12.6807 19.3697 12.6807 19.6364C12.3414 19.6364 12.0258 19.6364 11.7339 19.6364C11.442 19.6364 11.1264 19.6364 10.7871 19.6364ZM10.7871 19.6364C10.7871 19.3697 10.7871 19.1273 10.7871 18.9091C10.7871 18.6909 10.7871 18.4485 10.7871 18.1818C11.1264 18.1818 11.442 18.1818 11.7339 18.1818C12.0258 18.1818 12.3414 18.1818 12.6807 18.1818C12.6807 18.4485 12.6807 18.6909 12.6807 18.9091C12.6807 19.1273 12.6807 19.3697 12.6807 19.6364C12.3414 19.6364 12.0258 19.6364 11.7339 19.6364C11.442 19.6364 11.1264 19.6364 10.7871 19.6364ZM10.7871 19.6364C10.7871 19.3697 10.7871 19.1273 10.7871 18.9091C10.7871 18.6909 10.7871 18.4485 10.7871 18.1818C11.1264 18.1818 11.442 18.1818 11.7339 18.1818C12.0258 18.1818 12.3414 18.1818 12.6807 18.1818C12.6807 18.4485 12.6807 18.6909 12.6807 18.9091C12.6807 19.1273 12.6807 19.3697 12.6807 19.6364C12.3414 19.6364 12.0258 19.6364 11.7339 19.6364C11.442 19.6364 11.1264 19.6364 10.7871 19.6364ZM10.7871 19.6364C10.7871 19.3697 10.7871 19.1273 10.7871 18.9091C10.7871 18.6909 10.7871 18.4485 10.7871 18.1818C11.1264 18.1818 11.442 18.1818 11.7339 18.1818C12.0258 18.1818 12.3414 18.1818 12.6807 18.1818C12.6807 18.4485 12.6807 18.6909 12.6807 18.9091C12.6807 19.1273 12.6807 19.3697 12.6807 19.6364C12.3414 19.6364 12.0258 19.6364 11.7339 19.6364C11.442 19.6364 11.1264 19.6364 10.7871 19.6364ZM10.7871 19.6364C10.7871 19.3697 10.7871 19.1273 10.7871 18.9091C10.7871 18.6909 10.7871 18.4485 10.7871 18.1818C11.1264 18.1818 11.442 18.1818 11.7339 18.1818C12.0258 18.1818 12.3414 18.1818 12.6807 18.1818C12.6807 18.4485 12.6807 18.6909 12.6807 18.9091C12.6807 19.1273 12.6807 19.3697 12.6807 19.6364C12.3414 19.6364 12.0258 19.6364 11.7339 19.6364C11.442 19.6364 11.1264 19.6364 10.7871 19.6364ZM10.7871 19.6364C10.7871 19.3697 10.7871 19.1273 10.7871 18.9091C10.7871 18.6909 10.7871 18.4485 10.7871 18.1818C11.1264 18.1818 11.442 18.1818 11.7339 18.1818C12.0258 18.1818 12.3414 18.1818 12.6807 18.1818C12.6807 18.4485 12.6807 18.6909 12.6807 18.9091C12.6807 19.1273 12.6807 19.3697 12.6807 19.6364C12.3414 19.6364 12.0258 19.6364 11.7339 19.6364C11.442 19.6364 11.1264 19.6364 10.7871 19.6364ZM10.7871 19.6364C10.7871 19.3697 10.7871 19.1273 10.7871 18.9091C10.7871 18.6909 10.7871 18.4485 10.7871 18.1818C11.1264 18.1818 11.442 18.1818 11.7339 18.1818C12.0258 18.1818 12.3414 18.1818 12.6807 18.1818C12.6807 18.4485 12.6807 18.6909 12.6807 18.9091C12.6807 19.1273 12.6807 19.3697 12.6807 19.6364C12.3414 19.6364 12.0258 19.6364 11.7339 19.6364C11.442 19.6364 11.1264 19.6364 10.7871 19.6364ZM12.6807 19.6364C12.6807 19.3697 12.6807 19.1273 12.6807 18.9091C12.6807 18.6909 12.6807 18.4485 12.6807 18.1818C13.02 18.1818 13.3356 18.1818 13.6275 18.1818C13.9194 18.1818 14.235 18.1818 14.5743 18.1818C14.5743 18.4485 14.5743 18.6909 14.5743 18.9091C14.5743 19.1273 14.5743 19.3697 14.5743 19.6364C14.235 19.6364 13.9194 19.6364 13.6275 19.6364C13.3356 19.6364 13.02 19.6364 12.6807 19.6364ZM12.6807 19.6364C12.6807 19.3697 12.6807 19.1273 12.6807 18.9091C12.6807 18.6909 12.6807 18.4485 12.6807 18.1818C13.02 18.1818 13.3356 18.1818 13.6275 18.1818C13.9194 18.1818 14.235 18.1818 14.5743 18.1818C14.5743 18.4485 14.5743 18.6909 14.5743 18.9091C14.5743 19.1273 14.5743 19.3697 14.5743 19.6364C14.235 19.6364 13.9194 19.6364 13.6275 19.6364C13.3356 19.6364 13.02 19.6364 12.6807 19.6364ZM12.6807 19.6364C12.6807 19.3697 12.6807 19.1273 12.6807 18.9091C12.6807 18.6909 12.6807 18.4485 12.6807 18.1818C13.02 18.1818 13.3356 18.1818 13.6275 18.1818C13.9194 18.1818 14.235 18.1818 14.5743 18.1818C14.5743 18.4485 14.5743 18.6909 14.5743 18.9091C14.5743 19.1273 14.5743 19.3697 14.5743 19.6364C14.235 19.6364 13.9194 19.6364 13.6275 19.6364C13.3356 19.6364 13.02 19.6364 12.6807 19.6364ZM12.6807 19.6364C12.6807 19.3697 12.6807 19.1273 12.6807 18.9091C12.6807 18.6909 12.6807 18.4485 12.6807 18.1818C13.02 18.1818 13.3356 18.1818 13.6275 18.1818C13.9194 18.1818 14.235 18.1818 14.5743 18.1818C14.5743 18.4485 14.5743 18.6909 14.5743 18.9091C14.5743 19.1273 14.5743 19.3697 14.5743 19.6364C14.235 19.6364 13.9194 19.6364 13.6275 19.6364C13.3356 19.6364 13.02 19.6364 12.6807 19.6364ZM12.6807 19.6364C12.6807 19.3697 12.6807 19.1273 12.6807 18.9091C12.6807 18.6909 12.6807 18.4485 12.6807 18.1818C13.02 18.1818 13.3356 18.1818 13.6275 18.1818C13.9194 18.1818 14.235 18.1818 14.5743 18.1818C14.5743 18.4485 14.5743 18.6909 14.5743 18.9091C14.5743 19.1273 14.5743 19.3697 14.5743 19.6364C14.235 19.6364 13.9194 19.6364 13.6275 19.6364C13.3356 19.6364 13.02 19.6364 12.6807 19.6364ZM12.6807 19.6364C12.6807 19.3697 12.6807 19.1273 12.6807 18.9091C12.6807 18.6909 12.6807 18.4485 12.6807 18.1818C13.02 18.1818 13.3356 18.1818 13.6275 18.1818C13.9194 18.1818 14.235 18.1818 14.5743 18.1818C14.5743 18.4485 14.5743 18.6909 14.5743 18.9091C14.5743 19.1273 14.5743 19.3697 14.5743 19.6364C14.235 19.6364 13.9194 19.6364 13.6275 19.6364C13.3356 19.6364 13.02 19.6364 12.6807 19.6364ZM12.6807 19.6364C12.6807 19.3697 12.6807 19.1273 12.6807 18.9091C12.6807 18.6909 12.6807 18.4485 12.6807 18.1818C13.02 18.1818 13.3356 18.1818 13.6275 18.1818C13.9194 18.1818 14.235 18.1818 14.5743 18.1818C14.5743 18.4485 14.5743 18.6909 14.5743 18.9091C14.5743 19.1273 14.5743 19.3697 14.5743 19.6364C14.235 19.6364 13.9194 19.6364 13.6275 19.6364C13.3356 19.6364 13.02 19.6364 12.6807 19.6364ZM12.6807 19.6364C12.6807 19.3697 12.6807 19.1273 12.6807 18.9091C12.6807 18.6909 12.6807 18.4485 12.6807 18.1818C13.02 18.1818 13.3356 18.1818 13.6275 18.1818C13.9194 18.1818 14.235 18.1818 14.5743 18.1818C14.5743 18.4485 14.5743 18.6909 14.5743 18.9091C14.5743 19.1273 14.5743 19.3697 14.5743 19.6364C14.235 19.6364 13.9194 19.6364 13.6275 19.6364C13.3356 19.6364 13.02 19.6364 12.6807 19.6364ZM12.6807 19.6364C12.6807 19.3697 12.6807 19.1273 12.6807 18.9091C12.6807 18.6909 12.6807 18.4485 12.6807 18.1818C13.02 18.1818 13.3356 18.1818 13.6275 18.1818C13.9194 18.1818 14.235 18.1818 14.5743 18.1818C14.5743 18.4485 14.5743 18.6909 14.5743 18.9091C14.5743 19.1273 14.5743 19.3697 14.5743 19.6364C14.235 19.6364 13.9194 19.6364 13.6275 19.6364C13.3356 19.6364 13.02 19.6364 12.6807 19.6364ZM14.5743 19.6364C14.5743 19.3697 14.5743 19.1273 14.5743 18.9091C14.5743 18.6909 14.5743 18.4485 14.5743 18.1818C14.9135 18.1818 15.2291 18.1818 15.5211 18.1818C15.813 18.1818 16.1286 18.1818 16.4678 18.1818C16.4678 18.4485 16.4678 18.6909 16.4678 18.9091C16.4678 19.1273 16.4678 19.3697 16.4678 19.6364C16.1286 19.6364 15.813 19.6364 15.5211 19.6364C15.2291 19.6364 14.9135 19.6364 14.5743 19.6364ZM14.5743 19.6364C14.5743 19.3697 14.5743 19.1273 14.5743 18.9091C14.5743 18.6909 14.5743 18.4485 14.5743 18.1818C14.9135 18.1818 15.2291 18.1818 15.5211 18.1818C15.813 18.1818 16.1286 18.1818 16.4678 18.1818C16.4678 18.4485 16.4678 18.6909 16.4678 18.9091C16.4678 19.1273 16.4678 19.3697 16.4678 19.6364C16.1286 19.6364 15.813 19.6364 15.5211 19.6364C15.2291 19.6364 14.9135 19.6364 14.5743 19.6364ZM14.5743 19.6364C14.5743 19.3697 14.5743 19.1273 14.5743 18.9091C14.5743 18.6909 14.5743 18.4485 14.5743 18.1818C14.9135 18.1818 15.2291 18.1818 15.5211 18.1818C15.813 18.1818 16.1286 18.1818 16.4678 18.1818C16.4678 18.4485 16.4678 18.6909 16.4678 18.9091C16.4678 19.1273 16.4678 19.3697 16.4678 19.6364C16.1286 19.6364 15.813 19.6364 15.5211 19.6364C15.2291 19.6364 14.9135 19.6364 14.5743 19.6364ZM14.5743 19.6364C14.5743 19.3697 14.5743 19.1273 14.5743 18.9091C14.5743 18.6909 14.5743 18.4485 14.5743 18.1818C14.9135 18.1818 15.2291 18.1818 15.5211 18.1818C15.813 18.1818 16.1286 18.1818 16.4678 18.1818C16.4678 18.4485 16.4678 18.6909 16.4678 18.9091C16.4678 19.1273 16.4678 19.3697 16.4678 19.6364C16.1286 19.6364 15.813 19.6364 15.5211 19.6364C15.2291 19.6364 14.9135 19.6364 14.5743 19.6364ZM14.5743 19.6364C14.5743 19.3697 14.5743 19.1273 14.5743 18.9091C14.5743 18.6909 14.5743 18.4485 14.5743 18.1818C14.9135 18.1818 15.2291 18.1818 15.5211 18.1818C15.813 18.1818 16.1286 18.1818 16.4678 18.1818C16.4678 18.4485 16.4678 18.6909 16.4678 18.9091C16.4678 19.1273 16.4678 19.3697 16.4678 19.6364C16.1286 19.6364 15.813 19.6364 15.5211 19.6364C15.2291 19.6364 14.9135 19.6364 14.5743 19.6364ZM14.5743 19.6364C14.5743 19.3697 14.5743 19.1273 14.5743 18.9091C14.5743 18.6909 14.5743 18.4485 14.5743 18.1818C14.9135 18.1818 15.2291 18.1818 15.5211 18.1818C15.813 18.1818 16.1286 18.1818 16.4678 18.1818C16.4678 18.4485 16.4678 18.6909 16.4678 18.9091C16.4678 19.1273 16.4678 19.3697 16.4678 19.6364C16.1286 19.6364 15.813 19.6364 15.5211 19.6364C15.2291 19.6364 14.9135 19.6364 14.5743 19.6364ZM14.5743 19.6364C14.5743 19.3697 14.5743 19.1273 14.5743 18.9091C14.5743 18.6909 14.5743 18.4485 14.5743 18.1818C14.9135 18.1818 15.2291 18.1818 15.5211 18.1818C15.813 18.1818 16.1286 18.1818 16.4678 18.1818C16.4678 18.4485 16.4678 18.6909 16.4678 18.9091C16.4678 19.1273 16.4678 19.3697 16.4678 19.6364C16.1286 19.6364 15.813 19.6364 15.5211 19.6364C15.2291 19.6364 14.9135 19.6364 14.5743 19.6364ZM14.5743 19.6364C14.5743 19.3697 14.5743 19.1273 14.5743 18.9091C14.5743 18.6909 14.5743 18.4485 14.5743 18.1818C14.9135 18.1818 15.2291 18.1818 15.5211 18.1818C15.813 18.1818 16.1286 18.1818 16.4678 18.1818C16.4678 18.4485 16.4678 18.6909 16.4678 18.9091C16.4678 19.1273 16.4678 19.3697 16.4678 19.6364C16.1286 19.6364 15.813 19.6364 15.5211 19.6364C15.2291 19.6364 14.9135 19.6364 14.5743 19.6364ZM14.5743 19.6364C14.5743 19.3697 14.5743 19.1273 14.5743 18.9091C14.5743 18.6909 14.5743 18.4485 14.5743 18.1818C14.9135 18.1818 15.2291 18.1818 15.5211 18.1818C15.813 18.1818 16.1286 18.1818 16.4678 18.1818C16.4678 18.4485 16.4678 18.6909 16.4678 18.9091C16.4678 19.1273 16.4678 19.3697 16.4678 19.6364C16.1286 19.6364 15.813 19.6364 15.5211 19.6364C15.2291 19.6364 14.9135 19.6364 14.5743 19.6364ZM7 18.1818C7 17.9152 7 17.6727 7 17.4545C7 17.2364 7 16.9939 7 16.7273C7.33926 16.7273 7.65486 16.7273 7.94678 16.7273C8.23871 16.7273 8.5543 16.7273 8.89357 16.7273C8.89357 16.9939 8.89357 17.2364 8.89357 17.4545C8.89357 17.6727 8.89357 17.9152 8.89357 18.1818C8.5543 18.1818 8.23871 18.1818 7.94678 18.1818C7.65486 18.1818 7.33926 18.1818 7 18.1818ZM7 18.1818C7 17.9152 7 17.6727 7 17.4545C7 17.2364 7 16.9939 7 16.7273C7.33926 16.7273 7.65486 16.7273 7.94678 16.7273C8.23871 16.7273 8.5543 16.7273 8.89357 16.7273C8.89357 16.9939 8.89357 17.2364 8.89357 17.4545C8.89357 17.6727 8.89357 17.9152 8.89357 18.1818C8.5543 18.1818 8.23871 18.1818 7.94678 18.1818C7.65486 18.1818 7.33926 18.1818 7 18.1818ZM7 18.1818C7 17.9152 7 17.6727 7 17.4545C7 17.2364 7 16.9939 7 16.7273C7.33926 16.7273 7.65486 16.7273 7.94678 16.7273C8.23871 16.7273 8.5543 16.7273 8.89357 16.7273C8.89357 16.9939 8.89357 17.2364 8.89357 17.4545C8.89357 17.6727 8.89357 17.9152 8.89357 18.1818C8.5543 18.1818 8.23871 18.1818 7.94678 18.1818C7.65486 18.1818 7.33926 18.1818 7 18.1818ZM7 18.1818C7 17.9152 7 17.6727 7 17.4545C7 17.2364 7 16.9939 7 16.7273C7.33926 16.7273 7.65486 16.7273 7.94678 16.7273C8.23871 16.7273 8.5543 16.7273 8.89357 16.7273C8.89357 16.9939 8.89357 17.2364 8.89357 17.4545C8.89357 17.6727 8.89357 17.9152 8.89357 18.1818C8.5543 18.1818 8.23871 18.1818 7.94678 18.1818C7.65486 18.1818 7.33926 18.1818 7 18.1818ZM7 18.1818C7 17.9152 7 17.6727 7 17.4545C7 17.2364 7 16.9939 7 16.7273C7.33926 16.7273 7.65486 16.7273 7.94678 16.7273C8.23871 16.7273 8.5543 16.7273 8.89357 16.7273C8.89357 16.9939 8.89357 17.2364 8.89357 17.4545C8.89357 17.6727 8.89357 17.9152 8.89357 18.1818C8.5543 18.1818 8.23871 18.1818 7.94678 18.1818C7.65486 18.1818 7.33926 18.1818 7 18.1818ZM7 18.1818C7 17.9152 7 17.6727 7 17.4545C7 17.2364 7 16.9939 7 16.7273C7.33926 16.7273 7.65486 16.7273 7.94678 16.7273C8.23871 16.7273 8.5543 16.7273 8.89357 16.7273C8.89357 16.9939 8.89357 17.2364 8.89357 17.4545C8.89357 17.6727 8.89357 17.9152 8.89357 18.1818C8.5543 18.1818 8.23871 18.1818 7.94678 18.1818C7.65486 18.1818 7.33926 18.1818 7 18.1818ZM7 18.1818C7 17.9152 7 17.6727 7 17.4545C7 17.2364 7 16.9939 7 16.7273C7.33926 16.7273 7.65486 16.7273 7.94678 16.7273C8.23871 16.7273 8.5543 16.7273 8.89357 16.7273C8.89357 16.9939 8.89357 17.2364 8.89357 17.4545C8.89357 17.6727 8.89357 17.9152 8.89357 18.1818C8.5543 18.1818 8.23871 18.1818 7.94678 18.1818C7.65486 18.1818 7.33926 18.1818 7 18.1818ZM7 18.1818C7 17.9152 7 17.6727 7 17.4545C7 17.2364 7 16.9939 7 16.7273C7.33926 16.7273 7.65486 16.7273 7.94678 16.7273C8.23871 16.7273 8.5543 16.7273 8.89357 16.7273C8.89357 16.9939 8.89357 17.2364 8.89357 17.4545C8.89357 17.6727 8.89357 17.9152 8.89357 18.1818C8.5543 18.1818 8.23871 18.1818 7.94678 18.1818C7.65486 18.1818 7.33926 18.1818 7 18.1818ZM7 18.1818C7 17.9152 7 17.6727 7 17.4545C7 17.2364 7 16.9939 7 16.7273C7.33926 16.7273 7.65486 16.7273 7.94678 16.7273C8.23871 16.7273 8.5543 16.7273 8.89357 16.7273C8.89357 16.9939 8.89357 17.2364 8.89357 17.4545C8.89357 17.6727 8.89357 17.9152 8.89357 18.1818C8.5543 18.1818 8.23871 18.1818 7.94678 18.1818C7.65486 18.1818 7.33926 18.1818 7 18.1818ZM14.5743 18.1818C14.5743 17.9152 14.5743 17.6727 14.5743 17.4545C14.5743 17.2364 14.5743 16.9939 14.5743 16.7273C14.9135 16.7273 15.2291 16.7273 15.5211 16.7273C15.813 16.7273 16.1286 16.7273 16.4678 16.7273C16.4678 16.9939 16.4678 17.2364 16.4678 17.4545C16.4678 17.6727 16.4678 17.9152 16.4678 18.1818C16.1286 18.1818 15.813 18.1818 15.5211 18.1818C15.2291 18.1818 14.9135 18.1818 14.5743 18.1818ZM14.5743 18.1818C14.5743 17.9152 14.5743 17.6727 14.5743 17.4545C14.5743 17.2364 14.5743 16.9939 14.5743 16.7273C14.9135 16.7273 15.2291 16.7273 15.5211 16.7273C15.813 16.7273 16.1286 16.7273 16.4678 16.7273C16.4678 16.9939 16.4678 17.2364 16.4678 17.4545C16.4678 17.6727 16.4678 17.9152 16.4678 18.1818C16.1286 18.1818 15.813 18.1818 15.5211 18.1818C15.2291 18.1818 14.9135 18.1818 14.5743 18.1818ZM14.5743 18.1818C14.5743 17.9152 14.5743 17.6727 14.5743 17.4545C14.5743 17.2364 14.5743 16.9939 14.5743 16.7273C14.9135 16.7273 15.2291 16.7273 15.5211 16.7273C15.813 16.7273 16.1286 16.7273 16.4678 16.7273C16.4678 16.9939 16.4678 17.2364 16.4678 17.4545C16.4678 17.6727 16.4678 17.9152 16.4678 18.1818C16.1286 18.1818 15.813 18.1818 15.5211 18.1818C15.2291 18.1818 14.9135 18.1818 14.5743 18.1818ZM14.5743 18.1818C14.5743 17.9152 14.5743 17.6727 14.5743 17.4545C14.5743 17.2364 14.5743 16.9939 14.5743 16.7273C14.9135 16.7273 15.2291 16.7273 15.5211 16.7273C15.813 16.7273 16.1286 16.7273 16.4678 16.7273C16.4678 16.9939 16.4678 17.2364 16.4678 17.4545C16.4678 17.6727 16.4678 17.9152 16.4678 18.1818C16.1286 18.1818 15.813 18.1818 15.5211 18.1818C15.2291 18.1818 14.9135 18.1818 14.5743 18.1818ZM14.5743 18.1818C14.5743 17.9152 14.5743 17.6727 14.5743 17.4545C14.5743 17.2364 14.5743 16.9939 14.5743 16.7273C14.9135 16.7273 15.2291 16.7273 15.5211 16.7273C15.813 16.7273 16.1286 16.7273 16.4678 16.7273C16.4678 16.9939 16.4678 17.2364 16.4678 17.4545C16.4678 17.6727 16.4678 17.9152 16.4678 18.1818C16.1286 18.1818 15.813 18.1818 15.5211 18.1818C15.2291 18.1818 14.9135 18.1818 14.5743 18.1818ZM14.5743 18.1818C14.5743 17.9152 14.5743 17.6727 14.5743 17.4545C14.5743 17.2364 14.5743 16.9939 14.5743 16.7273C14.9135 16.7273 15.2291 16.7273 15.5211 16.7273C15.813 16.7273 16.1286 16.7273 16.4678 16.7273C16.4678 16.9939 16.4678 17.2364 16.4678 17.4545C16.4678 17.6727 16.4678 17.9152 16.4678 18.1818C16.1286 18.1818 15.813 18.1818 15.5211 18.1818C15.2291 18.1818 14.9135 18.1818 14.5743 18.1818ZM14.5743 18.1818C14.5743 17.9152 14.5743 17.6727 14.5743 17.4545C14.5743 17.2364 14.5743 16.9939 14.5743 16.7273C14.9135 16.7273 15.2291 16.7273 15.5211 16.7273C15.813 16.7273 16.1286 16.7273 16.4678 16.7273C16.4678 16.9939 16.4678 17.2364 16.4678 17.4545C16.4678 17.6727 16.4678 17.9152 16.4678 18.1818C16.1286 18.1818 15.813 18.1818 15.5211 18.1818C15.2291 18.1818 14.9135 18.1818 14.5743 18.1818ZM14.5743 18.1818C14.5743 17.9152 14.5743 17.6727 14.5743 17.4545C14.5743 17.2364 14.5743 16.9939 14.5743 16.7273C14.9135 16.7273 15.2291 16.7273 15.5211 16.7273C15.813 16.7273 16.1286 16.7273 16.4678 16.7273C16.4678 16.9939 16.4678 17.2364 16.4678 17.4545C16.4678 17.6727 16.4678 17.9152 16.4678 18.1818C16.1286 18.1818 15.813 18.1818 15.5211 18.1818C15.2291 18.1818 14.9135 18.1818 14.5743 18.1818ZM14.5743 18.1818C14.5743 17.9152 14.5743 17.6727 14.5743 17.4545C14.5743 17.2364 14.5743 16.9939 14.5743 16.7273C14.9135 16.7273 15.2291 16.7273 15.5211 16.7273C15.813 16.7273 16.1286 16.7273 16.4678 16.7273C16.4678 16.9939 16.4678 17.2364 16.4678 17.4545C16.4678 17.6727 16.4678 17.9152 16.4678 18.1818C16.1286 18.1818 15.813 18.1818 15.5211 18.1818C15.2291 18.1818 14.9135 18.1818 14.5743 18.1818ZM7 16.7273C7 16.4606 7 16.2182 7 16C7 15.7818 7 15.5394 7 15.2727C7.33926 15.2727 7.65486 15.2727 7.94678 15.2727C8.23871 15.2727 8.5543 15.2727 8.89357 15.2727C8.89357 15.5394 8.89357 15.7818 8.89357 16C8.89357 16.2182 8.89357 16.4606 8.89357 16.7273C8.5543 16.7273 8.23871 16.7273 7.94678 16.7273C7.65486 16.7273 7.33926 16.7273 7 16.7273ZM7 16.7273C7 16.4606 7 16.2182 7 16C7 15.7818 7 15.5394 7 15.2727C7.33926 15.2727 7.65486 15.2727 7.94678 15.2727C8.23871 15.2727 8.5543 15.2727 8.89357 15.2727C8.89357 15.5394 8.89357 15.7818 8.89357 16C8.89357 16.2182 8.89357 16.4606 8.89357 16.7273C8.5543 16.7273 8.23871 16.7273 7.94678 16.7273C7.65486 16.7273 7.33926 16.7273 7 16.7273ZM7 16.7273C7 16.4606 7 16.2182 7 16C7 15.7818 7 15.5394 7 15.2727C7.33926 15.2727 7.65486 15.2727 7.94678 15.2727C8.23871 15.2727 8.5543 15.2727 8.89357 15.2727C8.89357 15.5394 8.89357 15.7818 8.89357 16C8.89357 16.2182 8.89357 16.4606 8.89357 16.7273C8.5543 16.7273 8.23871 16.7273 7.94678 16.7273C7.65486 16.7273 7.33926 16.7273 7 16.7273ZM7 16.7273C7 16.4606 7 16.2182 7 16C7 15.7818 7 15.5394 7 15.2727C7.33926 15.2727 7.65486 15.2727 7.94678 15.2727C8.23871 15.2727 8.5543 15.2727 8.89357 15.2727C8.89357 15.5394 8.89357 15.7818 8.89357 16C8.89357 16.2182 8.89357 16.4606 8.89357 16.7273C8.5543 16.7273 8.23871 16.7273 7.94678 16.7273C7.65486 16.7273 7.33926 16.7273 7 16.7273ZM7 16.7273C7 16.4606 7 16.2182 7 16C7 15.7818 7 15.5394 7 15.2727C7.33926 15.2727 7.65486 15.2727 7.94678 15.2727C8.23871 15.2727 8.5543 15.2727 8.89357 15.2727C8.89357 15.5394 8.89357 15.7818 8.89357 16C8.89357 16.2182 8.89357 16.4606 8.89357 16.7273C8.5543 16.7273 8.23871 16.7273 7.94678 16.7273C7.65486 16.7273 7.33926 16.7273 7 16.7273ZM7 16.7273C7 16.4606 7 16.2182 7 16C7 15.7818 7 15.5394 7 15.2727C7.33926 15.2727 7.65486 15.2727 7.94678 15.2727C8.23871 15.2727 8.5543 15.2727 8.89357 15.2727C8.89357 15.5394 8.89357 15.7818 8.89357 16C8.89357 16.2182 8.89357 16.4606 8.89357 16.7273C8.5543 16.7273 8.23871 16.7273 7.94678 16.7273C7.65486 16.7273 7.33926 16.7273 7 16.7273ZM7 16.7273C7 16.4606 7 16.2182 7 16C7 15.7818 7 15.5394 7 15.2727C7.33926 15.2727 7.65486 15.2727 7.94678 15.2727C8.23871 15.2727 8.5543 15.2727 8.89357 15.2727C8.89357 15.5394 8.89357 15.7818 8.89357 16C8.89357 16.2182 8.89357 16.4606 8.89357 16.7273C8.5543 16.7273 8.23871 16.7273 7.94678 16.7273C7.65486 16.7273 7.33926 16.7273 7 16.7273ZM7 16.7273C7 16.4606 7 16.2182 7 16C7 15.7818 7 15.5394 7 15.2727C7.33926 15.2727 7.65486 15.2727 7.94678 15.2727C8.23871 15.2727 8.5543 15.2727 8.89357 15.2727C8.89357 15.5394 8.89357 15.7818 8.89357 16C8.89357 16.2182 8.89357 16.4606 8.89357 16.7273C8.5543 16.7273 8.23871 16.7273 7.94678 16.7273C7.65486 16.7273 7.33926 16.7273 7 16.7273ZM7 16.7273C7 16.4606 7 16.2182 7 16C7 15.7818 7 15.5394 7 15.2727C7.33926 15.2727 7.65486 15.2727 7.94678 15.2727C8.23871 15.2727 8.5543 15.2727 8.89357 15.2727C8.89357 15.5394 8.89357 15.7818 8.89357 16C8.89357 16.2182 8.89357 16.4606 8.89357 16.7273C8.5543 16.7273 8.23871 16.7273 7.94678 16.7273C7.65486 16.7273 7.33926 16.7273 7 16.7273ZM14.5743 16.7273C14.5743 16.4606 14.5743 16.2182 14.5743 16C14.5743 15.7818 14.5743 15.5394 14.5743 15.2727C14.9135 15.2727 15.2291 15.2727 15.5211 15.2727C15.813 15.2727 16.1286 15.2727 16.4678 15.2727C16.4678 15.5394 16.4678 15.7818 16.4678 16C16.4678 16.2182 16.4678 16.4606 16.4678 16.7273C16.1286 16.7273 15.813 16.7273 15.5211 16.7273C15.2291 16.7273 14.9135 16.7273 14.5743 16.7273ZM14.5743 16.7273C14.5743 16.4606 14.5743 16.2182 14.5743 16C14.5743 15.7818 14.5743 15.5394 14.5743 15.2727C14.9135 15.2727 15.2291 15.2727 15.5211 15.2727C15.813 15.2727 16.1286 15.2727 16.4678 15.2727C16.4678 15.5394 16.4678 15.7818 16.4678 16C16.4678 16.2182 16.4678 16.4606 16.4678 16.7273C16.1286 16.7273 15.813 16.7273 15.5211 16.7273C15.2291 16.7273 14.9135 16.7273 14.5743 16.7273ZM14.5743 16.7273C14.5743 16.4606 14.5743 16.2182 14.5743 16C14.5743 15.7818 14.5743 15.5394 14.5743 15.2727C14.9135 15.2727 15.2291 15.2727 15.5211 15.2727C15.813 15.2727 16.1286 15.2727 16.4678 15.2727C16.4678 15.5394 16.4678 15.7818 16.4678 16C16.4678 16.2182 16.4678 16.4606 16.4678 16.7273C16.1286 16.7273 15.813 16.7273 15.5211 16.7273C15.2291 16.7273 14.9135 16.7273 14.5743 16.7273ZM14.5743 16.7273C14.5743 16.4606 14.5743 16.2182 14.5743 16C14.5743 15.7818 14.5743 15.5394 14.5743 15.2727C14.9135 15.2727 15.2291 15.2727 15.5211 15.2727C15.813 15.2727 16.1286 15.2727 16.4678 15.2727C16.4678 15.5394 16.4678 15.7818 16.4678 16C16.4678 16.2182 16.4678 16.4606 16.4678 16.7273C16.1286 16.7273 15.813 16.7273 15.5211 16.7273C15.2291 16.7273 14.9135 16.7273 14.5743 16.7273ZM14.5743 16.7273C14.5743 16.4606 14.5743 16.2182 14.5743 16C14.5743 15.7818 14.5743 15.5394 14.5743 15.2727C14.9135 15.2727 15.2291 15.2727 15.5211 15.2727C15.813 15.2727 16.1286 15.2727 16.4678 15.2727C16.4678 15.5394 16.4678 15.7818 16.4678 16C16.4678 16.2182 16.4678 16.4606 16.4678 16.7273C16.1286 16.7273 15.813 16.7273 15.5211 16.7273C15.2291 16.7273 14.9135 16.7273 14.5743 16.7273ZM14.5743 16.7273C14.5743 16.4606 14.5743 16.2182 14.5743 16C14.5743 15.7818 14.5743 15.5394 14.5743 15.2727C14.9135 15.2727 15.2291 15.2727 15.5211 15.2727C15.813 15.2727 16.1286 15.2727 16.4678 15.2727C16.4678 15.5394 16.4678 15.7818 16.4678 16C16.4678 16.2182 16.4678 16.4606 16.4678 16.7273C16.1286 16.7273 15.813 16.7273 15.5211 16.7273C15.2291 16.7273 14.9135 16.7273 14.5743 16.7273ZM14.5743 16.7273C14.5743 16.4606 14.5743 16.2182 14.5743 16C14.5743 15.7818 14.5743 15.5394 14.5743 15.2727C14.9135 15.2727 15.2291 15.2727 15.5211 15.2727C15.813 15.2727 16.1286 15.2727 16.4678 15.2727C16.4678 15.5394 16.4678 15.7818 16.4678 16C16.4678 16.2182 16.4678 16.4606 16.4678 16.7273C16.1286 16.7273 15.813 16.7273 15.5211 16.7273C15.2291 16.7273 14.9135 16.7273 14.5743 16.7273ZM14.5743 16.7273C14.5743 16.4606 14.5743 16.2182 14.5743 16C14.5743 15.7818 14.5743 15.5394 14.5743 15.2727C14.9135 15.2727 15.2291 15.2727 15.5211 15.2727C15.813 15.2727 16.1286 15.2727 16.4678 15.2727C16.4678 15.5394 16.4678 15.7818 16.4678 16C16.4678 16.2182 16.4678 16.4606 16.4678 16.7273C16.1286 16.7273 15.813 16.7273 15.5211 16.7273C15.2291 16.7273 14.9135 16.7273 14.5743 16.7273ZM14.5743 16.7273C14.5743 16.4606 14.5743 16.2182 14.5743 16C14.5743 15.7818 14.5743 15.5394 14.5743 15.2727C14.9135 15.2727 15.2291 15.2727 15.5211 15.2727C15.813 15.2727 16.1286 15.2727 16.4678 15.2727C16.4678 15.5394 16.4678 15.7818 16.4678 16C16.4678 16.2182 16.4678 16.4606 16.4678 16.7273C16.1286 16.7273 15.813 16.7273 15.5211 16.7273C15.2291 16.7273 14.9135 16.7273 14.5743 16.7273ZM7 15.2727C7 15.0061 7 14.7636 7 14.5455C7 14.3273 7 14.0848 7 13.8182C7.33926 13.8182 7.65486 13.8182 7.94678 13.8182C8.23871 13.8182 8.5543 13.8182 8.89357 13.8182C8.89357 14.0848 8.89357 14.3273 8.89357 14.5455C8.89357 14.7636 8.89357 15.0061 8.89357 15.2727C8.5543 15.2727 8.23871 15.2727 7.94678 15.2727C7.65486 15.2727 7.33926 15.2727 7 15.2727ZM7 15.2727C7 15.0061 7 14.7636 7 14.5455C7 14.3273 7 14.0848 7 13.8182C7.33926 13.8182 7.65486 13.8182 7.94678 13.8182C8.23871 13.8182 8.5543 13.8182 8.89357 13.8182C8.89357 14.0848 8.89357 14.3273 8.89357 14.5455C8.89357 14.7636 8.89357 15.0061 8.89357 15.2727C8.5543 15.2727 8.23871 15.2727 7.94678 15.2727C7.65486 15.2727 7.33926 15.2727 7 15.2727ZM7 15.2727C7 15.0061 7 14.7636 7 14.5455C7 14.3273 7 14.0848 7 13.8182C7.33926 13.8182 7.65486 13.8182 7.94678 13.8182C8.23871 13.8182 8.5543 13.8182 8.89357 13.8182C8.89357 14.0848 8.89357 14.3273 8.89357 14.5455C8.89357 14.7636 8.89357 15.0061 8.89357 15.2727C8.5543 15.2727 8.23871 15.2727 7.94678 15.2727C7.65486 15.2727 7.33926 15.2727 7 15.2727ZM7 15.2727C7 15.0061 7 14.7636 7 14.5455C7 14.3273 7 14.0848 7 13.8182C7.33926 13.8182 7.65486 13.8182 7.94678 13.8182C8.23871 13.8182 8.5543 13.8182 8.89357 13.8182C8.89357 14.0848 8.89357 14.3273 8.89357 14.5455C8.89357 14.7636 8.89357 15.0061 8.89357 15.2727C8.5543 15.2727 8.23871 15.2727 7.94678 15.2727C7.65486 15.2727 7.33926 15.2727 7 15.2727ZM7 15.2727C7 15.0061 7 14.7636 7 14.5455C7 14.3273 7 14.0848 7 13.8182C7.33926 13.8182 7.65486 13.8182 7.94678 13.8182C8.23871 13.8182 8.5543 13.8182 8.89357 13.8182C8.89357 14.0848 8.89357 14.3273 8.89357 14.5455C8.89357 14.7636 8.89357 15.0061 8.89357 15.2727C8.5543 15.2727 8.23871 15.2727 7.94678 15.2727C7.65486 15.2727 7.33926 15.2727 7 15.2727ZM7 15.2727C7 15.0061 7 14.7636 7 14.5455C7 14.3273 7 14.0848 7 13.8182C7.33926 13.8182 7.65486 13.8182 7.94678 13.8182C8.23871 13.8182 8.5543 13.8182 8.89357 13.8182C8.89357 14.0848 8.89357 14.3273 8.89357 14.5455C8.89357 14.7636 8.89357 15.0061 8.89357 15.2727C8.5543 15.2727 8.23871 15.2727 7.94678 15.2727C7.65486 15.2727 7.33926 15.2727 7 15.2727ZM7 15.2727C7 15.0061 7 14.7636 7 14.5455C7 14.3273 7 14.0848 7 13.8182C7.33926 13.8182 7.65486 13.8182 7.94678 13.8182C8.23871 13.8182 8.5543 13.8182 8.89357 13.8182C8.89357 14.0848 8.89357 14.3273 8.89357 14.5455C8.89357 14.7636 8.89357 15.0061 8.89357 15.2727C8.5543 15.2727 8.23871 15.2727 7.94678 15.2727C7.65486 15.2727 7.33926 15.2727 7 15.2727ZM7 15.2727C7 15.0061 7 14.7636 7 14.5455C7 14.3273 7 14.0848 7 13.8182C7.33926 13.8182 7.65486 13.8182 7.94678 13.8182C8.23871 13.8182 8.5543 13.8182 8.89357 13.8182C8.89357 14.0848 8.89357 14.3273 8.89357 14.5455C8.89357 14.7636 8.89357 15.0061 8.89357 15.2727C8.5543 15.2727 8.23871 15.2727 7.94678 15.2727C7.65486 15.2727 7.33926 15.2727 7 15.2727ZM7 15.2727C7 15.0061 7 14.7636 7 14.5455C7 14.3273 7 14.0848 7 13.8182C7.33926 13.8182 7.65486 13.8182 7.94678 13.8182C8.23871 13.8182 8.5543 13.8182 8.89357 13.8182C8.89357 14.0848 8.89357 14.3273 8.89357 14.5455C8.89357 14.7636 8.89357 15.0061 8.89357 15.2727C8.5543 15.2727 8.23871 15.2727 7.94678 15.2727C7.65486 15.2727 7.33926 15.2727 7 15.2727ZM14.5743 15.2727C14.5743 15.0061 14.5743 14.7636 14.5743 14.5455C14.5743 14.3273 14.5743 14.0848 14.5743 13.8182C14.9135 13.8182 15.2291 13.8182 15.5211 13.8182C15.813 13.8182 16.1286 13.8182 16.4678 13.8182C16.4678 14.0848 16.4678 14.3273 16.4678 14.5455C16.4678 14.7636 16.4678 15.0061 16.4678 15.2727C16.1286 15.2727 15.813 15.2727 15.5211 15.2727C15.2291 15.2727 14.9135 15.2727 14.5743 15.2727ZM14.5743 15.2727C14.5743 15.0061 14.5743 14.7636 14.5743 14.5455C14.5743 14.3273 14.5743 14.0848 14.5743 13.8182C14.9135 13.8182 15.2291 13.8182 15.5211 13.8182C15.813 13.8182 16.1286 13.8182 16.4678 13.8182C16.4678 14.0848 16.4678 14.3273 16.4678 14.5455C16.4678 14.7636 16.4678 15.0061 16.4678 15.2727C16.1286 15.2727 15.813 15.2727 15.5211 15.2727C15.2291 15.2727 14.9135 15.2727 14.5743 15.2727ZM14.5743 15.2727C14.5743 15.0061 14.5743 14.7636 14.5743 14.5455C14.5743 14.3273 14.5743 14.0848 14.5743 13.8182C14.9135 13.8182 15.2291 13.8182 15.5211 13.8182C15.813 13.8182 16.1286 13.8182 16.4678 13.8182C16.4678 14.0848 16.4678 14.3273 16.4678 14.5455C16.4678 14.7636 16.4678 15.0061 16.4678 15.2727C16.1286 15.2727 15.813 15.2727 15.5211 15.2727C15.2291 15.2727 14.9135 15.2727 14.5743 15.2727ZM14.5743 15.2727C14.5743 15.0061 14.5743 14.7636 14.5743 14.5455C14.5743 14.3273 14.5743 14.0848 14.5743 13.8182C14.9135 13.8182 15.2291 13.8182 15.5211 13.8182C15.813 13.8182 16.1286 13.8182 16.4678 13.8182C16.4678 14.0848 16.4678 14.3273 16.4678 14.5455C16.4678 14.7636 16.4678 15.0061 16.4678 15.2727C16.1286 15.2727 15.813 15.2727 15.5211 15.2727C15.2291 15.2727 14.9135 15.2727 14.5743 15.2727ZM14.5743 15.2727C14.5743 15.0061 14.5743 14.7636 14.5743 14.5455C14.5743 14.3273 14.5743 14.0848 14.5743 13.8182C14.9135 13.8182 15.2291 13.8182 15.5211 13.8182C15.813 13.8182 16.1286 13.8182 16.4678 13.8182C16.4678 14.0848 16.4678 14.3273 16.4678 14.5455C16.4678 14.7636 16.4678 15.0061 16.4678 15.2727C16.1286 15.2727 15.813 15.2727 15.5211 15.2727C15.2291 15.2727 14.9135 15.2727 14.5743 15.2727ZM14.5743 15.2727C14.5743 15.0061 14.5743 14.7636 14.5743 14.5455C14.5743 14.3273 14.5743 14.0848 14.5743 13.8182C14.9135 13.8182 15.2291 13.8182 15.5211 13.8182C15.813 13.8182 16.1286 13.8182 16.4678 13.8182C16.4678 14.0848 16.4678 14.3273 16.4678 14.5455C16.4678 14.7636 16.4678 15.0061 16.4678 15.2727C16.1286 15.2727 15.813 15.2727 15.5211 15.2727C15.2291 15.2727 14.9135 15.2727 14.5743 15.2727ZM14.5743 15.2727C14.5743 15.0061 14.5743 14.7636 14.5743 14.5455C14.5743 14.3273 14.5743 14.0848 14.5743 13.8182C14.9135 13.8182 15.2291 13.8182 15.5211 13.8182C15.813 13.8182 16.1286 13.8182 16.4678 13.8182C16.4678 14.0848 16.4678 14.3273 16.4678 14.5455C16.4678 14.7636 16.4678 15.0061 16.4678 15.2727C16.1286 15.2727 15.813 15.2727 15.5211 15.2727C15.2291 15.2727 14.9135 15.2727 14.5743 15.2727ZM14.5743 15.2727C14.5743 15.0061 14.5743 14.7636 14.5743 14.5455C14.5743 14.3273 14.5743 14.0848 14.5743 13.8182C14.9135 13.8182 15.2291 13.8182 15.5211 13.8182C15.813 13.8182 16.1286 13.8182 16.4678 13.8182C16.4678 14.0848 16.4678 14.3273 16.4678 14.5455C16.4678 14.7636 16.4678 15.0061 16.4678 15.2727C16.1286 15.2727 15.813 15.2727 15.5211 15.2727C15.2291 15.2727 14.9135 15.2727 14.5743 15.2727ZM14.5743 15.2727C14.5743 15.0061 14.5743 14.7636 14.5743 14.5455C14.5743 14.3273 14.5743 14.0848 14.5743 13.8182C14.9135 13.8182 15.2291 13.8182 15.5211 13.8182C15.813 13.8182 16.1286 13.8182 16.4678 13.8182C16.4678 14.0848 16.4678 14.3273 16.4678 14.5455C16.4678 14.7636 16.4678 15.0061 16.4678 15.2727C16.1286 15.2727 15.813 15.2727 15.5211 15.2727C15.2291 15.2727 14.9135 15.2727 14.5743 15.2727ZM7 13.8182C7 13.5515 7 13.3091 7 13.0909C7 12.8727 7 12.6303 7 12.3636C7.33926 12.3636 7.65486 12.3636 7.94678 12.3636C8.23871 12.3636 8.5543 12.3636 8.89357 12.3636C8.89357 12.6303 8.89357 12.8727 8.89357 13.0909C8.89357 13.3091 8.89357 13.5515 8.89357 13.8182C8.5543 13.8182 8.23871 13.8182 7.94678 13.8182C7.65486 13.8182 7.33926 13.8182 7 13.8182ZM7 13.8182C7 13.5515 7 13.3091 7 13.0909C7 12.8727 7 12.6303 7 12.3636C7.33926 12.3636 7.65486 12.3636 7.94678 12.3636C8.23871 12.3636 8.5543 12.3636 8.89357 12.3636C8.89357 12.6303 8.89357 12.8727 8.89357 13.0909C8.89357 13.3091 8.89357 13.5515 8.89357 13.8182C8.5543 13.8182 8.23871 13.8182 7.94678 13.8182C7.65486 13.8182 7.33926 13.8182 7 13.8182ZM7 13.8182C7 13.5515 7 13.3091 7 13.0909C7 12.8727 7 12.6303 7 12.3636C7.33926 12.3636 7.65486 12.3636 7.94678 12.3636C8.23871 12.3636 8.5543 12.3636 8.89357 12.3636C8.89357 12.6303 8.89357 12.8727 8.89357 13.0909C8.89357 13.3091 8.89357 13.5515 8.89357 13.8182C8.5543 13.8182 8.23871 13.8182 7.94678 13.8182C7.65486 13.8182 7.33926 13.8182 7 13.8182ZM7 13.8182C7 13.5515 7 13.3091 7 13.0909C7 12.8727 7 12.6303 7 12.3636C7.33926 12.3636 7.65486 12.3636 7.94678 12.3636C8.23871 12.3636 8.5543 12.3636 8.89357 12.3636C8.89357 12.6303 8.89357 12.8727 8.89357 13.0909C8.89357 13.3091 8.89357 13.5515 8.89357 13.8182C8.5543 13.8182 8.23871 13.8182 7.94678 13.8182C7.65486 13.8182 7.33926 13.8182 7 13.8182ZM7 13.8182C7 13.5515 7 13.3091 7 13.0909C7 12.8727 7 12.6303 7 12.3636C7.33926 12.3636 7.65486 12.3636 7.94678 12.3636C8.23871 12.3636 8.5543 12.3636 8.89357 12.3636C8.89357 12.6303 8.89357 12.8727 8.89357 13.0909C8.89357 13.3091 8.89357 13.5515 8.89357 13.8182C8.5543 13.8182 8.23871 13.8182 7.94678 13.8182C7.65486 13.8182 7.33926 13.8182 7 13.8182ZM7 13.8182C7 13.5515 7 13.3091 7 13.0909C7 12.8727 7 12.6303 7 12.3636C7.33926 12.3636 7.65486 12.3636 7.94678 12.3636C8.23871 12.3636 8.5543 12.3636 8.89357 12.3636C8.89357 12.6303 8.89357 12.8727 8.89357 13.0909C8.89357 13.3091 8.89357 13.5515 8.89357 13.8182C8.5543 13.8182 8.23871 13.8182 7.94678 13.8182C7.65486 13.8182 7.33926 13.8182 7 13.8182ZM7 13.8182C7 13.5515 7 13.3091 7 13.0909C7 12.8727 7 12.6303 7 12.3636C7.33926 12.3636 7.65486 12.3636 7.94678 12.3636C8.23871 12.3636 8.5543 12.3636 8.89357 12.3636C8.89357 12.6303 8.89357 12.8727 8.89357 13.0909C8.89357 13.3091 8.89357 13.5515 8.89357 13.8182C8.5543 13.8182 8.23871 13.8182 7.94678 13.8182C7.65486 13.8182 7.33926 13.8182 7 13.8182ZM7 13.8182C7 13.5515 7 13.3091 7 13.0909C7 12.8727 7 12.6303 7 12.3636C7.33926 12.3636 7.65486 12.3636 7.94678 12.3636C8.23871 12.3636 8.5543 12.3636 8.89357 12.3636C8.89357 12.6303 8.89357 12.8727 8.89357 13.0909C8.89357 13.3091 8.89357 13.5515 8.89357 13.8182C8.5543 13.8182 8.23871 13.8182 7.94678 13.8182C7.65486 13.8182 7.33926 13.8182 7 13.8182ZM7 13.8182C7 13.5515 7 13.3091 7 13.0909C7 12.8727 7 12.6303 7 12.3636C7.33926 12.3636 7.65486 12.3636 7.94678 12.3636C8.23871 12.3636 8.5543 12.3636 8.89357 12.3636C8.89357 12.6303 8.89357 12.8727 8.89357 13.0909C8.89357 13.3091 8.89357 13.5515 8.89357 13.8182C8.5543 13.8182 8.23871 13.8182 7.94678 13.8182C7.65486 13.8182 7.33926 13.8182 7 13.8182ZM14.5743 13.8182C14.5743 13.5515 14.5743 13.3091 14.5743 13.0909C14.5743 12.8727 14.5743 12.6303 14.5743 12.3636C14.9135 12.3636 15.2291 12.3636 15.5211 12.3636C15.813 12.3636 16.1286 12.3636 16.4678 12.3636C16.4678 12.6303 16.4678 12.8727 16.4678 13.0909C16.4678 13.3091 16.4678 13.5515 16.4678 13.8182C16.1286 13.8182 15.813 13.8182 15.5211 13.8182C15.2291 13.8182 14.9135 13.8182 14.5743 13.8182ZM14.5743 13.8182C14.5743 13.5515 14.5743 13.3091 14.5743 13.0909C14.5743 12.8727 14.5743 12.6303 14.5743 12.3636C14.9135 12.3636 15.2291 12.3636 15.5211 12.3636C15.813 12.3636 16.1286 12.3636 16.4678 12.3636C16.4678 12.6303 16.4678 12.8727 16.4678 13.0909C16.4678 13.3091 16.4678 13.5515 16.4678 13.8182C16.1286 13.8182 15.813 13.8182 15.5211 13.8182C15.2291 13.8182 14.9135 13.8182 14.5743 13.8182ZM14.5743 13.8182C14.5743 13.5515 14.5743 13.3091 14.5743 13.0909C14.5743 12.8727 14.5743 12.6303 14.5743 12.3636C14.9135 12.3636 15.2291 12.3636 15.5211 12.3636C15.813 12.3636 16.1286 12.3636 16.4678 12.3636C16.4678 12.6303 16.4678 12.8727 16.4678 13.0909C16.4678 13.3091 16.4678 13.5515 16.4678 13.8182C16.1286 13.8182 15.813 13.8182 15.5211 13.8182C15.2291 13.8182 14.9135 13.8182 14.5743 13.8182ZM14.5743 13.8182C14.5743 13.5515 14.5743 13.3091 14.5743 13.0909C14.5743 12.8727 14.5743 12.6303 14.5743 12.3636C14.9135 12.3636 15.2291 12.3636 15.5211 12.3636C15.813 12.3636 16.1286 12.3636 16.4678 12.3636C16.4678 12.6303 16.4678 12.8727 16.4678 13.0909C16.4678 13.3091 16.4678 13.5515 16.4678 13.8182C16.1286 13.8182 15.813 13.8182 15.5211 13.8182C15.2291 13.8182 14.9135 13.8182 14.5743 13.8182ZM14.5743 13.8182C14.5743 13.5515 14.5743 13.3091 14.5743 13.0909C14.5743 12.8727 14.5743 12.6303 14.5743 12.3636C14.9135 12.3636 15.2291 12.3636 15.5211 12.3636C15.813 12.3636 16.1286 12.3636 16.4678 12.3636C16.4678 12.6303 16.4678 12.8727 16.4678 13.0909C16.4678 13.3091 16.4678 13.5515 16.4678 13.8182C16.1286 13.8182 15.813 13.8182 15.5211 13.8182C15.2291 13.8182 14.9135 13.8182 14.5743 13.8182ZM14.5743 13.8182C14.5743 13.5515 14.5743 13.3091 14.5743 13.0909C14.5743 12.8727 14.5743 12.6303 14.5743 12.3636C14.9135 12.3636 15.2291 12.3636 15.5211 12.3636C15.813 12.3636 16.1286 12.3636 16.4678 12.3636C16.4678 12.6303 16.4678 12.8727 16.4678 13.0909C16.4678 13.3091 16.4678 13.5515 16.4678 13.8182C16.1286 13.8182 15.813 13.8182 15.5211 13.8182C15.2291 13.8182 14.9135 13.8182 14.5743 13.8182ZM14.5743 13.8182C14.5743 13.5515 14.5743 13.3091 14.5743 13.0909C14.5743 12.8727 14.5743 12.6303 14.5743 12.3636C14.9135 12.3636 15.2291 12.3636 15.5211 12.3636C15.813 12.3636 16.1286 12.3636 16.4678 12.3636C16.4678 12.6303 16.4678 12.8727 16.4678 13.0909C16.4678 13.3091 16.4678 13.5515 16.4678 13.8182C16.1286 13.8182 15.813 13.8182 15.5211 13.8182C15.2291 13.8182 14.9135 13.8182 14.5743 13.8182ZM14.5743 13.8182C14.5743 13.5515 14.5743 13.3091 14.5743 13.0909C14.5743 12.8727 14.5743 12.6303 14.5743 12.3636C14.9135 12.3636 15.2291 12.3636 15.5211 12.3636C15.813 12.3636 16.1286 12.3636 16.4678 12.3636C16.4678 12.6303 16.4678 12.8727 16.4678 13.0909C16.4678 13.3091 16.4678 13.5515 16.4678 13.8182C16.1286 13.8182 15.813 13.8182 15.5211 13.8182C15.2291 13.8182 14.9135 13.8182 14.5743 13.8182ZM14.5743 13.8182C14.5743 13.5515 14.5743 13.3091 14.5743 13.0909C14.5743 12.8727 14.5743 12.6303 14.5743 12.3636C14.9135 12.3636 15.2291 12.3636 15.5211 12.3636C15.813 12.3636 16.1286 12.3636 16.4678 12.3636C16.4678 12.6303 16.4678 12.8727 16.4678 13.0909C16.4678 13.3091 16.4678 13.5515 16.4678 13.8182C16.1286 13.8182 15.813 13.8182 15.5211 13.8182C15.2291 13.8182 14.9135 13.8182 14.5743 13.8182ZM7.94678 12.3636C7.94678 12.097 7.94678 11.8545 7.94678 11.6364C7.94678 11.4182 7.94678 11.1758 7.94678 10.9091C8.28605 10.9091 8.60164 10.9091 8.89357 10.9091C9.18549 10.9091 9.50109 10.9091 9.84035 10.9091C9.84035 11.1758 9.84035 11.4182 9.84035 11.6364C9.84035 11.8545 9.84035 12.097 9.84035 12.3636C9.50109 12.3636 9.18549 12.3636 8.89357 12.3636C8.60164 12.3636 8.28605 12.3636 7.94678 12.3636ZM7.94678 12.3636C7.94678 12.097 7.94678 11.8545 7.94678 11.6364C7.94678 11.4182 7.94678 11.1758 7.94678 10.9091C8.28605 10.9091 8.60164 10.9091 8.89357 10.9091C9.18549 10.9091 9.50109 10.9091 9.84035 10.9091C9.84035 11.1758 9.84035 11.4182 9.84035 11.6364C9.84035 11.8545 9.84035 12.097 9.84035 12.3636C9.50109 12.3636 9.18549 12.3636 8.89357 12.3636C8.60164 12.3636 8.28605 12.3636 7.94678 12.3636ZM7.94678 12.3636C7.94678 12.097 7.94678 11.8545 7.94678 11.6364C7.94678 11.4182 7.94678 11.1758 7.94678 10.9091C8.28605 10.9091 8.60164 10.9091 8.89357 10.9091C9.18549 10.9091 9.50109 10.9091 9.84035 10.9091C9.84035 11.1758 9.84035 11.4182 9.84035 11.6364C9.84035 11.8545 9.84035 12.097 9.84035 12.3636C9.50109 12.3636 9.18549 12.3636 8.89357 12.3636C8.60164 12.3636 8.28605 12.3636 7.94678 12.3636ZM7.94678 12.3636C7.94678 12.097 7.94678 11.8545 7.94678 11.6364C7.94678 11.4182 7.94678 11.1758 7.94678 10.9091C8.28605 10.9091 8.60164 10.9091 8.89357 10.9091C9.18549 10.9091 9.50109 10.9091 9.84035 10.9091C9.84035 11.1758 9.84035 11.4182 9.84035 11.6364C9.84035 11.8545 9.84035 12.097 9.84035 12.3636C9.50109 12.3636 9.18549 12.3636 8.89357 12.3636C8.60164 12.3636 8.28605 12.3636 7.94678 12.3636ZM7.94678 12.3636C7.94678 12.097 7.94678 11.8545 7.94678 11.6364C7.94678 11.4182 7.94678 11.1758 7.94678 10.9091C8.28605 10.9091 8.60164 10.9091 8.89357 10.9091C9.18549 10.9091 9.50109 10.9091 9.84035 10.9091C9.84035 11.1758 9.84035 11.4182 9.84035 11.6364C9.84035 11.8545 9.84035 12.097 9.84035 12.3636C9.50109 12.3636 9.18549 12.3636 8.89357 12.3636C8.60164 12.3636 8.28605 12.3636 7.94678 12.3636ZM7.94678 12.3636C7.94678 12.097 7.94678 11.8545 7.94678 11.6364C7.94678 11.4182 7.94678 11.1758 7.94678 10.9091C8.28605 10.9091 8.60164 10.9091 8.89357 10.9091C9.18549 10.9091 9.50109 10.9091 9.84035 10.9091C9.84035 11.1758 9.84035 11.4182 9.84035 11.6364C9.84035 11.8545 9.84035 12.097 9.84035 12.3636C9.50109 12.3636 9.18549 12.3636 8.89357 12.3636C8.60164 12.3636 8.28605 12.3636 7.94678 12.3636ZM7.94678 12.3636C7.94678 12.097 7.94678 11.8545 7.94678 11.6364C7.94678 11.4182 7.94678 11.1758 7.94678 10.9091C8.28605 10.9091 8.60164 10.9091 8.89357 10.9091C9.18549 10.9091 9.50109 10.9091 9.84035 10.9091C9.84035 11.1758 9.84035 11.4182 9.84035 11.6364C9.84035 11.8545 9.84035 12.097 9.84035 12.3636C9.50109 12.3636 9.18549 12.3636 8.89357 12.3636C8.60164 12.3636 8.28605 12.3636 7.94678 12.3636ZM7.94678 12.3636C7.94678 12.097 7.94678 11.8545 7.94678 11.6364C7.94678 11.4182 7.94678 11.1758 7.94678 10.9091C8.28605 10.9091 8.60164 10.9091 8.89357 10.9091C9.18549 10.9091 9.50109 10.9091 9.84035 10.9091C9.84035 11.1758 9.84035 11.4182 9.84035 11.6364C9.84035 11.8545 9.84035 12.097 9.84035 12.3636C9.50109 12.3636 9.18549 12.3636 8.89357 12.3636C8.60164 12.3636 8.28605 12.3636 7.94678 12.3636ZM7.94678 12.3636C7.94678 12.097 7.94678 11.8545 7.94678 11.6364C7.94678 11.4182 7.94678 11.1758 7.94678 10.9091C8.28605 10.9091 8.60164 10.9091 8.89357 10.9091C9.18549 10.9091 9.50109 10.9091 9.84035 10.9091C9.84035 11.1758 9.84035 11.4182 9.84035 11.6364C9.84035 11.8545 9.84035 12.097 9.84035 12.3636C9.50109 12.3636 9.18549 12.3636 8.89357 12.3636C8.60164 12.3636 8.28605 12.3636 7.94678 12.3636ZM13.6275 12.3636C13.6275 12.097 13.6275 11.8545 13.6275 11.6364C13.6275 11.4182 13.6275 11.1758 13.6275 10.9091C13.9668 10.9091 14.2824 10.9091 14.5743 10.9091C14.8662 10.9091 15.1818 10.9091 15.5211 10.9091C15.5211 11.1758 15.5211 11.4182 15.5211 11.6364C15.5211 11.8545 15.5211 12.097 15.5211 12.3636C15.1818 12.3636 14.8662 12.3636 14.5743 12.3636C14.2824 12.3636 13.9668 12.3636 13.6275 12.3636ZM13.6275 12.3636C13.6275 12.097 13.6275 11.8545 13.6275 11.6364C13.6275 11.4182 13.6275 11.1758 13.6275 10.9091C13.9668 10.9091 14.2824 10.9091 14.5743 10.9091C14.8662 10.9091 15.1818 10.9091 15.5211 10.9091C15.5211 11.1758 15.5211 11.4182 15.5211 11.6364C15.5211 11.8545 15.5211 12.097 15.5211 12.3636C15.1818 12.3636 14.8662 12.3636 14.5743 12.3636C14.2824 12.3636 13.9668 12.3636 13.6275 12.3636ZM13.6275 12.3636C13.6275 12.097 13.6275 11.8545 13.6275 11.6364C13.6275 11.4182 13.6275 11.1758 13.6275 10.9091C13.9668 10.9091 14.2824 10.9091 14.5743 10.9091C14.8662 10.9091 15.1818 10.9091 15.5211 10.9091C15.5211 11.1758 15.5211 11.4182 15.5211 11.6364C15.5211 11.8545 15.5211 12.097 15.5211 12.3636C15.1818 12.3636 14.8662 12.3636 14.5743 12.3636C14.2824 12.3636 13.9668 12.3636 13.6275 12.3636ZM13.6275 12.3636C13.6275 12.097 13.6275 11.8545 13.6275 11.6364C13.6275 11.4182 13.6275 11.1758 13.6275 10.9091C13.9668 10.9091 14.2824 10.9091 14.5743 10.9091C14.8662 10.9091 15.1818 10.9091 15.5211 10.9091C15.5211 11.1758 15.5211 11.4182 15.5211 11.6364C15.5211 11.8545 15.5211 12.097 15.5211 12.3636C15.1818 12.3636 14.8662 12.3636 14.5743 12.3636C14.2824 12.3636 13.9668 12.3636 13.6275 12.3636ZM13.6275 12.3636C13.6275 12.097 13.6275 11.8545 13.6275 11.6364C13.6275 11.4182 13.6275 11.1758 13.6275 10.9091C13.9668 10.9091 14.2824 10.9091 14.5743 10.9091C14.8662 10.9091 15.1818 10.9091 15.5211 10.9091C15.5211 11.1758 15.5211 11.4182 15.5211 11.6364C15.5211 11.8545 15.5211 12.097 15.5211 12.3636C15.1818 12.3636 14.8662 12.3636 14.5743 12.3636C14.2824 12.3636 13.9668 12.3636 13.6275 12.3636ZM13.6275 12.3636C13.6275 12.097 13.6275 11.8545 13.6275 11.6364C13.6275 11.4182 13.6275 11.1758 13.6275 10.9091C13.9668 10.9091 14.2824 10.9091 14.5743 10.9091C14.8662 10.9091 15.1818 10.9091 15.5211 10.9091C15.5211 11.1758 15.5211 11.4182 15.5211 11.6364C15.5211 11.8545 15.5211 12.097 15.5211 12.3636C15.1818 12.3636 14.8662 12.3636 14.5743 12.3636C14.2824 12.3636 13.9668 12.3636 13.6275 12.3636ZM13.6275 12.3636C13.6275 12.097 13.6275 11.8545 13.6275 11.6364C13.6275 11.4182 13.6275 11.1758 13.6275 10.9091C13.9668 10.9091 14.2824 10.9091 14.5743 10.9091C14.8662 10.9091 15.1818 10.9091 15.5211 10.9091C15.5211 11.1758 15.5211 11.4182 15.5211 11.6364C15.5211 11.8545 15.5211 12.097 15.5211 12.3636C15.1818 12.3636 14.8662 12.3636 14.5743 12.3636C14.2824 12.3636 13.9668 12.3636 13.6275 12.3636ZM13.6275 12.3636C13.6275 12.097 13.6275 11.8545 13.6275 11.6364C13.6275 11.4182 13.6275 11.1758 13.6275 10.9091C13.9668 10.9091 14.2824 10.9091 14.5743 10.9091C14.8662 10.9091 15.1818 10.9091 15.5211 10.9091C15.5211 11.1758 15.5211 11.4182 15.5211 11.6364C15.5211 11.8545 15.5211 12.097 15.5211 12.3636C15.1818 12.3636 14.8662 12.3636 14.5743 12.3636C14.2824 12.3636 13.9668 12.3636 13.6275 12.3636ZM13.6275 12.3636C13.6275 12.097 13.6275 11.8545 13.6275 11.6364C13.6275 11.4182 13.6275 11.1758 13.6275 10.9091C13.9668 10.9091 14.2824 10.9091 14.5743 10.9091C14.8662 10.9091 15.1818 10.9091 15.5211 10.9091C15.5211 11.1758 15.5211 11.4182 15.5211 11.6364C15.5211 11.8545 15.5211 12.097 15.5211 12.3636C15.1818 12.3636 14.8662 12.3636 14.5743 12.3636C14.2824 12.3636 13.9668 12.3636 13.6275 12.3636ZM8.89357 10.9091C8.89357 10.6424 8.89357 10.4 8.89357 10.1818C8.89357 9.96364 8.89357 9.72121 8.89357 9.45455C9.23283 9.45455 9.54843 9.45455 9.84035 9.45455C10.1323 9.45455 10.4479 9.45455 10.7871 9.45455C10.7871 9.72121 10.7871 9.96364 10.7871 10.1818C10.7871 10.4 10.7871 10.6424 10.7871 10.9091C10.4479 10.9091 10.1323 10.9091 9.84035 10.9091C9.54843 10.9091 9.23283 10.9091 8.89357 10.9091ZM8.89357 10.9091C8.89357 10.6424 8.89357 10.4 8.89357 10.1818C8.89357 9.96364 8.89357 9.72121 8.89357 9.45455C9.23283 9.45455 9.54843 9.45455 9.84035 9.45455C10.1323 9.45455 10.4479 9.45455 10.7871 9.45455C10.7871 9.72121 10.7871 9.96364 10.7871 10.1818C10.7871 10.4 10.7871 10.6424 10.7871 10.9091C10.4479 10.9091 10.1323 10.9091 9.84035 10.9091C9.54843 10.9091 9.23283 10.9091 8.89357 10.9091ZM8.89357 10.9091C8.89357 10.6424 8.89357 10.4 8.89357 10.1818C8.89357 9.96364 8.89357 9.72121 8.89357 9.45455C9.23283 9.45455 9.54843 9.45455 9.84035 9.45455C10.1323 9.45455 10.4479 9.45455 10.7871 9.45455C10.7871 9.72121 10.7871 9.96364 10.7871 10.1818C10.7871 10.4 10.7871 10.6424 10.7871 10.9091C10.4479 10.9091 10.1323 10.9091 9.84035 10.9091C9.54843 10.9091 9.23283 10.9091 8.89357 10.9091ZM8.89357 10.9091C8.89357 10.6424 8.89357 10.4 8.89357 10.1818C8.89357 9.96364 8.89357 9.72121 8.89357 9.45455C9.23283 9.45455 9.54843 9.45455 9.84035 9.45455C10.1323 9.45455 10.4479 9.45455 10.7871 9.45455C10.7871 9.72121 10.7871 9.96364 10.7871 10.1818C10.7871 10.4 10.7871 10.6424 10.7871 10.9091C10.4479 10.9091 10.1323 10.9091 9.84035 10.9091C9.54843 10.9091 9.23283 10.9091 8.89357 10.9091ZM8.89357 10.9091C8.89357 10.6424 8.89357 10.4 8.89357 10.1818C8.89357 9.96364 8.89357 9.72121 8.89357 9.45455C9.23283 9.45455 9.54843 9.45455 9.84035 9.45455C10.1323 9.45455 10.4479 9.45455 10.7871 9.45455C10.7871 9.72121 10.7871 9.96364 10.7871 10.1818C10.7871 10.4 10.7871 10.6424 10.7871 10.9091C10.4479 10.9091 10.1323 10.9091 9.84035 10.9091C9.54843 10.9091 9.23283 10.9091 8.89357 10.9091ZM8.89357 10.9091C8.89357 10.6424 8.89357 10.4 8.89357 10.1818C8.89357 9.96364 8.89357 9.72121 8.89357 9.45455C9.23283 9.45455 9.54843 9.45455 9.84035 9.45455C10.1323 9.45455 10.4479 9.45455 10.7871 9.45455C10.7871 9.72121 10.7871 9.96364 10.7871 10.1818C10.7871 10.4 10.7871 10.6424 10.7871 10.9091C10.4479 10.9091 10.1323 10.9091 9.84035 10.9091C9.54843 10.9091 9.23283 10.9091 8.89357 10.9091ZM8.89357 10.9091C8.89357 10.6424 8.89357 10.4 8.89357 10.1818C8.89357 9.96364 8.89357 9.72121 8.89357 9.45455C9.23283 9.45455 9.54843 9.45455 9.84035 9.45455C10.1323 9.45455 10.4479 9.45455 10.7871 9.45455C10.7871 9.72121 10.7871 9.96364 10.7871 10.1818C10.7871 10.4 10.7871 10.6424 10.7871 10.9091C10.4479 10.9091 10.1323 10.9091 9.84035 10.9091C9.54843 10.9091 9.23283 10.9091 8.89357 10.9091ZM8.89357 10.9091C8.89357 10.6424 8.89357 10.4 8.89357 10.1818C8.89357 9.96364 8.89357 9.72121 8.89357 9.45455C9.23283 9.45455 9.54843 9.45455 9.84035 9.45455C10.1323 9.45455 10.4479 9.45455 10.7871 9.45455C10.7871 9.72121 10.7871 9.96364 10.7871 10.1818C10.7871 10.4 10.7871 10.6424 10.7871 10.9091C10.4479 10.9091 10.1323 10.9091 9.84035 10.9091C9.54843 10.9091 9.23283 10.9091 8.89357 10.9091ZM8.89357 10.9091C8.89357 10.6424 8.89357 10.4 8.89357 10.1818C8.89357 9.96364 8.89357 9.72121 8.89357 9.45455C9.23283 9.45455 9.54843 9.45455 9.84035 9.45455C10.1323 9.45455 10.4479 9.45455 10.7871 9.45455C10.7871 9.72121 10.7871 9.96364 10.7871 10.1818C10.7871 10.4 10.7871 10.6424 10.7871 10.9091C10.4479 10.9091 10.1323 10.9091 9.84035 10.9091C9.54843 10.9091 9.23283 10.9091 8.89357 10.9091ZM12.6807 10.9091C12.6807 10.6424 12.6807 10.4 12.6807 10.1818C12.6807 9.96364 12.6807 9.72121 12.6807 9.45455C13.02 9.45455 13.3356 9.45455 13.6275 9.45455C13.9194 9.45455 14.235 9.45455 14.5743 9.45455C14.5743 9.72121 14.5743 9.96364 14.5743 10.1818C14.5743 10.4 14.5743 10.6424 14.5743 10.9091C14.235 10.9091 13.9194 10.9091 13.6275 10.9091C13.3356 10.9091 13.02 10.9091 12.6807 10.9091ZM12.6807 10.9091C12.6807 10.6424 12.6807 10.4 12.6807 10.1818C12.6807 9.96364 12.6807 9.72121 12.6807 9.45455C13.02 9.45455 13.3356 9.45455 13.6275 9.45455C13.9194 9.45455 14.235 9.45455 14.5743 9.45455C14.5743 9.72121 14.5743 9.96364 14.5743 10.1818C14.5743 10.4 14.5743 10.6424 14.5743 10.9091C14.235 10.9091 13.9194 10.9091 13.6275 10.9091C13.3356 10.9091 13.02 10.9091 12.6807 10.9091ZM12.6807 10.9091C12.6807 10.6424 12.6807 10.4 12.6807 10.1818C12.6807 9.96364 12.6807 9.72121 12.6807 9.45455C13.02 9.45455 13.3356 9.45455 13.6275 9.45455C13.9194 9.45455 14.235 9.45455 14.5743 9.45455C14.5743 9.72121 14.5743 9.96364 14.5743 10.1818C14.5743 10.4 14.5743 10.6424 14.5743 10.9091C14.235 10.9091 13.9194 10.9091 13.6275 10.9091C13.3356 10.9091 13.02 10.9091 12.6807 10.9091ZM12.6807 10.9091C12.6807 10.6424 12.6807 10.4 12.6807 10.1818C12.6807 9.96364 12.6807 9.72121 12.6807 9.45455C13.02 9.45455 13.3356 9.45455 13.6275 9.45455C13.9194 9.45455 14.235 9.45455 14.5743 9.45455C14.5743 9.72121 14.5743 9.96364 14.5743 10.1818C14.5743 10.4 14.5743 10.6424 14.5743 10.9091C14.235 10.9091 13.9194 10.9091 13.6275 10.9091C13.3356 10.9091 13.02 10.9091 12.6807 10.9091ZM12.6807 10.9091C12.6807 10.6424 12.6807 10.4 12.6807 10.1818C12.6807 9.96364 12.6807 9.72121 12.6807 9.45455C13.02 9.45455 13.3356 9.45455 13.6275 9.45455C13.9194 9.45455 14.235 9.45455 14.5743 9.45455C14.5743 9.72121 14.5743 9.96364 14.5743 10.1818C14.5743 10.4 14.5743 10.6424 14.5743 10.9091C14.235 10.9091 13.9194 10.9091 13.6275 10.9091C13.3356 10.9091 13.02 10.9091 12.6807 10.9091ZM12.6807 10.9091C12.6807 10.6424 12.6807 10.4 12.6807 10.1818C12.6807 9.96364 12.6807 9.72121 12.6807 9.45455C13.02 9.45455 13.3356 9.45455 13.6275 9.45455C13.9194 9.45455 14.235 9.45455 14.5743 9.45455C14.5743 9.72121 14.5743 9.96364 14.5743 10.1818C14.5743 10.4 14.5743 10.6424 14.5743 10.9091C14.235 10.9091 13.9194 10.9091 13.6275 10.9091C13.3356 10.9091 13.02 10.9091 12.6807 10.9091ZM12.6807 10.9091C12.6807 10.6424 12.6807 10.4 12.6807 10.1818C12.6807 9.96364 12.6807 9.72121 12.6807 9.45455C13.02 9.45455 13.3356 9.45455 13.6275 9.45455C13.9194 9.45455 14.235 9.45455 14.5743 9.45455C14.5743 9.72121 14.5743 9.96364 14.5743 10.1818C14.5743 10.4 14.5743 10.6424 14.5743 10.9091C14.235 10.9091 13.9194 10.9091 13.6275 10.9091C13.3356 10.9091 13.02 10.9091 12.6807 10.9091ZM12.6807 10.9091C12.6807 10.6424 12.6807 10.4 12.6807 10.1818C12.6807 9.96364 12.6807 9.72121 12.6807 9.45455C13.02 9.45455 13.3356 9.45455 13.6275 9.45455C13.9194 9.45455 14.235 9.45455 14.5743 9.45455C14.5743 9.72121 14.5743 9.96364 14.5743 10.1818C14.5743 10.4 14.5743 10.6424 14.5743 10.9091C14.235 10.9091 13.9194 10.9091 13.6275 10.9091C13.3356 10.9091 13.02 10.9091 12.6807 10.9091ZM12.6807 10.9091C12.6807 10.6424 12.6807 10.4 12.6807 10.1818C12.6807 9.96364 12.6807 9.72121 12.6807 9.45455C13.02 9.45455 13.3356 9.45455 13.6275 9.45455C13.9194 9.45455 14.235 9.45455 14.5743 9.45455C14.5743 9.72121 14.5743 9.96364 14.5743 10.1818C14.5743 10.4 14.5743 10.6424 14.5743 10.9091C14.235 10.9091 13.9194 10.9091 13.6275 10.9091C13.3356 10.9091 13.02 10.9091 12.6807 10.9091ZM9.84035 9.45455C9.84035 9.18788 9.84035 8.94545 9.84035 8.72727C9.84035 8.50909 9.84035 8.26667 9.84035 8C10.1796 8 10.4952 8 10.7871 8C11.0791 8 11.3947 8 11.7339 8C11.7339 8.26667 11.7339 8.50909 11.7339 8.72727C11.7339 8.94545 11.7339 9.18788 11.7339 9.45455C11.3947 9.45455 11.0791 9.45455 10.7871 9.45455C10.4952 9.45455 10.1796 9.45455 9.84035 9.45455ZM9.84035 9.45455C9.84035 9.18788 9.84035 8.94545 9.84035 8.72727C9.84035 8.50909 9.84035 8.26667 9.84035 8C10.1796 8 10.4952 8 10.7871 8C11.0791 8 11.3947 8 11.7339 8C11.7339 8.26667 11.7339 8.50909 11.7339 8.72727C11.7339 8.94545 11.7339 9.18788 11.7339 9.45455C11.3947 9.45455 11.0791 9.45455 10.7871 9.45455C10.4952 9.45455 10.1796 9.45455 9.84035 9.45455ZM9.84035 9.45455C9.84035 9.18788 9.84035 8.94545 9.84035 8.72727C9.84035 8.50909 9.84035 8.26667 9.84035 8C10.1796 8 10.4952 8 10.7871 8C11.0791 8 11.3947 8 11.7339 8C11.7339 8.26667 11.7339 8.50909 11.7339 8.72727C11.7339 8.94545 11.7339 9.18788 11.7339 9.45455C11.3947 9.45455 11.0791 9.45455 10.7871 9.45455C10.4952 9.45455 10.1796 9.45455 9.84035 9.45455ZM9.84035 9.45455C9.84035 9.18788 9.84035 8.94545 9.84035 8.72727C9.84035 8.50909 9.84035 8.26667 9.84035 8C10.1796 8 10.4952 8 10.7871 8C11.0791 8 11.3947 8 11.7339 8C11.7339 8.26667 11.7339 8.50909 11.7339 8.72727C11.7339 8.94545 11.7339 9.18788 11.7339 9.45455C11.3947 9.45455 11.0791 9.45455 10.7871 9.45455C10.4952 9.45455 10.1796 9.45455 9.84035 9.45455ZM9.84035 9.45455C9.84035 9.18788 9.84035 8.94545 9.84035 8.72727C9.84035 8.50909 9.84035 8.26667 9.84035 8C10.1796 8 10.4952 8 10.7871 8C11.0791 8 11.3947 8 11.7339 8C11.7339 8.26667 11.7339 8.50909 11.7339 8.72727C11.7339 8.94545 11.7339 9.18788 11.7339 9.45455C11.3947 9.45455 11.0791 9.45455 10.7871 9.45455C10.4952 9.45455 10.1796 9.45455 9.84035 9.45455ZM9.84035 9.45455C9.84035 9.18788 9.84035 8.94545 9.84035 8.72727C9.84035 8.50909 9.84035 8.26667 9.84035 8C10.1796 8 10.4952 8 10.7871 8C11.0791 8 11.3947 8 11.7339 8C11.7339 8.26667 11.7339 8.50909 11.7339 8.72727C11.7339 8.94545 11.7339 9.18788 11.7339 9.45455C11.3947 9.45455 11.0791 9.45455 10.7871 9.45455C10.4952 9.45455 10.1796 9.45455 9.84035 9.45455ZM9.84035 9.45455C9.84035 9.18788 9.84035 8.94545 9.84035 8.72727C9.84035 8.50909 9.84035 8.26667 9.84035 8C10.1796 8 10.4952 8 10.7871 8C11.0791 8 11.3947 8 11.7339 8C11.7339 8.26667 11.7339 8.50909 11.7339 8.72727C11.7339 8.94545 11.7339 9.18788 11.7339 9.45455C11.3947 9.45455 11.0791 9.45455 10.7871 9.45455C10.4952 9.45455 10.1796 9.45455 9.84035 9.45455ZM9.84035 9.45455C9.84035 9.18788 9.84035 8.94545 9.84035 8.72727C9.84035 8.50909 9.84035 8.26667 9.84035 8C10.1796 8 10.4952 8 10.7871 8C11.0791 8 11.3947 8 11.7339 8C11.7339 8.26667 11.7339 8.50909 11.7339 8.72727C11.7339 8.94545 11.7339 9.18788 11.7339 9.45455C11.3947 9.45455 11.0791 9.45455 10.7871 9.45455C10.4952 9.45455 10.1796 9.45455 9.84035 9.45455ZM9.84035 9.45455C9.84035 9.18788 9.84035 8.94545 9.84035 8.72727C9.84035 8.50909 9.84035 8.26667 9.84035 8C10.1796 8 10.4952 8 10.7871 8C11.0791 8 11.3947 8 11.7339 8C11.7339 8.26667 11.7339 8.50909 11.7339 8.72727C11.7339 8.94545 11.7339 9.18788 11.7339 9.45455C11.3947 9.45455 11.0791 9.45455 10.7871 9.45455C10.4952 9.45455 10.1796 9.45455 9.84035 9.45455ZM11.7339 9.45455C11.7339 9.18788 11.7339 8.94545 11.7339 8.72727C11.7339 8.50909 11.7339 8.26667 11.7339 8C12.0732 8 12.3888 8 12.6807 8C12.9726 8 13.2882 8 13.6275 8C13.6275 8.26667 13.6275 8.50909 13.6275 8.72727C13.6275 8.94545 13.6275 9.18788 13.6275 9.45455C13.2882 9.45455 12.9726 9.45455 12.6807 9.45455C12.3888 9.45455 12.0732 9.45455 11.7339 9.45455ZM11.7339 9.45455C11.7339 9.18788 11.7339 8.94545 11.7339 8.72727C11.7339 8.50909 11.7339 8.26667 11.7339 8C12.0732 8 12.3888 8 12.6807 8C12.9726 8 13.2882 8 13.6275 8C13.6275 8.26667 13.6275 8.50909 13.6275 8.72727C13.6275 8.94545 13.6275 9.18788 13.6275 9.45455C13.2882 9.45455 12.9726 9.45455 12.6807 9.45455C12.3888 9.45455 12.0732 9.45455 11.7339 9.45455ZM11.7339 9.45455C11.7339 9.18788 11.7339 8.94545 11.7339 8.72727C11.7339 8.50909 11.7339 8.26667 11.7339 8C12.0732 8 12.3888 8 12.6807 8C12.9726 8 13.2882 8 13.6275 8C13.6275 8.26667 13.6275 8.50909 13.6275 8.72727C13.6275 8.94545 13.6275 9.18788 13.6275 9.45455C13.2882 9.45455 12.9726 9.45455 12.6807 9.45455C12.3888 9.45455 12.0732 9.45455 11.7339 9.45455ZM11.7339 9.45455C11.7339 9.18788 11.7339 8.94545 11.7339 8.72727C11.7339 8.50909 11.7339 8.26667 11.7339 8C12.0732 8 12.3888 8 12.6807 8C12.9726 8 13.2882 8 13.6275 8C13.6275 8.26667 13.6275 8.50909 13.6275 8.72727C13.6275 8.94545 13.6275 9.18788 13.6275 9.45455C13.2882 9.45455 12.9726 9.45455 12.6807 9.45455C12.3888 9.45455 12.0732 9.45455 11.7339 9.45455ZM11.7339 9.45455C11.7339 9.18788 11.7339 8.94545 11.7339 8.72727C11.7339 8.50909 11.7339 8.26667 11.7339 8C12.0732 8 12.3888 8 12.6807 8C12.9726 8 13.2882 8 13.6275 8C13.6275 8.26667 13.6275 8.50909 13.6275 8.72727C13.6275 8.94545 13.6275 9.18788 13.6275 9.45455C13.2882 9.45455 12.9726 9.45455 12.6807 9.45455C12.3888 9.45455 12.0732 9.45455 11.7339 9.45455ZM11.7339 9.45455C11.7339 9.18788 11.7339 8.94545 11.7339 8.72727C11.7339 8.50909 11.7339 8.26667 11.7339 8C12.0732 8 12.3888 8 12.6807 8C12.9726 8 13.2882 8 13.6275 8C13.6275 8.26667 13.6275 8.50909 13.6275 8.72727C13.6275 8.94545 13.6275 9.18788 13.6275 9.45455C13.2882 9.45455 12.9726 9.45455 12.6807 9.45455C12.3888 9.45455 12.0732 9.45455 11.7339 9.45455ZM11.7339 9.45455C11.7339 9.18788 11.7339 8.94545 11.7339 8.72727C11.7339 8.50909 11.7339 8.26667 11.7339 8C12.0732 8 12.3888 8 12.6807 8C12.9726 8 13.2882 8 13.6275 8C13.6275 8.26667 13.6275 8.50909 13.6275 8.72727C13.6275 8.94545 13.6275 9.18788 13.6275 9.45455C13.2882 9.45455 12.9726 9.45455 12.6807 9.45455C12.3888 9.45455 12.0732 9.45455 11.7339 9.45455ZM11.7339 9.45455C11.7339 9.18788 11.7339 8.94545 11.7339 8.72727C11.7339 8.50909 11.7339 8.26667 11.7339 8C12.0732 8 12.3888 8 12.6807 8C12.9726 8 13.2882 8 13.6275 8C13.6275 8.26667 13.6275 8.50909 13.6275 8.72727C13.6275 8.94545 13.6275 9.18788 13.6275 9.45455C13.2882 9.45455 12.9726 9.45455 12.6807 9.45455C12.3888 9.45455 12.0732 9.45455 11.7339 9.45455ZM11.7339 9.45455C11.7339 9.18788 11.7339 8.94545 11.7339 8.72727C11.7339 8.50909 11.7339 8.26667 11.7339 8C12.0732 8 12.3888 8 12.6807 8C12.9726 8 13.2882 8 13.6275 8C13.6275 8.26667 13.6275 8.50909 13.6275 8.72727C13.6275 8.94545 13.6275 9.18788 13.6275 9.45455C13.2882 9.45455 12.9726 9.45455 12.6807 9.45455C12.3888 9.45455 12.0732 9.45455 11.7339 9.45455Z" fill="white"></path><path d="M19.3193 15.2727V13.8182H25V15.2727H23.1064V22.5455H25V24H19.3193V22.5455H21.2129V15.2727H19.3193Z" fill="white"></path></g><defs><filter id="filter0_d_1674_25662" x="3" y="8" width="26" height="24" filterUnits="userSpaceOnUse" color-interpolation-filters="sRGB"><feFlood flood-opacity="0" result="BackgroundImageFix"></feFlood><feColorMatrix in="SourceAlpha" type="matrix" values="0 0 0 0 0 0 0 0 0 0 0 0 0 0 0 0 0 0 127 0" result="hardAlpha"></feColorMatrix><feOffset dy="4"></feOffset><feGaussianBlur stdDeviation="2"></feGaussianBlur><feComposite in2="hardAlpha" operator="out"></feComposite><feColorMatrix type="matrix" values="0 0 0 0 0 0 0 0 0 0 0 0 0 0 0 0 0 0 0.25 0"></feColorMatrix><feBlend mode="normal" in2="BackgroundImageFix" result="effect1_dropShadow_1674_25662"></feBlend><feBlend mode="normal" in="SourceGraphic" in2="effect1_dropShadow_1674_25662" result="shape"></feBlend></filter><linearGradient id="paint0_linear_1674_25662" x1="-12.046" y1="-12.9562" x2="30.903" y2="32.0767" gradientUnits="userSpaceOnUse"><stop stop-color="#0CB1F2"></stop><stop offset="0.135417" stop-color="#12C0C5"></stop><stop offset="0.28125" stop-color="#256CD4"></stop><stop offset="0.40625" stop-color="#15A1E6"></stop><stop offset="0.640625" stop-color="#0CA6F2"></stop><stop offset="0.915447" stop-color="#01ECB0"></stop><stop offset="1" stop-color="#0CF06E"></stop></linearGradient></defs></svg>