<svg width="32" height="32" viewBox="0 0 32 32" fill="none" xmlns="http://www.w3.org/2000/svg">
	<rect width="32" height="32" rx="6" fill="url(#paint0_linear_3136_2754)" />
	<rect x="0.5" y="0.5" width="31" height="31" rx="5.5" stroke="white" stroke-opacity="0.5" />
	<path d="M7 14H8V20H7C6.86863 20.0002 6.73853 19.9744 6.61713 19.9242C6.49573 19.874 6.38543 19.8003 6.29254 19.7075C6.19965 19.6146 6.126 19.5043 6.0758 19.3829C6.0256 19.2615 5.99984 19.1314 6 19V15C5.99984 14.8686 6.0256 14.7385 6.0758 14.6171C6.126 14.4957 6.19965 14.3854 6.29254 14.2925C6.38543 14.1997 6.49573 14.126 6.61713 14.0758C6.73853 14.0256 6.86863 13.9998 7 14ZM23 12.5V21C22.9995 21.5303 22.7886 22.0387 22.4136 22.4136C22.0387 22.7886 21.5303 22.9995 21 23H11C10.4697 22.9995 9.96132 22.7886 9.58637 22.4136C9.21141 22.0387 9.00052 21.5303 9 21V12.5C8.99989 12.1717 9.06449 11.8465 9.19008 11.5432C9.31568 11.2398 9.49983 10.9642 9.732 10.732C9.96416 10.4998 10.2398 10.3157 10.5432 10.1901C10.8465 10.0645 11.1717 9.99989 11.5 10H15V8C15 7.73478 15.1054 7.48043 15.2929 7.29289C15.4804 7.10536 15.7348 7 16 7C16.2652 7 16.5196 7.10536 16.7071 7.29289C16.8946 7.48043 17 7.73478 17 8V10H20.5C20.8283 9.99989 21.1535 10.0645 21.4568 10.1901C21.7602 10.3157 22.0358 10.4998 22.268 10.732C22.5002 10.9642 22.6843 11.2398 22.8099 11.5432C22.9355 11.8465 23.0001 12.1717 23 12.5ZM14.25 15C14.25 14.7528 14.1767 14.5111 14.0393 14.3055C13.902 14.1 13.7068 13.9398 13.4784 13.8452C13.2499 13.7505 12.9986 13.7258 12.7561 13.774C12.5137 13.8222 12.2909 13.9413 12.1161 14.1161C11.9413 14.2909 11.8223 14.5137 11.774 14.7561C11.7258 14.9986 11.7505 15.2499 11.8452 15.4784C11.9398 15.7068 12.1 15.902 12.3055 16.0393C12.5111 16.1767 12.7528 16.25 13 16.25C13.1642 16.25 13.3267 16.2177 13.4784 16.1549C13.63 16.0921 13.7678 16 13.8839 15.8839C14 15.7678 14.0921 15.63 14.1549 15.4784C14.2177 15.3267 14.25 15.1642 14.25 15ZM14 19H12V20H14V19ZM17 19H15V20H17V19ZM20.25 15C20.25 14.7528 20.1767 14.5111 20.0393 14.3055C19.902 14.1 19.7068 13.9398 19.4784 13.8452C19.2499 13.7505 18.9986 13.7258 18.7561 13.774C18.5137 13.8222 18.2909 13.9413 18.1161 14.1161C17.9413 14.2909 17.8223 14.5137 17.774 14.7561C17.7258 14.9986 17.7505 15.2499 17.8452 15.4784C17.9398 15.7068 18.1 15.902 18.3055 16.0393C18.5111 16.1767 18.7528 16.25 19 16.25C19.1642 16.25 19.3267 16.2177 19.4784 16.1549C19.63 16.0921 19.7678 16 19.8839 15.8839C20 15.7678 20.0921 15.63 20.1549 15.4784C20.2177 15.3267 20.25 15.1642 20.25 15ZM20 19H18V20H20V19ZM26 15V19C26.0002 19.1314 25.9744 19.2615 25.9242 19.3829C25.874 19.5043 25.8003 19.6146 25.7075 19.7075C25.6146 19.8003 25.5043 19.874 25.3829 19.9242C25.2615 19.9744 25.1314 20.0002 25 20H24V14H25C25.1314 13.9998 25.2615 14.0256 25.3829 14.0758C25.5043 14.126 25.6146 14.1997 25.7075 14.2925C25.8003 14.3854 25.874 14.4957 25.9242 14.6171C25.9744 14.7385 26.0002 14.8686 26 15Z" fill="white" />
	<defs>
		<linearGradient id="paint0_linear_3136_2754" x1="-12.046" y1="-12.9562" x2="30.903" y2="32.0767" gradientUnits="userSpaceOnUse">
			<stop stop-color="#0CB1F2" />
			<stop offset="0.135417" stop-color="#12C0C5" />
			<stop offset="0.28125" stop-color="#256CD4" />
			<stop offset="0.40625" stop-color="#15A1E6" />
			<stop offset="0.640625" stop-color="#0CA6F2" />
			<stop offset="0.915447" stop-color="#01ECB0" />
			<stop offset="1" stop-color="#0CF06E" />
		</linearGradient>
	</defs>
</svg>
