<svg width="526" height="289" viewBox="0 0 526 289" fill="none" xmlns="http://www.w3.org/2000/svg">
<line y1="213.209" x2="524" y2="213.209" stroke="#707070" stroke-opacity="0.35" stroke-dasharray="4 4"/>
<line y1="258.209" x2="524" y2="258.209" stroke="#707070" stroke-opacity="0.35" stroke-dasharray="4 4"/>
<line y1="163.209" x2="524" y2="163.209" stroke="#707070" stroke-opacity="0.35" stroke-dasharray="4 4"/>
<line y1="113.209" x2="524" y2="113.209" stroke="#707070" stroke-opacity="0.35" stroke-dasharray="4 4"/>
<line y1="59.209" x2="524" y2="59.209" stroke="#707070" stroke-opacity="0.35" stroke-dasharray="4 4"/>
<path d="M7.21604 258.42C32.5643 257.856 46.4731 258.736 71.8855 258.42C88.6045 258.211 96.6628 239.95 113.291 239.95C166.251 239.95 157.585 221.926 182.621 215.418C199.174 211.114 208.275 159.609 211.589 143.83C220.736 100.273 232.882 59.8173 252.403 59.8174C279.023 59.8175 294.403 129.621 313.333 168.664C317.025 176.278 325.756 188.185 345.869 195.284C357.246 199.299 375.446 199.424 391.092 218.422C404.036 234.139 406.378 252.071 429.608 254.97C441.645 256.472 512.669 257.933 522.048 257.933H406.292L100.773 258.42C129.863 258.525 -19.5001 259.014 7.21604 258.42Z" fill="url(#paint0_linear_9851_18761)"/>
<path d="M68.514 258.42C68.514 258.42 70.8467 258.42 100.773 258.42M406.292 257.933C406.292 257.933 551.539 257.933 522.048 257.933M406.292 257.933L100.773 258.42M406.292 257.933H522.048M100.773 258.42C129.863 258.525 -19.5001 259.014 7.21604 258.42C32.5643 257.856 46.4731 258.736 71.8855 258.42C88.6045 258.211 96.6628 239.95 113.291 239.95C166.251 239.95 157.585 221.926 182.621 215.418C199.174 211.114 208.275 159.609 211.589 143.83C220.736 100.273 232.882 59.8173 252.403 59.8174C279.023 59.8175 294.403 129.621 313.333 168.664C317.025 176.278 325.756 188.185 345.869 195.284C357.246 199.299 375.446 199.424 391.092 218.422C404.036 234.139 406.378 252.071 429.608 254.97C441.645 256.472 512.669 257.933 522.048 257.933" stroke="url(#paint1_linear_9851_18761)" stroke-width="2"/>
<line x1="302.806" y1="284.278" x2="353.064" y2="284.278" stroke="url(#paint2_linear_9851_18761)" stroke-width="2"/>
<path d="M365.5 288.417V278.235H369.06C369.769 278.235 370.354 278.358 370.815 278.603C371.275 278.845 371.618 279.171 371.844 279.582C372.069 279.99 372.182 280.443 372.182 280.94C372.182 281.377 372.104 281.738 371.948 282.024C371.796 282.309 371.594 282.534 371.342 282.7C371.093 282.865 370.823 282.988 370.531 283.068V283.167C370.843 283.187 371.156 283.296 371.471 283.495C371.786 283.694 372.049 283.979 372.261 284.35C372.473 284.721 372.58 285.176 372.58 285.712C372.58 286.223 372.464 286.682 372.232 287.09C372 287.497 371.633 287.82 371.133 288.059C370.632 288.298 369.981 288.417 369.179 288.417H365.5ZM366.733 287.323H369.179C369.984 287.323 370.556 287.167 370.894 286.856C371.236 286.541 371.406 286.16 371.406 285.712C371.406 285.368 371.318 285.05 371.143 284.758C370.967 284.463 370.717 284.228 370.392 284.052C370.067 283.873 369.683 283.783 369.239 283.783H366.733V287.323ZM366.733 282.71H369.02C369.391 282.71 369.726 282.637 370.024 282.491C370.326 282.345 370.564 282.14 370.74 281.874C370.919 281.609 371.009 281.298 371.009 280.94C371.009 280.492 370.853 280.113 370.541 279.801C370.23 279.486 369.736 279.329 369.06 279.329H366.733V282.71Z" fill="#C6C6C6"/>
<path d="M374.446 288.417V280.781H375.62V288.417H374.446ZM375.043 279.508C374.814 279.508 374.617 279.43 374.451 279.274C374.289 279.118 374.208 278.931 374.208 278.712C374.208 278.494 374.289 278.306 374.451 278.151C374.617 277.995 374.814 277.917 375.043 277.917C375.272 277.917 375.467 277.995 375.63 278.151C375.795 278.306 375.878 278.494 375.878 278.712C375.878 278.931 375.795 279.118 375.63 279.274C375.467 279.43 375.272 279.508 375.043 279.508Z" fill="#C6C6C6"/>
<path d="M378.942 278.235V288.417H377.769V278.235H378.942Z" fill="#C6C6C6"/>
<path d="M382.264 278.235V288.417H381.091V278.235H382.264Z" fill="#C6C6C6"/>
<path d="M389.822 282.491L388.768 282.789C388.702 282.613 388.604 282.443 388.475 282.277C388.349 282.108 388.177 281.969 387.958 281.859C387.739 281.75 387.459 281.695 387.118 281.695C386.65 281.695 386.261 281.803 385.949 282.019C385.641 282.231 385.487 282.501 385.487 282.829C385.487 283.121 385.593 283.351 385.805 283.52C386.017 283.689 386.349 283.83 386.8 283.943L387.933 284.221C388.616 284.387 389.125 284.64 389.459 284.982C389.794 285.32 389.961 285.756 389.961 286.289C389.961 286.727 389.836 287.118 389.584 287.462C389.335 287.807 388.987 288.079 388.54 288.278C388.092 288.477 387.572 288.576 386.979 288.576C386.2 288.576 385.555 288.407 385.045 288.069C384.534 287.731 384.211 287.237 384.075 286.587L385.189 286.309C385.295 286.72 385.495 287.028 385.79 287.234C386.089 287.439 386.478 287.542 386.959 287.542C387.506 287.542 387.94 287.426 388.261 287.194C388.586 286.959 388.748 286.677 388.748 286.349C388.748 286.084 388.656 285.862 388.47 285.683C388.284 285.5 387.999 285.364 387.615 285.275L386.342 284.977C385.643 284.811 385.129 284.554 384.801 284.206C384.476 283.855 384.314 283.416 384.314 282.889C384.314 282.458 384.435 282.077 384.677 281.745C384.922 281.414 385.255 281.153 385.676 280.965C386.1 280.776 386.581 280.681 387.118 280.681C387.873 280.681 388.467 280.847 388.898 281.178C389.332 281.51 389.64 281.947 389.822 282.491Z" fill="#C6C6C6"/>
<path d="M464.763 288.099L461.979 277.917H463.231L465.359 286.21H465.459L467.626 277.917H469.018L471.186 286.21H471.285L473.413 277.917H474.666L471.882 288.099H470.609L468.362 279.985H468.282L466.035 288.099H464.763Z" fill="#C6C6C6"/>
<path d="M478.434 288.258C477.745 288.258 477.14 288.094 476.62 287.766C476.103 287.438 475.698 286.979 475.407 286.389C475.118 285.799 474.974 285.109 474.974 284.32C474.974 283.525 475.118 282.831 475.407 282.237C475.698 281.644 476.103 281.183 476.62 280.855C477.14 280.527 477.745 280.363 478.434 280.363C479.124 280.363 479.727 280.527 480.244 280.855C480.764 281.183 481.169 281.644 481.457 282.237C481.749 282.831 481.895 283.525 481.895 284.32C481.895 285.109 481.749 285.799 481.457 286.389C481.169 286.979 480.764 287.438 480.244 287.766C479.727 288.094 479.124 288.258 478.434 288.258ZM478.434 287.204C478.958 287.204 479.389 287.07 479.727 286.801C480.065 286.533 480.315 286.18 480.478 285.742C480.64 285.305 480.721 284.831 480.721 284.32C480.721 283.81 480.64 283.334 480.478 282.894C480.315 282.453 480.065 282.096 479.727 281.825C479.389 281.553 478.958 281.417 478.434 281.417C477.911 281.417 477.48 281.553 477.142 281.825C476.804 282.096 476.554 282.453 476.391 282.894C476.229 283.334 476.148 283.81 476.148 284.32C476.148 284.831 476.229 285.305 476.391 285.742C476.554 286.18 476.804 286.533 477.142 286.801C477.48 287.07 477.911 287.204 478.434 287.204Z" fill="#C6C6C6"/>
<path d="M483.686 288.099V280.462H484.819V281.616H484.899C485.038 281.238 485.29 280.931 485.654 280.696C486.019 280.461 486.43 280.343 486.887 280.343C486.974 280.343 487.081 280.345 487.211 280.348C487.34 280.351 487.438 280.356 487.504 280.363V281.556C487.464 281.546 487.373 281.531 487.23 281.511C487.091 281.488 486.944 281.477 486.788 281.477C486.417 281.477 486.085 281.555 485.794 281.71C485.505 281.863 485.277 282.075 485.108 282.347C484.942 282.615 484.859 282.922 484.859 283.266V288.099H483.686Z" fill="#C6C6C6"/>
<path d="M489.988 285.315L489.969 283.863H490.207L493.548 280.462H495L491.44 284.062H491.341L489.988 285.315ZM488.895 288.099V277.917H490.068V288.099H488.895ZM493.747 288.099L490.764 284.32L491.599 283.505L495.238 288.099H493.747Z" fill="#C6C6C6"/>
<path d="M497.683 277.917V288.099H496.51V277.917H497.683Z" fill="#C6C6C6"/>
<path d="M502.934 288.258C502.245 288.258 501.64 288.094 501.12 287.766C500.603 287.438 500.198 286.979 499.907 286.389C499.618 285.799 499.474 285.109 499.474 284.32C499.474 283.525 499.618 282.831 499.907 282.237C500.198 281.644 500.603 281.183 501.12 280.855C501.64 280.527 502.245 280.363 502.934 280.363C503.624 280.363 504.227 280.527 504.744 280.855C505.264 281.183 505.669 281.644 505.957 282.237C506.249 282.831 506.395 283.525 506.395 284.32C506.395 285.109 506.249 285.799 505.957 286.389C505.669 286.979 505.264 287.438 504.744 287.766C504.227 288.094 503.624 288.258 502.934 288.258ZM502.934 287.204C503.458 287.204 503.889 287.07 504.227 286.801C504.565 286.533 504.815 286.18 504.978 285.742C505.14 285.305 505.221 284.831 505.221 284.32C505.221 283.81 505.14 283.334 504.978 282.894C504.815 282.453 504.565 282.096 504.227 281.825C503.889 281.553 503.458 281.417 502.934 281.417C502.411 281.417 501.98 281.553 501.642 281.825C501.304 282.096 501.054 282.453 500.891 282.894C500.729 283.334 500.648 283.81 500.648 284.32C500.648 284.831 500.729 285.305 500.891 285.742C501.054 286.18 501.304 286.533 501.642 286.801C501.98 287.07 502.411 287.204 502.934 287.204Z" fill="#C6C6C6"/>
<path d="M510.433 288.278C509.949 288.278 509.51 288.187 509.115 288.004C508.721 287.819 508.408 287.552 508.176 287.204C507.944 286.853 507.828 286.428 507.828 285.931C507.828 285.494 507.914 285.139 508.086 284.867C508.259 284.592 508.489 284.377 508.777 284.221C509.066 284.065 509.384 283.949 509.732 283.873C510.083 283.793 510.436 283.73 510.791 283.684C511.255 283.624 511.631 283.58 511.919 283.55C512.211 283.517 512.423 283.462 512.556 283.386C512.692 283.31 512.76 283.177 512.76 282.988V282.948C512.76 282.458 512.625 282.077 512.357 281.805C512.092 281.533 511.689 281.397 511.149 281.397C510.589 281.397 510.15 281.52 509.831 281.765C509.513 282.01 509.289 282.272 509.16 282.551L508.047 282.153C508.245 281.689 508.511 281.328 508.842 281.069C509.177 280.807 509.541 280.625 509.936 280.522C510.333 280.416 510.725 280.363 511.109 280.363C511.354 280.363 511.636 280.393 511.954 280.453C512.276 280.509 512.586 280.627 512.884 280.805C513.185 280.984 513.436 281.255 513.635 281.616C513.833 281.977 513.933 282.461 513.933 283.068V288.099H512.76V287.065H512.7C512.62 287.23 512.488 287.408 512.302 287.597C512.117 287.786 511.87 287.946 511.561 288.079C511.253 288.212 510.877 288.278 510.433 288.278ZM510.612 287.224C511.076 287.224 511.467 287.133 511.785 286.95C512.107 286.768 512.349 286.533 512.511 286.244C512.677 285.956 512.76 285.653 512.76 285.335V284.261C512.71 284.32 512.6 284.375 512.431 284.425C512.266 284.471 512.074 284.513 511.855 284.549C511.639 284.582 511.429 284.612 511.223 284.639C511.021 284.662 510.857 284.682 510.731 284.698C510.426 284.738 510.141 284.803 509.876 284.892C509.614 284.978 509.402 285.109 509.24 285.285C509.081 285.457 509.001 285.693 509.001 285.991C509.001 286.399 509.152 286.707 509.453 286.916C509.758 287.121 510.145 287.224 510.612 287.224Z" fill="#C6C6C6"/>
<path d="M518.958 288.258C518.322 288.258 517.76 288.097 517.273 287.776C516.785 287.451 516.404 286.993 516.129 286.403C515.854 285.81 515.716 285.109 515.716 284.301C515.716 283.498 515.854 282.802 516.129 282.212C516.404 281.622 516.787 281.167 517.278 280.845C517.768 280.524 518.335 280.363 518.978 280.363C519.475 280.363 519.868 280.446 520.156 280.612C520.448 280.774 520.67 280.96 520.822 281.168C520.978 281.374 521.099 281.543 521.185 281.676H521.285V277.917H522.458V288.099H521.324V286.926H521.185C521.099 287.065 520.976 287.24 520.817 287.453C520.658 287.661 520.431 287.849 520.136 288.014C519.841 288.177 519.448 288.258 518.958 288.258ZM519.117 287.204C519.588 287.204 519.985 287.081 520.31 286.836C520.635 286.587 520.882 286.244 521.051 285.807C521.22 285.366 521.305 284.857 521.305 284.281C521.305 283.711 521.222 283.212 521.056 282.784C520.89 282.353 520.645 282.019 520.32 281.78C519.995 281.538 519.594 281.417 519.117 281.417C518.62 281.417 518.206 281.545 517.874 281.8C517.546 282.052 517.299 282.395 517.133 282.829C516.971 283.26 516.89 283.744 516.89 284.281C516.89 284.824 516.973 285.318 517.138 285.762C517.307 286.203 517.556 286.554 517.884 286.816C518.215 287.075 518.626 287.204 519.117 287.204Z" fill="#C6C6C6"/>
<rect x="405.962" y="277.917" width="46.0807" height="10.6591" fill="url(#paint3_linear_9851_18761)"/>
<path class="elastic-workload-1" d="M2 250.709C75.755 251.709 65.6317 251.209 75.755 246.209C75.755 246.209 90.2167 236.709 102.268 231.709C114.32 226.709 125.407 234.474 138.905 228.709C155.295 221.709 150.956 216.209 181.808 205.709C190.003 202.92 200.608 165.209 202.054 157.209C210.623 109.81 226.071 49.709 251.224 49.709C294.091 49.709 303.355 151.587 325.164 173.396C331.671 179.903 344.3 189.2 364.026 192.209C396.806 197.209 411.75 237.709 420.909 243.209C431.594 249.625 515.392 247.709 523.587 247.709" stroke="url(#paint4_linear_9851_18761)" stroke-width="2"/>

<g class="elastic-workload-tip-2">
<path d="M196 252.375L196 14.9925" stroke="white" stroke-dasharray="2 2"/>
<g filter="url(#filter0_d_9851_18761)">
<rect x="192.578" y="242.042" width="7" height="20.6666" rx="3.5" fill="#C76FF2"/>
</g>
<g filter="url(#filter1_d_9851_18761)">
<rect x="193" y="9" width="7" height="38" rx="3.5" fill="#C76FF2"/>
</g>
<rect x="99.5" y="0.5" width="192" height="31" rx="15.5" fill="black" stroke="#C76FF2"/>
<path d="M122.684 21.14C121.947 21.14 121.265 21.0187 120.64 20.776C120.024 20.524 119.487 20.174 119.03 19.726C118.573 19.2687 118.218 18.732 117.966 18.116C117.723 17.4907 117.602 16.8047 117.602 16.058C117.602 15.33 117.733 14.658 117.994 14.042C118.255 13.426 118.615 12.894 119.072 12.446C119.539 11.9887 120.085 11.634 120.71 11.382C121.345 11.13 122.035 11.004 122.782 11.004C123.249 11.004 123.706 11.0647 124.154 11.186C124.602 11.3073 125.017 11.4893 125.4 11.732C125.792 11.9653 126.128 12.2453 126.408 12.572L124.952 14.238C124.756 14.0327 124.546 13.8553 124.322 13.706C124.107 13.5473 123.869 13.426 123.608 13.342C123.347 13.258 123.067 13.216 122.768 13.216C122.395 13.216 122.04 13.286 121.704 13.426C121.377 13.5567 121.088 13.748 120.836 14C120.593 14.2427 120.402 14.5413 120.262 14.896C120.122 15.2507 120.052 15.6473 120.052 16.086C120.052 16.5153 120.122 16.9073 120.262 17.262C120.402 17.6073 120.598 17.906 120.85 18.158C121.102 18.41 121.405 18.6013 121.76 18.732C122.124 18.8627 122.525 18.928 122.964 18.928C123.263 18.928 123.547 18.886 123.818 18.802C124.089 18.718 124.336 18.606 124.56 18.466C124.793 18.3167 124.999 18.1487 125.176 17.962L126.324 19.782C126.091 20.0433 125.778 20.2767 125.386 20.482C125.003 20.6873 124.574 20.8507 124.098 20.972C123.631 21.084 123.16 21.14 122.684 21.14ZM131.215 21.14C130.44 21.14 129.749 20.972 129.143 20.636C128.545 20.3 128.069 19.8427 127.715 19.264C127.369 18.6853 127.197 18.0227 127.197 17.276C127.197 16.5293 127.369 15.8667 127.715 15.288C128.069 14.7093 128.545 14.252 129.143 13.916C129.749 13.58 130.44 13.412 131.215 13.412C131.989 13.412 132.675 13.58 133.273 13.916C133.879 14.252 134.355 14.7093 134.701 15.288C135.046 15.8667 135.219 16.5293 135.219 17.276C135.219 18.0227 135.046 18.6853 134.701 19.264C134.355 19.8427 133.879 20.3 133.273 20.636C132.675 20.972 131.989 21.14 131.215 21.14ZM131.215 19.208C131.551 19.208 131.849 19.124 132.111 18.956C132.372 18.788 132.577 18.5593 132.727 18.27C132.876 17.9807 132.946 17.6493 132.937 17.276C132.946 16.9027 132.876 16.5713 132.727 16.282C132.577 15.9833 132.372 15.75 132.111 15.582C131.849 15.414 131.551 15.33 131.215 15.33C130.879 15.33 130.575 15.414 130.305 15.582C130.043 15.75 129.838 15.9833 129.689 16.282C129.539 16.5713 129.469 16.9027 129.479 17.276C129.469 17.6493 129.539 17.9807 129.689 18.27C129.838 18.5593 130.043 18.788 130.305 18.956C130.575 19.124 130.879 19.208 131.215 19.208ZM139.189 21.14C138.461 21.14 137.817 21.0233 137.257 20.79C136.707 20.5567 136.268 20.244 135.941 19.852L137.299 18.676C137.589 18.9653 137.915 19.18 138.279 19.32C138.643 19.4507 138.989 19.516 139.315 19.516C139.446 19.516 139.563 19.502 139.665 19.474C139.768 19.446 139.852 19.4087 139.917 19.362C139.992 19.306 140.048 19.2453 140.085 19.18C140.123 19.1053 140.141 19.0213 140.141 18.928C140.141 18.7413 140.057 18.5967 139.889 18.494C139.805 18.4473 139.665 18.3913 139.469 18.326C139.273 18.2607 139.021 18.186 138.713 18.102C138.275 17.99 137.892 17.8593 137.565 17.71C137.248 17.5513 136.987 17.3693 136.781 17.164C136.595 16.968 136.45 16.7533 136.347 16.52C136.245 16.2773 136.193 16.0067 136.193 15.708C136.193 15.3627 136.273 15.05 136.431 14.77C136.599 14.49 136.819 14.2473 137.089 14.042C137.369 13.8367 137.687 13.6827 138.041 13.58C138.405 13.468 138.779 13.412 139.161 13.412C139.572 13.412 139.964 13.4587 140.337 13.552C140.711 13.6453 141.056 13.776 141.373 13.944C141.7 14.112 141.989 14.3127 142.241 14.546L141.065 15.862C140.897 15.7033 140.706 15.5633 140.491 15.442C140.286 15.3113 140.071 15.2087 139.847 15.134C139.623 15.0593 139.418 15.022 139.231 15.022C139.091 15.022 138.965 15.036 138.853 15.064C138.751 15.0827 138.662 15.12 138.587 15.176C138.513 15.2227 138.457 15.2833 138.419 15.358C138.382 15.4233 138.363 15.5027 138.363 15.596C138.363 15.6893 138.387 15.778 138.433 15.862C138.489 15.946 138.564 16.016 138.657 16.072C138.751 16.128 138.9 16.1933 139.105 16.268C139.311 16.3333 139.591 16.4173 139.945 16.52C140.384 16.6413 140.762 16.7767 141.079 16.926C141.397 17.0753 141.649 17.2527 141.835 17.458C141.985 17.6167 142.097 17.8033 142.171 18.018C142.246 18.2233 142.283 18.4473 142.283 18.69C142.283 19.166 142.148 19.5907 141.877 19.964C141.616 20.328 141.252 20.6173 140.785 20.832C140.319 21.0373 139.787 21.14 139.189 21.14ZM144.231 21V11.69H146.471V21H144.231ZM142.915 15.526V13.566H147.913V15.526H142.915ZM151.973 21.14C151.245 21.14 150.601 21.0233 150.041 20.79C149.49 20.5567 149.051 20.244 148.725 19.852L150.083 18.676C150.372 18.9653 150.699 19.18 151.063 19.32C151.427 19.4507 151.772 19.516 152.099 19.516C152.229 19.516 152.346 19.502 152.449 19.474C152.551 19.446 152.635 19.4087 152.701 19.362C152.775 19.306 152.831 19.2453 152.869 19.18C152.906 19.1053 152.925 19.0213 152.925 18.928C152.925 18.7413 152.841 18.5967 152.673 18.494C152.589 18.4473 152.449 18.3913 152.253 18.326C152.057 18.2607 151.805 18.186 151.497 18.102C151.058 17.99 150.675 17.8593 150.349 17.71C150.031 17.5513 149.77 17.3693 149.565 17.164C149.378 16.968 149.233 16.7533 149.131 16.52C149.028 16.2773 148.977 16.0067 148.977 15.708C148.977 15.3627 149.056 15.05 149.215 14.77C149.383 14.49 149.602 14.2473 149.873 14.042C150.153 13.8367 150.47 13.6827 150.825 13.58C151.189 13.468 151.562 13.412 151.945 13.412C152.355 13.412 152.747 13.4587 153.121 13.552C153.494 13.6453 153.839 13.776 154.157 13.944C154.483 14.112 154.773 14.3127 155.025 14.546L153.849 15.862C153.681 15.7033 153.489 15.5633 153.275 15.442C153.069 15.3113 152.855 15.2087 152.631 15.134C152.407 15.0593 152.201 15.022 152.015 15.022C151.875 15.022 151.749 15.036 151.637 15.064C151.534 15.0827 151.445 15.12 151.371 15.176C151.296 15.2227 151.24 15.2833 151.203 15.358C151.165 15.4233 151.147 15.5027 151.147 15.596C151.147 15.6893 151.17 15.778 151.217 15.862C151.273 15.946 151.347 16.016 151.441 16.072C151.534 16.128 151.683 16.1933 151.889 16.268C152.094 16.3333 152.374 16.4173 152.729 16.52C153.167 16.6413 153.545 16.7767 153.863 16.926C154.18 17.0753 154.432 17.2527 154.619 17.458C154.768 17.6167 154.88 17.8033 154.955 18.018C155.029 18.2233 155.067 18.4473 155.067 18.69C155.067 19.166 154.931 19.5907 154.661 19.964C154.399 20.328 154.035 20.6173 153.569 20.832C153.102 21.0373 152.57 21.14 151.973 21.14ZM161.345 21V13.202C161.345 12.7167 161.447 12.278 161.653 11.886C161.867 11.494 162.161 11.186 162.535 10.962C162.917 10.7287 163.361 10.612 163.865 10.612C164.219 10.612 164.546 10.6633 164.845 10.766C165.143 10.8687 165.409 11.0133 165.643 11.2L164.999 12.838C164.877 12.7727 164.761 12.7213 164.649 12.684C164.537 12.6467 164.434 12.628 164.341 12.628C164.173 12.628 164.033 12.656 163.921 12.712C163.809 12.768 163.725 12.8567 163.669 12.978C163.622 13.09 163.599 13.23 163.599 13.398V21H162.479C162.227 21 162.003 21 161.807 21C161.62 21 161.466 21 161.345 21ZM160.267 15.624V13.776H165.125V15.624H160.267ZM169.605 21.14C168.831 21.14 168.14 20.972 167.533 20.636C166.936 20.3 166.46 19.8427 166.105 19.264C165.76 18.6853 165.587 18.0227 165.587 17.276C165.587 16.5293 165.76 15.8667 166.105 15.288C166.46 14.7093 166.936 14.252 167.533 13.916C168.14 13.58 168.831 13.412 169.605 13.412C170.38 13.412 171.066 13.58 171.663 13.916C172.27 14.252 172.746 14.7093 173.091 15.288C173.437 15.8667 173.609 16.5293 173.609 17.276C173.609 18.0227 173.437 18.6853 173.091 19.264C172.746 19.8427 172.27 20.3 171.663 20.636C171.066 20.972 170.38 21.14 169.605 21.14ZM169.605 19.208C169.941 19.208 170.24 19.124 170.501 18.956C170.763 18.788 170.968 18.5593 171.117 18.27C171.267 17.9807 171.337 17.6493 171.327 17.276C171.337 16.9027 171.267 16.5713 171.117 16.282C170.968 15.9833 170.763 15.75 170.501 15.582C170.24 15.414 169.941 15.33 169.605 15.33C169.269 15.33 168.966 15.414 168.695 15.582C168.434 15.75 168.229 15.9833 168.079 16.282C167.93 16.5713 167.86 16.9027 167.869 17.276C167.86 17.6493 167.93 17.9807 168.079 18.27C168.229 18.5593 168.434 18.788 168.695 18.956C168.966 19.124 169.269 19.208 169.605 19.208ZM175.088 21V10.64H177.328V21H175.088ZM179.34 21V10.64H181.58V21H179.34ZM186.941 21.14C186.167 21.14 185.476 20.972 184.869 20.636C184.272 20.3 183.796 19.8427 183.441 19.264C183.096 18.6853 182.923 18.0227 182.923 17.276C182.923 16.5293 183.096 15.8667 183.441 15.288C183.796 14.7093 184.272 14.252 184.869 13.916C185.476 13.58 186.167 13.412 186.941 13.412C187.716 13.412 188.402 13.58 188.999 13.916C189.606 14.252 190.082 14.7093 190.427 15.288C190.773 15.8667 190.945 16.5293 190.945 17.276C190.945 18.0227 190.773 18.6853 190.427 19.264C190.082 19.8427 189.606 20.3 188.999 20.636C188.402 20.972 187.716 21.14 186.941 21.14ZM186.941 19.208C187.277 19.208 187.576 19.124 187.837 18.956C188.099 18.788 188.304 18.5593 188.453 18.27C188.603 17.9807 188.673 17.6493 188.663 17.276C188.673 16.9027 188.603 16.5713 188.453 16.282C188.304 15.9833 188.099 15.75 187.837 15.582C187.576 15.414 187.277 15.33 186.941 15.33C186.605 15.33 186.302 15.414 186.031 15.582C185.77 15.75 185.565 15.9833 185.415 16.282C185.266 16.5713 185.196 16.9027 185.205 17.276C185.196 17.6493 185.266 17.9807 185.415 18.27C185.565 18.5593 185.77 18.788 186.031 18.956C186.302 19.124 186.605 19.208 186.941 19.208ZM193.761 21L191.311 13.566H193.677L195.049 18.396L194.755 18.34L196.295 14.588H197.611L199.235 18.354L198.913 18.382L200.285 13.566H202.651L200.117 21H198.465L196.855 17.01L197.023 17.038L195.413 21H193.761ZM209.921 21L207.471 13.566H209.837L211.209 18.396L210.915 18.34L212.455 14.588H213.771L215.395 18.354L215.073 18.382L216.445 13.566H218.811L216.277 21H214.625L213.015 17.01L213.183 17.038L211.573 21H209.921ZM223.267 21.14C222.493 21.14 221.802 20.972 221.195 20.636C220.598 20.3 220.122 19.8427 219.767 19.264C219.422 18.6853 219.249 18.0227 219.249 17.276C219.249 16.5293 219.422 15.8667 219.767 15.288C220.122 14.7093 220.598 14.252 221.195 13.916C221.802 13.58 222.493 13.412 223.267 13.412C224.042 13.412 224.728 13.58 225.325 13.916C225.932 14.252 226.408 14.7093 226.753 15.288C227.099 15.8667 227.271 16.5293 227.271 17.276C227.271 18.0227 227.099 18.6853 226.753 19.264C226.408 19.8427 225.932 20.3 225.325 20.636C224.728 20.972 224.042 21.14 223.267 21.14ZM223.267 19.208C223.603 19.208 223.902 19.124 224.163 18.956C224.425 18.788 224.63 18.5593 224.779 18.27C224.929 17.9807 224.999 17.6493 224.989 17.276C224.999 16.9027 224.929 16.5713 224.779 16.282C224.63 15.9833 224.425 15.75 224.163 15.582C223.902 15.414 223.603 15.33 223.267 15.33C222.931 15.33 222.628 15.414 222.357 15.582C222.096 15.75 221.891 15.9833 221.741 16.282C221.592 16.5713 221.522 16.9027 221.531 17.276C221.522 17.6493 221.592 17.9807 221.741 18.27C221.891 18.5593 222.096 18.788 222.357 18.956C222.628 19.124 222.931 19.208 223.267 19.208ZM228.736 21V13.566H230.864L230.962 15.988L230.542 15.526C230.654 15.1247 230.836 14.7653 231.088 14.448C231.35 14.1307 231.653 13.8787 231.998 13.692C232.344 13.5053 232.712 13.412 233.104 13.412C233.272 13.412 233.426 13.426 233.566 13.454C233.716 13.482 233.851 13.5147 233.972 13.552L233.356 16.03C233.254 15.9647 233.114 15.9133 232.936 15.876C232.768 15.8293 232.591 15.806 232.404 15.806C232.199 15.806 232.008 15.8433 231.83 15.918C231.653 15.9833 231.504 16.0813 231.382 16.212C231.261 16.3427 231.163 16.4967 231.088 16.674C231.023 16.8513 230.99 17.052 230.99 17.276V21H228.736ZM237.263 18.816L236.437 17.136L239.909 13.566H242.863L237.263 18.816ZM235.107 21V10.64H237.347V21H235.107ZM240.147 21L237.529 17.612L239.111 16.38L242.793 21H240.147ZM243.817 21V10.64H246.057V21H243.817ZM251.418 21.14C250.643 21.14 249.952 20.972 249.346 20.636C248.748 20.3 248.272 19.8427 247.918 19.264C247.572 18.6853 247.4 18.0227 247.4 17.276C247.4 16.5293 247.572 15.8667 247.918 15.288C248.272 14.7093 248.748 14.252 249.346 13.916C249.952 13.58 250.643 13.412 251.418 13.412C252.192 13.412 252.878 13.58 253.476 13.916C254.082 14.252 254.558 14.7093 254.904 15.288C255.249 15.8667 255.422 16.5293 255.422 17.276C255.422 18.0227 255.249 18.6853 254.904 19.264C254.558 19.8427 254.082 20.3 253.476 20.636C252.878 20.972 252.192 21.14 251.418 21.14ZM251.418 19.208C251.754 19.208 252.052 19.124 252.314 18.956C252.575 18.788 252.78 18.5593 252.93 18.27C253.079 17.9807 253.149 17.6493 253.14 17.276C253.149 16.9027 253.079 16.5713 252.93 16.282C252.78 15.9833 252.575 15.75 252.314 15.582C252.052 15.414 251.754 15.33 251.418 15.33C251.082 15.33 250.778 15.414 250.508 15.582C250.246 15.75 250.041 15.9833 249.892 16.282C249.742 16.5713 249.672 16.9027 249.682 17.276C249.672 17.6493 249.742 17.9807 249.892 18.27C250.041 18.5593 250.246 18.788 250.508 18.956C250.778 19.124 251.082 19.208 251.418 19.208ZM259.631 21.126C259.005 21.126 258.445 20.9627 257.951 20.636C257.465 20.3 257.078 19.8427 256.789 19.264C256.499 18.676 256.355 18.0133 256.355 17.276C256.355 16.52 256.499 15.8527 256.789 15.274C257.078 14.6953 257.475 14.2427 257.979 13.916C258.483 13.58 259.057 13.412 259.701 13.412C260.055 13.412 260.377 13.4633 260.667 13.566C260.965 13.6687 261.227 13.8133 261.451 14C261.675 14.1773 261.866 14.3873 262.025 14.63C262.183 14.8633 262.3 15.1153 262.375 15.386L261.913 15.33V13.566H264.139V21H261.871V19.208L262.375 19.194C262.3 19.4553 262.179 19.7027 262.011 19.936C261.843 20.1693 261.637 20.3747 261.395 20.552C261.152 20.7293 260.881 20.8693 260.583 20.972C260.284 21.0747 259.967 21.126 259.631 21.126ZM260.247 19.236C260.592 19.236 260.891 19.1567 261.143 18.998C261.395 18.8393 261.591 18.6153 261.731 18.326C261.871 18.0273 261.941 17.6773 261.941 17.276C261.941 16.8747 261.871 16.5293 261.731 16.24C261.591 15.9413 261.395 15.7127 261.143 15.554C260.891 15.386 260.592 15.302 260.247 15.302C259.911 15.302 259.617 15.386 259.365 15.554C259.122 15.7127 258.931 15.9413 258.791 16.24C258.651 16.5293 258.581 16.8747 258.581 17.276C258.581 17.6773 258.651 18.0273 258.791 18.326C258.931 18.6153 259.122 18.8393 259.365 18.998C259.617 19.1567 259.911 19.236 260.247 19.236ZM268.929 21.154C268.285 21.154 267.711 20.9907 267.207 20.664C266.712 20.328 266.32 19.8707 266.031 19.292C265.742 18.704 265.597 18.0367 265.597 17.29C265.597 16.5433 265.742 15.8807 266.031 15.302C266.32 14.714 266.717 14.252 267.221 13.916C267.725 13.58 268.304 13.412 268.957 13.412C269.293 13.412 269.615 13.4633 269.923 13.566C270.231 13.6687 270.511 13.8087 270.763 13.986C271.015 14.1633 271.22 14.3687 271.379 14.602C271.538 14.826 271.631 15.0593 271.659 15.302L271.127 15.428V10.64H273.381V21H271.295L271.169 19.306L271.617 19.376C271.589 19.6093 271.496 19.8333 271.337 20.048C271.188 20.2627 270.992 20.454 270.749 20.622C270.506 20.7807 270.226 20.9067 269.909 21C269.601 21.1027 269.274 21.154 268.929 21.154ZM269.503 19.292C269.848 19.292 270.147 19.208 270.399 19.04C270.651 18.872 270.842 18.6387 270.973 18.34C271.113 18.0413 271.183 17.6913 271.183 17.29C271.183 16.8793 271.113 16.5247 270.973 16.226C270.842 15.9273 270.651 15.694 270.399 15.526C270.147 15.358 269.848 15.274 269.503 15.274C269.158 15.274 268.859 15.358 268.607 15.526C268.364 15.694 268.173 15.9273 268.033 16.226C267.893 16.5247 267.823 16.8793 267.823 17.29C267.823 17.6913 267.893 18.0413 268.033 18.34C268.173 18.6387 268.364 18.872 268.607 19.04C268.859 19.208 269.158 19.292 269.503 19.292Z" fill="#C76FF2"/>
</g>

<g class="elastic-workload-tip-3">
<path d="M338 257.209L338 160.209" stroke="white" stroke-dasharray="2 2"/>
<g filter="url(#filter2_d_9851_18761)">
<rect x="334" y="240.709" width="7" height="20.6667" rx="3.5" fill="#50DBD9"/>
</g>
<g filter="url(#filter3_d_9851_18761)">
<rect x="334" y="135.209" width="7" height="27.5687" rx="3.5" fill="#50DBD9"/>
</g>
<rect x="270.5" y="122.209" width="135" height="31" rx="15.5" fill="black" stroke="#50DBD9"/>
<path d="M291.646 142.849C290.909 142.849 290.227 142.728 289.602 142.485C288.986 142.233 288.449 141.883 287.992 141.435C287.535 140.978 287.18 140.441 286.928 139.825C286.685 139.2 286.564 138.514 286.564 137.767C286.564 137.039 286.695 136.367 286.956 135.751C287.217 135.135 287.577 134.603 288.034 134.155C288.501 133.698 289.047 133.343 289.672 133.091C290.307 132.839 290.997 132.713 291.744 132.713C292.211 132.713 292.668 132.774 293.116 132.895C293.564 133.016 293.979 133.198 294.362 133.441C294.754 133.674 295.09 133.954 295.37 134.281L293.914 135.947C293.718 135.742 293.508 135.564 293.284 135.415C293.069 135.256 292.831 135.135 292.57 135.051C292.309 134.967 292.029 134.925 291.73 134.925C291.357 134.925 291.002 134.995 290.666 135.135C290.339 135.266 290.05 135.457 289.798 135.709C289.555 135.952 289.364 136.25 289.224 136.605C289.084 136.96 289.014 137.356 289.014 137.795C289.014 138.224 289.084 138.616 289.224 138.971C289.364 139.316 289.56 139.615 289.812 139.867C290.064 140.119 290.367 140.31 290.722 140.441C291.086 140.572 291.487 140.637 291.926 140.637C292.225 140.637 292.509 140.595 292.78 140.511C293.051 140.427 293.298 140.315 293.522 140.175C293.755 140.026 293.961 139.858 294.138 139.671L295.286 141.491C295.053 141.752 294.74 141.986 294.348 142.191C293.965 142.396 293.536 142.56 293.06 142.681C292.593 142.793 292.122 142.849 291.646 142.849ZM300.177 142.849C299.402 142.849 298.711 142.681 298.105 142.345C297.507 142.009 297.031 141.552 296.677 140.973C296.331 140.394 296.159 139.732 296.159 138.985C296.159 138.238 296.331 137.576 296.677 136.997C297.031 136.418 297.507 135.961 298.105 135.625C298.711 135.289 299.402 135.121 300.177 135.121C300.951 135.121 301.637 135.289 302.235 135.625C302.841 135.961 303.317 136.418 303.663 136.997C304.008 137.576 304.181 138.238 304.181 138.985C304.181 139.732 304.008 140.394 303.663 140.973C303.317 141.552 302.841 142.009 302.235 142.345C301.637 142.681 300.951 142.849 300.177 142.849ZM300.177 140.917C300.513 140.917 300.811 140.833 301.073 140.665C301.334 140.497 301.539 140.268 301.689 139.979C301.838 139.69 301.908 139.358 301.899 138.985C301.908 138.612 301.838 138.28 301.689 137.991C301.539 137.692 301.334 137.459 301.073 137.291C300.811 137.123 300.513 137.039 300.177 137.039C299.841 137.039 299.537 137.123 299.267 137.291C299.005 137.459 298.8 137.692 298.651 137.991C298.501 138.28 298.431 138.612 298.441 138.985C298.431 139.358 298.501 139.69 298.651 139.979C298.8 140.268 299.005 140.497 299.267 140.665C299.537 140.833 299.841 140.917 300.177 140.917ZM308.151 142.849C307.423 142.849 306.779 142.732 306.219 142.499C305.669 142.266 305.23 141.953 304.903 141.561L306.261 140.385C306.551 140.674 306.877 140.889 307.241 141.029C307.605 141.16 307.951 141.225 308.277 141.225C308.408 141.225 308.525 141.211 308.627 141.183C308.73 141.155 308.814 141.118 308.879 141.071C308.954 141.015 309.01 140.954 309.047 140.889C309.085 140.814 309.103 140.73 309.103 140.637C309.103 140.45 309.019 140.306 308.851 140.203C308.767 140.156 308.627 140.1 308.431 140.035C308.235 139.97 307.983 139.895 307.675 139.811C307.237 139.699 306.854 139.568 306.527 139.419C306.21 139.26 305.949 139.078 305.743 138.873C305.557 138.677 305.412 138.462 305.309 138.229C305.207 137.986 305.155 137.716 305.155 137.417C305.155 137.072 305.235 136.759 305.393 136.479C305.561 136.199 305.781 135.956 306.051 135.751C306.331 135.546 306.649 135.392 307.003 135.289C307.367 135.177 307.741 135.121 308.123 135.121C308.534 135.121 308.926 135.168 309.299 135.261C309.673 135.354 310.018 135.485 310.335 135.653C310.662 135.821 310.951 136.022 311.203 136.255L310.027 137.571C309.859 137.412 309.668 137.272 309.453 137.151C309.248 137.02 309.033 136.918 308.809 136.843C308.585 136.768 308.38 136.731 308.193 136.731C308.053 136.731 307.927 136.745 307.815 136.773C307.713 136.792 307.624 136.829 307.549 136.885C307.475 136.932 307.419 136.992 307.381 137.067C307.344 137.132 307.325 137.212 307.325 137.305C307.325 137.398 307.349 137.487 307.395 137.571C307.451 137.655 307.526 137.725 307.619 137.781C307.713 137.837 307.862 137.902 308.067 137.977C308.273 138.042 308.553 138.126 308.907 138.229C309.346 138.35 309.724 138.486 310.041 138.635C310.359 138.784 310.611 138.962 310.797 139.167C310.947 139.326 311.059 139.512 311.133 139.727C311.208 139.932 311.245 140.156 311.245 140.399C311.245 140.875 311.11 141.3 310.839 141.673C310.578 142.037 310.214 142.326 309.747 142.541C309.281 142.746 308.749 142.849 308.151 142.849ZM313.193 142.709V133.399H315.433V142.709H313.193ZM311.877 137.235V135.275H316.875V137.235H311.877ZM320.935 142.849C320.207 142.849 319.563 142.732 319.003 142.499C318.452 142.266 318.013 141.953 317.687 141.561L319.045 140.385C319.334 140.674 319.661 140.889 320.025 141.029C320.389 141.16 320.734 141.225 321.061 141.225C321.191 141.225 321.308 141.211 321.411 141.183C321.513 141.155 321.597 141.118 321.663 141.071C321.737 141.015 321.793 140.954 321.831 140.889C321.868 140.814 321.887 140.73 321.887 140.637C321.887 140.45 321.803 140.306 321.635 140.203C321.551 140.156 321.411 140.1 321.215 140.035C321.019 139.97 320.767 139.895 320.459 139.811C320.02 139.699 319.637 139.568 319.311 139.419C318.993 139.26 318.732 139.078 318.527 138.873C318.34 138.677 318.195 138.462 318.093 138.229C317.99 137.986 317.939 137.716 317.939 137.417C317.939 137.072 318.018 136.759 318.177 136.479C318.345 136.199 318.564 135.956 318.835 135.751C319.115 135.546 319.432 135.392 319.787 135.289C320.151 135.177 320.524 135.121 320.907 135.121C321.317 135.121 321.709 135.168 322.083 135.261C322.456 135.354 322.801 135.485 323.119 135.653C323.445 135.821 323.735 136.022 323.987 136.255L322.811 137.571C322.643 137.412 322.451 137.272 322.237 137.151C322.031 137.02 321.817 136.918 321.593 136.843C321.369 136.768 321.163 136.731 320.977 136.731C320.837 136.731 320.711 136.745 320.599 136.773C320.496 136.792 320.407 136.829 320.333 136.885C320.258 136.932 320.202 136.992 320.165 137.067C320.127 137.132 320.109 137.212 320.109 137.305C320.109 137.398 320.132 137.487 320.179 137.571C320.235 137.655 320.309 137.725 320.403 137.781C320.496 137.837 320.645 137.902 320.851 137.977C321.056 138.042 321.336 138.126 321.691 138.229C322.129 138.35 322.507 138.486 322.825 138.635C323.142 138.784 323.394 138.962 323.581 139.167C323.73 139.326 323.842 139.512 323.917 139.727C323.991 139.932 324.029 140.156 324.029 140.399C324.029 140.875 323.893 141.3 323.623 141.673C323.361 142.037 322.997 142.326 322.531 142.541C322.064 142.746 321.532 142.849 320.935 142.849ZM332.659 142.863C332.015 142.863 331.441 142.7 330.937 142.373C330.442 142.037 330.05 141.58 329.761 141.001C329.471 140.413 329.327 139.746 329.327 138.999C329.327 138.252 329.471 137.59 329.761 137.011C330.05 136.423 330.447 135.961 330.951 135.625C331.455 135.289 332.033 135.121 332.687 135.121C333.023 135.121 333.345 135.172 333.653 135.275C333.961 135.378 334.241 135.518 334.493 135.695C334.745 135.872 334.95 136.078 335.109 136.311C335.267 136.535 335.361 136.768 335.389 137.011L334.857 137.137V132.349H337.111V142.709H335.025L334.899 141.015L335.347 141.085C335.319 141.318 335.225 141.542 335.067 141.757C334.917 141.972 334.721 142.163 334.479 142.331C334.236 142.49 333.956 142.616 333.639 142.709C333.331 142.812 333.004 142.863 332.659 142.863ZM333.233 141.001C333.578 141.001 333.877 140.917 334.129 140.749C334.381 140.581 334.572 140.348 334.703 140.049C334.843 139.75 334.913 139.4 334.913 138.999C334.913 138.588 334.843 138.234 334.703 137.935C334.572 137.636 334.381 137.403 334.129 137.235C333.877 137.067 333.578 136.983 333.233 136.983C332.887 136.983 332.589 137.067 332.337 137.235C332.094 137.403 331.903 137.636 331.763 137.935C331.623 138.234 331.553 138.588 331.553 138.999C331.553 139.4 331.623 139.75 331.763 140.049C331.903 140.348 332.094 140.581 332.337 140.749C332.589 140.917 332.887 141.001 333.233 141.001ZM342.547 142.849C341.725 142.849 341.011 142.686 340.405 142.359C339.798 142.023 339.327 141.57 338.991 141.001C338.655 140.422 338.487 139.764 338.487 139.027C338.487 138.458 338.58 137.935 338.767 137.459C338.953 136.983 339.215 136.572 339.551 136.227C339.887 135.872 340.283 135.602 340.741 135.415C341.207 135.219 341.716 135.121 342.267 135.121C342.789 135.121 343.265 135.214 343.695 135.401C344.133 135.588 344.511 135.849 344.829 136.185C345.146 136.521 345.389 136.918 345.557 137.375C345.725 137.832 345.799 138.332 345.781 138.873L345.767 139.475H339.845L339.523 138.215H343.947L343.709 138.481V138.201C343.69 137.968 343.615 137.762 343.485 137.585C343.363 137.398 343.2 137.254 342.995 137.151C342.789 137.048 342.556 136.997 342.295 136.997C341.931 136.997 341.618 137.072 341.357 137.221C341.105 137.361 340.913 137.571 340.783 137.851C340.652 138.122 340.587 138.458 340.587 138.859C340.587 139.27 340.671 139.629 340.839 139.937C341.016 140.236 341.268 140.469 341.595 140.637C341.931 140.805 342.327 140.889 342.785 140.889C343.102 140.889 343.382 140.842 343.625 140.749C343.877 140.656 344.147 140.497 344.437 140.273L345.487 141.757C345.197 142.009 344.889 142.214 344.563 142.373C344.236 142.532 343.9 142.648 343.555 142.723C343.219 142.807 342.883 142.849 342.547 142.849ZM350.47 142.849C349.751 142.849 349.107 142.681 348.538 142.345C347.969 142.009 347.516 141.552 347.18 140.973C346.853 140.385 346.69 139.722 346.69 138.985C346.69 138.248 346.853 137.59 347.18 137.011C347.516 136.423 347.969 135.961 348.538 135.625C349.107 135.289 349.751 135.121 350.47 135.121C351.133 135.121 351.739 135.238 352.29 135.471C352.85 135.704 353.293 136.031 353.62 136.451L352.402 137.907C352.271 137.758 352.117 137.618 351.94 137.487C351.763 137.356 351.567 137.254 351.352 137.179C351.137 137.104 350.913 137.067 350.68 137.067C350.325 137.067 350.013 137.151 349.742 137.319C349.471 137.478 349.261 137.702 349.112 137.991C348.963 138.28 348.888 138.612 348.888 138.985C348.888 139.34 348.963 139.662 349.112 139.951C349.271 140.24 349.485 140.469 349.756 140.637C350.027 140.805 350.335 140.889 350.68 140.889C350.923 140.889 351.147 140.861 351.352 140.805C351.557 140.74 351.744 140.646 351.912 140.525C352.089 140.404 352.253 140.254 352.402 140.077L353.606 141.547C353.289 141.948 352.845 142.266 352.276 142.499C351.716 142.732 351.114 142.849 350.47 142.849ZM354.837 142.709V135.275H356.965L357.063 137.697L356.643 137.235C356.755 136.834 356.937 136.474 357.189 136.157C357.45 135.84 357.753 135.588 358.099 135.401C358.444 135.214 358.813 135.121 359.205 135.121C359.373 135.121 359.527 135.135 359.667 135.163C359.816 135.191 359.951 135.224 360.073 135.261L359.457 137.739C359.354 137.674 359.214 137.622 359.037 137.585C358.869 137.538 358.691 137.515 358.505 137.515C358.299 137.515 358.108 137.552 357.931 137.627C357.753 137.692 357.604 137.79 357.483 137.921C357.361 138.052 357.263 138.206 357.189 138.383C357.123 138.56 357.091 138.761 357.091 138.985V142.709H354.837ZM364.435 142.849C363.614 142.849 362.9 142.686 362.293 142.359C361.687 142.023 361.215 141.57 360.879 141.001C360.543 140.422 360.375 139.764 360.375 139.027C360.375 138.458 360.469 137.935 360.655 137.459C360.842 136.983 361.103 136.572 361.439 136.227C361.775 135.872 362.172 135.602 362.629 135.415C363.096 135.219 363.605 135.121 364.155 135.121C364.678 135.121 365.154 135.214 365.583 135.401C366.022 135.588 366.4 135.849 366.717 136.185C367.035 136.521 367.277 136.918 367.445 137.375C367.613 137.832 367.688 138.332 367.669 138.873L367.655 139.475H361.733L361.411 138.215H365.835L365.597 138.481V138.201C365.579 137.968 365.504 137.762 365.373 137.585C365.252 137.398 365.089 137.254 364.883 137.151C364.678 137.048 364.445 136.997 364.183 136.997C363.819 136.997 363.507 137.072 363.245 137.221C362.993 137.361 362.802 137.571 362.671 137.851C362.541 138.122 362.475 138.458 362.475 138.859C362.475 139.27 362.559 139.629 362.727 139.937C362.905 140.236 363.157 140.469 363.483 140.637C363.819 140.805 364.216 140.889 364.673 140.889C364.991 140.889 365.271 140.842 365.513 140.749C365.765 140.656 366.036 140.497 366.325 140.273L367.375 141.757C367.086 142.009 366.778 142.214 366.451 142.373C366.125 142.532 365.789 142.648 365.443 142.723C365.107 142.807 364.771 142.849 364.435 142.849ZM371.841 142.835C371.215 142.835 370.655 142.672 370.161 142.345C369.675 142.009 369.288 141.552 368.999 140.973C368.709 140.385 368.565 139.722 368.565 138.985C368.565 138.229 368.709 137.562 368.999 136.983C369.288 136.404 369.685 135.952 370.189 135.625C370.693 135.289 371.267 135.121 371.911 135.121C372.265 135.121 372.587 135.172 372.877 135.275C373.175 135.378 373.437 135.522 373.661 135.709C373.885 135.886 374.076 136.096 374.235 136.339C374.393 136.572 374.51 136.824 374.585 137.095L374.123 137.039V135.275H376.349V142.709H374.081V140.917L374.585 140.903C374.51 141.164 374.389 141.412 374.221 141.645C374.053 141.878 373.847 142.084 373.605 142.261C373.362 142.438 373.091 142.578 372.793 142.681C372.494 142.784 372.177 142.835 371.841 142.835ZM372.457 140.945C372.802 140.945 373.101 140.866 373.353 140.707C373.605 140.548 373.801 140.324 373.941 140.035C374.081 139.736 374.151 139.386 374.151 138.985C374.151 138.584 374.081 138.238 373.941 137.949C373.801 137.65 373.605 137.422 373.353 137.263C373.101 137.095 372.802 137.011 372.457 137.011C372.121 137.011 371.827 137.095 371.575 137.263C371.332 137.422 371.141 137.65 371.001 137.949C370.861 138.238 370.791 138.584 370.791 138.985C370.791 139.386 370.861 139.736 371.001 140.035C371.141 140.324 371.332 140.548 371.575 140.707C371.827 140.866 372.121 140.945 372.457 140.945ZM380.831 142.849C380.103 142.849 379.459 142.732 378.899 142.499C378.348 142.266 377.91 141.953 377.583 141.561L378.941 140.385C379.23 140.674 379.557 140.889 379.921 141.029C380.285 141.16 380.63 141.225 380.957 141.225C381.088 141.225 381.204 141.211 381.307 141.183C381.41 141.155 381.494 141.118 381.559 141.071C381.634 141.015 381.69 140.954 381.727 140.889C381.764 140.814 381.783 140.73 381.783 140.637C381.783 140.45 381.699 140.306 381.531 140.203C381.447 140.156 381.307 140.1 381.111 140.035C380.915 139.97 380.663 139.895 380.355 139.811C379.916 139.699 379.534 139.568 379.207 139.419C378.89 139.26 378.628 139.078 378.423 138.873C378.236 138.677 378.092 138.462 377.989 138.229C377.886 137.986 377.835 137.716 377.835 137.417C377.835 137.072 377.914 136.759 378.073 136.479C378.241 136.199 378.46 135.956 378.731 135.751C379.011 135.546 379.328 135.392 379.683 135.289C380.047 135.177 380.42 135.121 380.803 135.121C381.214 135.121 381.606 135.168 381.979 135.261C382.352 135.354 382.698 135.485 383.015 135.653C383.342 135.821 383.631 136.022 383.883 136.255L382.707 137.571C382.539 137.412 382.348 137.272 382.133 137.151C381.928 137.02 381.713 136.918 381.489 136.843C381.265 136.768 381.06 136.731 380.873 136.731C380.733 136.731 380.607 136.745 380.495 136.773C380.392 136.792 380.304 136.829 380.229 136.885C380.154 136.932 380.098 136.992 380.061 137.067C380.024 137.132 380.005 137.212 380.005 137.305C380.005 137.398 380.028 137.487 380.075 137.571C380.131 137.655 380.206 137.725 380.299 137.781C380.392 137.837 380.542 137.902 380.747 137.977C380.952 138.042 381.232 138.126 381.587 138.229C382.026 138.35 382.404 138.486 382.721 138.635C383.038 138.784 383.29 138.962 383.477 139.167C383.626 139.326 383.738 139.512 383.813 139.727C383.888 139.932 383.925 140.156 383.925 140.399C383.925 140.875 383.79 141.3 383.519 141.673C383.258 142.037 382.894 142.326 382.427 142.541C381.96 142.746 381.428 142.849 380.831 142.849ZM388.799 142.849C387.977 142.849 387.263 142.686 386.657 142.359C386.05 142.023 385.579 141.57 385.243 141.001C384.907 140.422 384.739 139.764 384.739 139.027C384.739 138.458 384.832 137.935 385.019 137.459C385.205 136.983 385.467 136.572 385.803 136.227C386.139 135.872 386.535 135.602 386.993 135.415C387.459 135.219 387.968 135.121 388.519 135.121C389.041 135.121 389.517 135.214 389.947 135.401C390.385 135.588 390.763 135.849 391.081 136.185C391.398 136.521 391.641 136.918 391.809 137.375C391.977 137.832 392.051 138.332 392.033 138.873L392.019 139.475H386.097L385.775 138.215H390.199L389.961 138.481V138.201C389.942 137.968 389.867 137.762 389.737 137.585C389.615 137.398 389.452 137.254 389.247 137.151C389.041 137.048 388.808 136.997 388.547 136.997C388.183 136.997 387.87 137.072 387.609 137.221C387.357 137.361 387.165 137.571 387.035 137.851C386.904 138.122 386.839 138.458 386.839 138.859C386.839 139.27 386.923 139.629 387.091 139.937C387.268 140.236 387.52 140.469 387.847 140.637C388.183 140.805 388.579 140.889 389.037 140.889C389.354 140.889 389.634 140.842 389.877 140.749C390.129 140.656 390.399 140.497 390.689 140.273L391.739 141.757C391.449 142.009 391.141 142.214 390.815 142.373C390.488 142.532 390.152 142.648 389.807 142.723C389.471 142.807 389.135 142.849 388.799 142.849Z" fill="#50DBD9"/>
</g>

<g class="elastic-workload-tip-1">
<line x1="51.5" y1="261.757" x2="51.5" y2="197.709" stroke="white" stroke-dasharray="2 2"/>
<g filter="url(#filter4_d_9851_18761)">
<rect x="48" y="242.709" width="7" height="20" rx="3.5" fill="#509DEA"/>
</g>
<g filter="url(#filter5_d_9851_18761)">
<rect x="48" y="191.709" width="7" height="13" rx="3.5" fill="#509DEA"/>
</g>
<rect x="4.5" y="161.209" width="94" height="35" rx="17.5" fill="black" stroke="#509DEA"/>
<path d="M18.84 183.709V182.127L24.104 175.127L24.93 176.093H19.204V173.909H26.596V175.477L21.36 182.491L20.52 181.623H26.75V183.709H18.84ZM32.0243 183.849C31.2029 183.849 30.4889 183.686 29.8823 183.359C29.2756 183.023 28.8043 182.57 28.4683 182.001C28.1323 181.422 27.9643 180.764 27.9643 180.027C27.9643 179.458 28.0576 178.935 28.2443 178.459C28.4309 177.983 28.6923 177.572 29.0283 177.227C29.3643 176.872 29.7609 176.602 30.2183 176.415C30.6849 176.219 31.1936 176.121 31.7443 176.121C32.2669 176.121 32.7429 176.214 33.1723 176.401C33.6109 176.588 33.9889 176.849 34.3063 177.185C34.6236 177.521 34.8663 177.918 35.0343 178.375C35.2023 178.832 35.2769 179.332 35.2583 179.873L35.2443 180.475H29.3223L29.0003 179.215H33.4243L33.1863 179.481V179.201C33.1676 178.968 33.0929 178.762 32.9623 178.585C32.8409 178.398 32.6776 178.254 32.4723 178.151C32.2669 178.048 32.0336 177.997 31.7723 177.997C31.4083 177.997 31.0956 178.072 30.8343 178.221C30.5823 178.361 30.3909 178.571 30.2603 178.851C30.1296 179.122 30.0643 179.458 30.0643 179.859C30.0643 180.27 30.1483 180.629 30.3163 180.937C30.4936 181.236 30.7456 181.469 31.0723 181.637C31.4083 181.805 31.8049 181.889 32.2623 181.889C32.5796 181.889 32.8596 181.842 33.1023 181.749C33.3543 181.656 33.6249 181.497 33.9143 181.273L34.9643 182.757C34.6749 183.009 34.3669 183.214 34.0403 183.373C33.7136 183.532 33.3776 183.648 33.0323 183.723C32.6963 183.807 32.3603 183.849 32.0243 183.849ZM36.6854 183.709V176.275H38.8134L38.9114 178.697L38.4914 178.235C38.6034 177.834 38.7854 177.474 39.0374 177.157C39.2987 176.84 39.6021 176.588 39.9474 176.401C40.2927 176.214 40.6614 176.121 41.0534 176.121C41.2214 176.121 41.3754 176.135 41.5154 176.163C41.6647 176.191 41.8001 176.224 41.9214 176.261L41.3054 178.739C41.2027 178.674 41.0627 178.622 40.8854 178.585C40.7174 178.538 40.5401 178.515 40.3534 178.515C40.1481 178.515 39.9567 178.552 39.7794 178.627C39.6021 178.692 39.4527 178.79 39.3314 178.921C39.2101 179.052 39.1121 179.206 39.0374 179.383C38.9721 179.56 38.9394 179.761 38.9394 179.985V183.709H36.6854ZM46.242 183.849C45.4674 183.849 44.7767 183.681 44.17 183.345C43.5727 183.009 43.0967 182.552 42.742 181.973C42.3967 181.394 42.224 180.732 42.224 179.985C42.224 179.238 42.3967 178.576 42.742 177.997C43.0967 177.418 43.5727 176.961 44.17 176.625C44.7767 176.289 45.4674 176.121 46.242 176.121C47.0167 176.121 47.7027 176.289 48.3 176.625C48.9067 176.961 49.3827 177.418 49.728 177.997C50.0734 178.576 50.246 179.238 50.246 179.985C50.246 180.732 50.0734 181.394 49.728 181.973C49.3827 182.552 48.9067 183.009 48.3 183.345C47.7027 183.681 47.0167 183.849 46.242 183.849ZM46.242 181.917C46.578 181.917 46.8767 181.833 47.138 181.665C47.3994 181.497 47.6047 181.268 47.754 180.979C47.9034 180.69 47.9734 180.358 47.964 179.985C47.9734 179.612 47.9034 179.28 47.754 178.991C47.6047 178.692 47.3994 178.459 47.138 178.291C46.8767 178.123 46.578 178.039 46.242 178.039C45.906 178.039 45.6027 178.123 45.332 178.291C45.0707 178.459 44.8654 178.692 44.716 178.991C44.5667 179.28 44.4967 179.612 44.506 179.985C44.4967 180.358 44.5667 180.69 44.716 180.979C44.8654 181.268 45.0707 181.497 45.332 181.665C45.6027 181.833 45.906 181.917 46.242 181.917ZM59.4572 183.849C58.7385 183.849 58.0945 183.681 57.5252 183.345C56.9558 183.009 56.5032 182.552 56.1672 181.973C55.8405 181.385 55.6772 180.722 55.6772 179.985C55.6772 179.248 55.8405 178.59 56.1672 178.011C56.5032 177.423 56.9558 176.961 57.5252 176.625C58.0945 176.289 58.7385 176.121 59.4572 176.121C60.1198 176.121 60.7265 176.238 61.2772 176.471C61.8372 176.704 62.2805 177.031 62.6072 177.451L61.3892 178.907C61.2585 178.758 61.1045 178.618 60.9272 178.487C60.7498 178.356 60.5538 178.254 60.3392 178.179C60.1245 178.104 59.9005 178.067 59.6672 178.067C59.3125 178.067 58.9998 178.151 58.7292 178.319C58.4585 178.478 58.2485 178.702 58.0992 178.991C57.9498 179.28 57.8752 179.612 57.8752 179.985C57.8752 180.34 57.9498 180.662 58.0992 180.951C58.2578 181.24 58.4725 181.469 58.7432 181.637C59.0138 181.805 59.3218 181.889 59.6672 181.889C59.9098 181.889 60.1338 181.861 60.3392 181.805C60.5445 181.74 60.7312 181.646 60.8992 181.525C61.0765 181.404 61.2398 181.254 61.3892 181.077L62.5932 182.547C62.2758 182.948 61.8325 183.266 61.2632 183.499C60.7032 183.732 60.1012 183.849 59.4572 183.849ZM67.3241 183.849C66.5494 183.849 65.8587 183.681 65.2521 183.345C64.6547 183.009 64.1787 182.552 63.8241 181.973C63.4787 181.394 63.3061 180.732 63.3061 179.985C63.3061 179.238 63.4787 178.576 63.8241 177.997C64.1787 177.418 64.6547 176.961 65.2521 176.625C65.8587 176.289 66.5494 176.121 67.3241 176.121C68.0987 176.121 68.7847 176.289 69.3821 176.625C69.9887 176.961 70.4647 177.418 70.8101 177.997C71.1554 178.576 71.3281 179.238 71.3281 179.985C71.3281 180.732 71.1554 181.394 70.8101 181.973C70.4647 182.552 69.9887 183.009 69.3821 183.345C68.7847 183.681 68.0987 183.849 67.3241 183.849ZM67.3241 181.917C67.6601 181.917 67.9587 181.833 68.2201 181.665C68.4814 181.497 68.6867 181.268 68.8361 180.979C68.9854 180.69 69.0554 180.358 69.0461 179.985C69.0554 179.612 68.9854 179.28 68.8361 178.991C68.6867 178.692 68.4814 178.459 68.2201 178.291C67.9587 178.123 67.6601 178.039 67.3241 178.039C66.9881 178.039 66.6847 178.123 66.4141 178.291C66.1527 178.459 65.9474 178.692 65.7981 178.991C65.6487 179.28 65.5787 179.612 65.5881 179.985C65.5787 180.358 65.6487 180.69 65.7981 180.979C65.9474 181.268 66.1527 181.497 66.4141 181.665C66.6847 181.833 66.9881 181.917 67.3241 181.917ZM75.2988 183.849C74.5708 183.849 73.9268 183.732 73.3668 183.499C72.8162 183.266 72.3775 182.953 72.0508 182.561L73.4088 181.385C73.6982 181.674 74.0248 181.889 74.3888 182.029C74.7528 182.16 75.0982 182.225 75.4248 182.225C75.5555 182.225 75.6722 182.211 75.7748 182.183C75.8775 182.155 75.9615 182.118 76.0268 182.071C76.1015 182.015 76.1575 181.954 76.1948 181.889C76.2322 181.814 76.2508 181.73 76.2508 181.637C76.2508 181.45 76.1668 181.306 75.9988 181.203C75.9148 181.156 75.7748 181.1 75.5788 181.035C75.3828 180.97 75.1308 180.895 74.8228 180.811C74.3842 180.699 74.0015 180.568 73.6748 180.419C73.3575 180.26 73.0962 180.078 72.8908 179.873C72.7042 179.677 72.5595 179.462 72.4568 179.229C72.3542 178.986 72.3028 178.716 72.3028 178.417C72.3028 178.072 72.3822 177.759 72.5408 177.479C72.7088 177.199 72.9282 176.956 73.1988 176.751C73.4788 176.546 73.7962 176.392 74.1508 176.289C74.5148 176.177 74.8882 176.121 75.2708 176.121C75.6815 176.121 76.0735 176.168 76.4468 176.261C76.8202 176.354 77.1655 176.485 77.4828 176.653C77.8095 176.821 78.0988 177.022 78.3508 177.255L77.1748 178.571C77.0068 178.412 76.8155 178.272 76.6008 178.151C76.3955 178.02 76.1808 177.918 75.9568 177.843C75.7328 177.768 75.5275 177.731 75.3408 177.731C75.2008 177.731 75.0748 177.745 74.9628 177.773C74.8602 177.792 74.7715 177.829 74.6968 177.885C74.6222 177.932 74.5662 177.992 74.5288 178.067C74.4915 178.132 74.4728 178.212 74.4728 178.305C74.4728 178.398 74.4962 178.487 74.5428 178.571C74.5988 178.655 74.6735 178.725 74.7668 178.781C74.8602 178.837 75.0095 178.902 75.2148 178.977C75.4202 179.042 75.7002 179.126 76.0548 179.229C76.4935 179.35 76.8715 179.486 77.1888 179.635C77.5062 179.784 77.7582 179.962 77.9448 180.167C78.0942 180.326 78.2062 180.512 78.2808 180.727C78.3555 180.932 78.3928 181.156 78.3928 181.399C78.3928 181.875 78.2575 182.3 77.9868 182.673C77.7255 183.037 77.3615 183.326 76.8948 183.541C76.4282 183.746 75.8962 183.849 75.2988 183.849ZM80.3405 183.709V174.399H82.5805V183.709H80.3405ZM79.0245 178.235V176.275H84.0225V178.235H79.0245Z" fill="#11A6ED"/>
</g>

<defs>
<filter id="filter0_d_9851_18761" x="184.578" y="234.042" width="23" height="36.6665" filterUnits="userSpaceOnUse" color-interpolation-filters="sRGB">
<feFlood flood-opacity="0" result="BackgroundImageFix"/>
<feColorMatrix in="SourceAlpha" type="matrix" values="0 0 0 0 0 0 0 0 0 0 0 0 0 0 0 0 0 0 127 0" result="hardAlpha"/>
<feMorphology radius="4" operator="dilate" in="SourceAlpha" result="effect1_dropShadow_9851_18761"/>
<feOffset/>
<feGaussianBlur stdDeviation="2"/>
<feComposite in2="hardAlpha" operator="out"/>
<feColorMatrix type="matrix" values="0 0 0 0 0 0 0 0 0 0 0 0 0 0 0 0 0 0 0.25 0"/>
<feBlend mode="normal" in2="BackgroundImageFix" result="effect1_dropShadow_9851_18761"/>
<feBlend mode="normal" in="SourceGraphic" in2="effect1_dropShadow_9851_18761" result="shape"/>
</filter>
<filter id="filter1_d_9851_18761" x="185" y="1" width="23" height="54" filterUnits="userSpaceOnUse" color-interpolation-filters="sRGB">
<feFlood flood-opacity="0" result="BackgroundImageFix"/>
<feColorMatrix in="SourceAlpha" type="matrix" values="0 0 0 0 0 0 0 0 0 0 0 0 0 0 0 0 0 0 127 0" result="hardAlpha"/>
<feMorphology radius="4" operator="dilate" in="SourceAlpha" result="effect1_dropShadow_9851_18761"/>
<feOffset/>
<feGaussianBlur stdDeviation="2"/>
<feComposite in2="hardAlpha" operator="out"/>
<feColorMatrix type="matrix" values="0 0 0 0 0 0 0 0 0 0 0 0 0 0 0 0 0 0 0.25 0"/>
<feBlend mode="normal" in2="BackgroundImageFix" result="effect1_dropShadow_9851_18761"/>
<feBlend mode="normal" in="SourceGraphic" in2="effect1_dropShadow_9851_18761" result="shape"/>
</filter>
<filter id="filter2_d_9851_18761" x="326" y="232.709" width="23" height="36.6667" filterUnits="userSpaceOnUse" color-interpolation-filters="sRGB">
<feFlood flood-opacity="0" result="BackgroundImageFix"/>
<feColorMatrix in="SourceAlpha" type="matrix" values="0 0 0 0 0 0 0 0 0 0 0 0 0 0 0 0 0 0 127 0" result="hardAlpha"/>
<feMorphology radius="4" operator="dilate" in="SourceAlpha" result="effect1_dropShadow_9851_18761"/>
<feOffset/>
<feGaussianBlur stdDeviation="2"/>
<feComposite in2="hardAlpha" operator="out"/>
<feColorMatrix type="matrix" values="0 0 0 0 0 0 0 0 0 0 0 0 0 0 0 0 0 0 0.25 0"/>
<feBlend mode="normal" in2="BackgroundImageFix" result="effect1_dropShadow_9851_18761"/>
<feBlend mode="normal" in="SourceGraphic" in2="effect1_dropShadow_9851_18761" result="shape"/>
</filter>
<filter id="filter3_d_9851_18761" x="326" y="127.209" width="23" height="43.5688" filterUnits="userSpaceOnUse" color-interpolation-filters="sRGB">
<feFlood flood-opacity="0" result="BackgroundImageFix"/>
<feColorMatrix in="SourceAlpha" type="matrix" values="0 0 0 0 0 0 0 0 0 0 0 0 0 0 0 0 0 0 127 0" result="hardAlpha"/>
<feMorphology radius="4" operator="dilate" in="SourceAlpha" result="effect1_dropShadow_9851_18761"/>
<feOffset/>
<feGaussianBlur stdDeviation="2"/>
<feComposite in2="hardAlpha" operator="out"/>
<feColorMatrix type="matrix" values="0 0 0 0 0 0 0 0 0 0 0 0 0 0 0 0 0 0 0.25 0"/>
<feBlend mode="normal" in2="BackgroundImageFix" result="effect1_dropShadow_9851_18761"/>
<feBlend mode="normal" in="SourceGraphic" in2="effect1_dropShadow_9851_18761" result="shape"/>
</filter>
<filter id="filter4_d_9851_18761" x="40" y="234.709" width="23" height="36" filterUnits="userSpaceOnUse" color-interpolation-filters="sRGB">
<feFlood flood-opacity="0" result="BackgroundImageFix"/>
<feColorMatrix in="SourceAlpha" type="matrix" values="0 0 0 0 0 0 0 0 0 0 0 0 0 0 0 0 0 0 127 0" result="hardAlpha"/>
<feMorphology radius="4" operator="dilate" in="SourceAlpha" result="effect1_dropShadow_9851_18761"/>
<feOffset/>
<feGaussianBlur stdDeviation="2"/>
<feComposite in2="hardAlpha" operator="out"/>
<feColorMatrix type="matrix" values="0 0 0 0 0 0 0 0 0 0 0 0 0 0 0 0 0 0 0.25 0"/>
<feBlend mode="normal" in2="BackgroundImageFix" result="effect1_dropShadow_9851_18761"/>
<feBlend mode="normal" in="SourceGraphic" in2="effect1_dropShadow_9851_18761" result="shape"/>
</filter>
<filter id="filter5_d_9851_18761" x="40" y="183.709" width="23" height="29" filterUnits="userSpaceOnUse" color-interpolation-filters="sRGB">
<feFlood flood-opacity="0" result="BackgroundImageFix"/>
<feColorMatrix in="SourceAlpha" type="matrix" values="0 0 0 0 0 0 0 0 0 0 0 0 0 0 0 0 0 0 127 0" result="hardAlpha"/>
<feMorphology radius="4" operator="dilate" in="SourceAlpha" result="effect1_dropShadow_9851_18761"/>
<feOffset/>
<feGaussianBlur stdDeviation="2"/>
<feComposite in2="hardAlpha" operator="out"/>
<feColorMatrix type="matrix" values="0 0 0 0 0 0 0 0 0 0 0 0 0 0 0 0 0 0 0.25 0"/>
<feBlend mode="normal" in2="BackgroundImageFix" result="effect1_dropShadow_9851_18761"/>
<feBlend mode="normal" in="SourceGraphic" in2="effect1_dropShadow_9851_18761" result="shape"/>
</filter>
<linearGradient id="paint0_linear_9851_18761" x1="-3.6125" y1="259.452" x2="526" y2="259.452" gradientUnits="userSpaceOnUse">
<stop stop-color="#9E4EC4"/>
<stop offset="1" stop-color="#50DBD9"/>
</linearGradient>
<linearGradient id="paint1_linear_9851_18761" x1="526.007" y1="259.452" x2="-3.6053" y2="259.452" gradientUnits="userSpaceOnUse">
<stop stop-color="#9E4EC4"/>
<stop offset="1" stop-color="#50DBD9"/>
</linearGradient>
<linearGradient id="paint2_linear_9851_18761" x1="302.806" y1="284.688" x2="353.063" y2="284.982" gradientUnits="userSpaceOnUse">
<stop stop-color="#0CB1F2"/>
<stop offset="0.135417" stop-color="#12C0C5"/>
<stop offset="0.40625" stop-color="#15A1E6"/>
<stop offset="0.640625" stop-color="#0CA6F2"/>
<stop offset="1" stop-color="#4ADDD6"/>
</linearGradient>
<linearGradient id="paint3_linear_9851_18761" x1="405.29" y1="288.616" x2="452.043" y2="288.616" gradientUnits="userSpaceOnUse">
<stop stop-color="#5D137D"/>
<stop offset="1" stop-color="#1AA8A8"/>
</linearGradient>
<linearGradient id="paint4_linear_9851_18761" x1="1.99998" y1="-69.2508" x2="523.587" y2="-69.0937" gradientUnits="userSpaceOnUse">
<stop stop-color="#0CB1F2"/>
<stop offset="0.135417" stop-color="#12C0C5"/>
<stop offset="0.40625" stop-color="#15A1E6"/>
<stop offset="0.640625" stop-color="#0CA6F2"/>
<stop offset="1" stop-color="#50DBD9"/>
</linearGradient>
</defs>
</svg>
