<svg width="128" height="124" viewBox="0 0 128 124" fill="none" xmlns="http://www.w3.org/2000/svg">
<path fill-rule="evenodd" clip-rule="evenodd" d="M62.1344 35.4393C62.7554 35.4262 63.3772 35.4226 63.9996 35.4286C64.6219 35.4229 65.2436 35.4267 65.8646 35.4401L65.8216 37.4396C65.2211 37.4267 64.6198 37.423 64.018 37.4285L63.9992 37.4287L63.9803 37.4285C63.3785 37.4227 62.7772 37.4262 62.1766 37.4389L62.1344 35.4393ZM69.5893 35.635L69.4234 37.6281C70.6233 37.7279 71.8183 37.8646 73.0068 38.0376L73.2949 36.0585C72.0659 35.8795 70.8301 35.7382 69.5893 35.635ZM76.9674 36.7093L76.5579 38.6669C77.7353 38.9132 78.9043 39.1958 80.0631 39.514L80.5928 37.5854C79.3942 37.2562 78.1852 36.9641 76.9674 36.7093ZM84.157 38.6841L83.5089 40.5762C84.6458 40.9656 85.7706 41.3904 86.8816 41.85L87.6462 40.0019C86.4967 39.5264 85.3331 39.087 84.157 38.6841ZM91.0464 41.5346L90.1679 43.3314C90.7074 43.5952 91.243 43.8675 91.7745 44.1483C92.3 44.426 92.8204 44.7114 93.3355 45.0044L94.3243 43.2659C93.7912 42.9627 93.2527 42.6674 92.7089 42.38C92.1589 42.0894 91.6047 41.8076 91.0464 41.5346ZM97.4684 45.1863L96.3732 46.8598C97.368 47.5109 98.3402 48.1917 99.2885 48.901L100.486 47.2994C99.5047 46.5651 98.4982 45.8603 97.4684 45.1863ZM103.366 49.598L102.069 51.1209C102.973 51.8906 103.852 52.6879 104.703 53.5115L106.094 52.0739C105.212 51.2208 104.302 50.3951 103.366 49.598ZM108.659 54.7183L107.18 56.0643C107.978 56.9413 108.747 57.8435 109.487 58.7697L111.05 57.5214C110.283 56.5616 109.486 55.6269 108.659 54.7183ZM113.255 60.4725L112.62 60.916L112.609 60.9089C112.603 60.9179 112.597 60.9269 112.592 60.9359L111.615 61.6173C111.704 61.7445 111.792 61.8721 111.88 62C111.792 62.128 111.704 62.2555 111.615 62.3827L112.592 63.0642C112.597 63.0731 112.603 63.0821 112.609 63.0911L112.62 63.084L113.255 63.5275C113.607 63.0242 113.95 62.515 114.285 62C113.95 61.485 113.607 60.9758 113.255 60.4725ZM111.05 66.4787L109.487 65.2304C108.747 66.1565 107.978 67.0587 107.18 67.9357L108.659 69.2817C109.486 68.3732 110.283 67.4384 111.05 66.4787ZM106.094 71.9261L104.703 70.4885C103.852 71.3121 102.973 72.1094 102.069 72.8792L103.366 74.402C104.302 73.6049 105.212 72.7792 106.094 71.9261ZM100.486 76.7006L99.2885 75.099C98.3402 75.8083 97.368 76.4891 96.3732 77.1402L97.4684 78.8137C98.4982 78.1397 99.5047 77.4349 100.486 76.7006ZM94.3243 80.7341L93.3355 78.9956C92.8204 79.2886 92.3 79.574 91.7745 79.8517C91.243 80.1325 90.7074 80.4049 90.1679 80.6687L91.0464 82.4654C91.6047 82.1924 92.1589 81.9106 92.7089 81.62C93.2527 81.3327 93.7912 81.0373 94.3243 80.7341ZM87.6462 83.9981L86.8816 82.15C85.7706 82.6096 84.6458 83.0344 83.5089 83.4238L84.157 85.3159C85.3331 84.913 86.4967 84.4736 87.6462 83.9981ZM80.5928 86.4146L80.0631 84.486C78.9043 84.8043 77.7353 85.0868 76.5579 85.3331L76.9674 87.2907C78.1852 87.036 79.3942 86.7438 80.5928 86.4146ZM73.2949 87.9416L73.0068 85.9624C71.8183 86.1355 70.6233 86.2721 69.4234 86.372L69.5893 88.3651C70.8301 88.2618 72.0659 88.1205 73.2949 87.9416ZM65.8646 88.5599L65.8216 86.5604C65.2211 86.5733 64.6198 86.5771 64.018 86.5715L63.9992 86.5714L63.9803 86.5715C63.3785 86.5773 62.7772 86.5738 62.1766 86.5611L62.1344 88.5607C62.7554 88.5738 63.3772 88.5774 63.9996 88.5714C64.6219 88.5772 65.2436 88.5733 65.8646 88.5599ZM58.4094 88.3672L58.5745 86.374C57.3746 86.2746 56.1795 86.1383 54.9909 85.9656L54.7033 87.9448C55.9325 88.1234 57.1685 88.2644 58.4094 88.3672ZM51.0303 87.2949L51.4394 85.3372C50.2619 85.0911 49.0927 84.8088 47.9338 84.4908L47.4045 86.4195C48.6032 86.7485 49.8125 87.0404 51.0303 87.2949ZM43.8398 85.3213L44.4877 83.4291C43.3507 83.0398 42.2258 82.6151 41.1147 82.1556L40.3503 84.0037C41.4998 84.4792 42.6636 84.9185 43.8398 85.3213ZM36.9497 82.4711L37.8281 80.6743C37.2886 80.4105 36.753 80.1382 36.2214 79.8573C35.696 79.5797 35.1756 79.2942 34.6605 79.0012L33.6716 80.7396C34.2047 81.0429 34.7432 81.3383 35.287 81.6256C35.8371 81.9163 36.3914 82.1981 36.9497 82.4711ZM30.5273 78.8189L31.6227 77.1456C30.6279 76.4944 29.6557 75.8134 28.7075 75.104L27.5094 76.7054C28.4911 77.4399 29.4975 78.1448 30.5273 78.8189ZM24.6303 74.4062L25.9271 72.8836C25.0231 72.1137 24.1447 71.3161 23.2932 70.4923L21.9025 71.9295C22.7844 72.7829 23.6941 73.6089 24.6303 74.4062ZM19.3378 69.2843L20.8175 67.9387C20.0197 67.0615 19.2504 66.159 18.5108 65.2325L16.9477 66.4803C17.7141 67.4403 18.5113 68.3754 19.3378 69.2843ZM14.7433 63.5281L15.3803 63.0837L15.3905 63.0903C15.396 63.082 15.4014 63.0736 15.4069 63.0652L16.3836 62.3839C16.2947 62.2563 16.2062 62.1284 16.1183 62C16.2062 61.8717 16.2947 61.7437 16.3836 61.6161L15.4069 60.9348C15.4014 60.9264 15.396 60.9181 15.3905 60.9097L15.3803 60.9163L14.7433 60.4719C14.3921 60.9754 14.0489 61.4849 13.7139 62C14.0489 62.5152 14.3921 63.0246 14.7433 63.5281ZM16.9477 57.5198L18.5108 58.7675C19.2504 57.8411 20.0197 56.9386 20.8175 56.0613L19.3378 54.7157C18.5113 55.6246 17.7141 56.5597 16.9477 57.5198ZM21.9025 52.0705L23.2932 53.5078C24.1447 52.6839 25.0231 51.8864 25.9271 51.1164L24.6303 49.5938C23.6941 50.3911 22.7844 51.2171 21.9025 52.0705ZM27.5094 47.2946L28.7075 48.896C29.6557 48.1866 30.6279 47.5057 31.6227 46.8544L30.5273 45.1811C29.4975 45.8552 28.4911 46.5601 27.5094 47.2946ZM33.6716 43.2604L34.6605 44.9988C35.1756 44.7058 35.696 44.4204 36.2214 44.1427C36.753 43.8618 37.2886 43.5895 37.8281 43.3257L36.9497 41.529C36.3914 41.8019 35.8371 42.0837 35.287 42.3744C34.7432 42.6617 34.2047 42.9571 33.6716 43.2604ZM40.3503 39.9963L41.1147 41.8445C42.2258 41.3849 43.3507 40.9602 44.4877 40.5709L43.8398 38.6788C42.6636 39.0815 41.4998 39.5208 40.3503 39.9963ZM47.4045 37.5806L47.9338 39.5092C49.0927 39.1912 50.2619 38.9089 51.4394 38.6628L51.0303 36.7051C49.8125 36.9596 48.6032 37.2516 47.4045 37.5806ZM54.7033 36.0552L54.9909 38.0344C56.1795 37.8617 57.3746 37.7255 58.5745 37.626L58.4094 35.6328C57.1685 35.7357 55.9325 35.8766 54.7033 36.0552Z" fill="white"/>
<path fill-rule="evenodd" clip-rule="evenodd" d="M63.9996 80.2829C74.5187 80.2829 82.9368 72.038 82.9368 62C82.9368 51.9621 74.5187 43.7172 63.9996 43.7172C53.4806 43.7172 45.0625 51.9621 45.0625 62C45.0625 72.038 53.4806 80.2829 63.9996 80.2829ZM84.9368 62C84.9368 73.2019 75.5629 82.2829 63.9996 82.2829C52.4364 82.2829 43.0625 73.2019 43.0625 62C43.0625 50.7981 52.4364 41.7172 63.9996 41.7172C75.5629 41.7172 84.9368 50.7981 84.9368 62Z" fill="white"/>
<path d="M64.0001 74.1786C70.9431 74.1786 76.5716 68.726 76.5716 62C76.5716 55.274 70.9431 49.8214 64.0001 49.8214C57.0571 49.8214 51.4287 55.274 51.4287 62C51.4287 68.726 57.0571 74.1786 64.0001 74.1786Z" fill="white"/>
</svg>
