<svg xmlns="http://www.w3.org/2000/svg" width="32" height="32" viewBox="0 0 32 32" fill="none">
	<rect width="32" height="32" rx="6" fill="url(#paint0_linear_3136_2760)" />
	<rect x="0.5" y="0.5" width="31" height="31" rx="5.5" stroke="white" stroke-opacity="0.5" />
	<path d="M24.9375 8H7.0625C5.9234 8 5 8.9234 5 10.0625V22.4375C5 23.5766 5.9234 24.5 7.0625 24.5H24.9375C26.0766 24.5 27 23.5766 27 22.4375V10.0625C27 8.9234 26.0766 8 24.9375 8ZM24.6797 22.4375H7.32031C7.25194 22.4375 7.18636 22.4103 7.13801 22.362C7.08966 22.3136 7.0625 22.2481 7.0625 22.1797V10.3203C7.0625 10.2519 7.08966 10.1864 7.13801 10.138C7.18636 10.0897 7.25194 10.0625 7.32031 10.0625H24.6797C24.7481 10.0625 24.8136 10.0897 24.862 10.138C24.9103 10.1864 24.9375 10.2519 24.9375 10.3203V22.1797C24.9375 22.2481 24.9103 22.3136 24.862 22.362C24.8136 22.4103 24.7481 22.4375 24.6797 22.4375ZM10.5 11.7813C9.55078 11.7813 8.78125 12.5508 8.78125 13.5C8.78125 14.4492 9.55078 15.2188 10.5 15.2188C11.4492 15.2188 12.2188 14.4492 12.2188 13.5C12.2188 12.5508 11.4492 11.7813 10.5 11.7813ZM9.125 20.375H22.875V16.9375L19.1146 13.1771C18.9132 12.9757 18.5868 12.9757 18.3854 13.1771L13.25 18.3125L11.5521 16.6146C11.3507 16.4132 11.0243 16.4132 10.8229 16.6146L9.125 18.3125V20.375Z" fill="white" />
	<defs>
		<linearGradient id="paint0_linear_3136_2760" x1="-12.046" y1="-12.9562" x2="30.903" y2="32.0767" gradientUnits="userSpaceOnUse">
			<stop stop-color="#0CB1F2" />
			<stop offset="0.135417" stop-color="#12C0C5" />
			<stop offset="0.28125" stop-color="#256CD4" />
			<stop offset="0.40625" stop-color="#15A1E6" />
			<stop offset="0.640625" stop-color="#0CA6F2" />
			<stop offset="0.915447" stop-color="#01ECB0" />
			<stop offset="1" stop-color="#0CF06E" />
		</linearGradient>
	</defs>
</svg>
