<svg width="640" height="170" viewBox="0 0 640 170" fill="none" xmlns="http://www.w3.org/2000/svg">
  <g id="main-axis">
    <path class="main-horizontal-line" d="M59 88H598.5" stroke="url(#paint0_linear_9881_871)" stroke-width="2"/>
    
    <g class="root-node">
        <rect x="0.5" y="69.5" width="94" height="35" rx="17.5" fill="black" stroke="#509DEA"/>
        <path xmlns="http://www.w3.org/2000/svg" d="M5.39473 92V82.2H7.74673L10.5327 88.374H10.6167L13.4167 82.2H15.7547V92H13.9207V85.49H13.8367L11.4567 90.656H9.69273L7.32673 85.49H7.24273V92H5.39473ZM19.4221 92.168C18.0361 92.168 17.1261 91.342 17.1261 90.138C17.1261 88.71 18.3301 87.856 20.4721 87.688L21.3681 87.604V87.408C21.3681 86.75 20.9761 86.33 20.3181 86.33C19.7301 86.33 19.2961 86.666 19.1981 87.24H17.2801C17.3501 85.798 18.6381 84.776 20.3601 84.776C22.1241 84.776 23.2441 85.868 23.2441 87.59V90.166C23.2441 90.488 23.4121 90.67 23.7061 90.67C23.7761 90.67 23.8181 90.656 23.9161 90.628L24.0421 92C23.8181 92.084 23.5381 92.126 23.2581 92.126C22.4461 92.126 21.8861 91.72 21.6901 91.048H21.6061C21.1161 91.79 20.3601 92.168 19.4221 92.168ZM19.1001 89.928C19.1001 90.334 19.3801 90.628 19.8981 90.628C20.7381 90.628 21.3681 89.928 21.3681 88.948V88.85L20.6821 88.906C19.7021 88.976 19.1001 89.34 19.1001 89.928ZM24.9679 92V84.944H26.8439V92H24.9679ZM25.9199 84.202C25.2759 84.202 24.7579 83.698 24.7579 83.04C24.7579 82.396 25.2759 81.892 25.9199 81.892C26.5499 81.892 27.0679 82.396 27.0679 83.04C27.0679 83.698 26.5499 84.202 25.9199 84.202ZM33.2403 87.996C33.2403 87.03 32.7223 86.456 31.8683 86.456C30.9863 86.456 30.4123 87.086 30.4123 88.08V92H28.5363V84.944H30.1743L30.2583 85.7H30.3423C30.7623 85.126 31.5043 84.776 32.4143 84.776C34.0523 84.776 35.1163 85.882 35.1163 87.618V92H33.2403V87.996ZM43.8608 92.168C41.7328 92.168 40.2348 90.964 40.1788 89.102H42.2648C42.3908 89.984 42.9788 90.46 43.8888 90.46C44.6868 90.46 45.3728 90.082 45.3728 89.368C45.3728 88.794 44.9668 88.36 44.0848 88.08L42.8108 87.702C41.2708 87.226 40.4448 86.246 40.4448 84.93C40.4448 83.208 41.8308 82.032 43.7488 82.032C45.6808 82.032 47.1508 83.264 47.1788 84.874H45.0928C45.0228 84.202 44.4488 83.74 43.7068 83.74C43.0068 83.74 42.4468 84.174 42.4468 84.804C42.4468 85.322 42.8248 85.672 43.7628 85.966L44.8548 86.302C46.5348 86.82 47.3748 87.898 47.3748 89.27C47.3748 91.09 45.8768 92.168 43.8608 92.168ZM52.2 92.168C50.086 92.168 48.546 90.614 48.546 88.486C48.546 86.358 50.044 84.776 52.172 84.776C54.118 84.776 55.602 86.134 55.602 88.262C55.602 88.472 55.588 88.724 55.56 88.934H50.492C50.59 89.956 51.248 90.6 52.186 90.6C52.872 90.6 53.446 90.264 53.6 89.774H55.532C55.294 91.16 53.908 92.168 52.2 92.168ZM50.534 87.66H53.628C53.544 86.862 52.998 86.316 52.186 86.316C51.388 86.316 50.73 86.862 50.534 87.66ZM59.6381 92.168C57.8461 92.168 56.5861 91.188 56.5441 89.802H58.4761C58.5461 90.362 58.9101 90.712 59.6381 90.712C60.1561 90.712 60.5901 90.53 60.5901 90.096C60.5901 89.76 60.3801 89.522 59.8341 89.354L58.7701 89.074C57.4261 88.724 56.7401 87.968 56.7401 86.96C56.7401 85.63 57.9301 84.776 59.5401 84.776C61.1361 84.776 62.2421 85.644 62.3541 86.918H60.4221C60.3521 86.498 59.9881 86.218 59.4981 86.218C59.0221 86.218 58.6721 86.47 58.6721 86.876C58.6721 87.198 58.8821 87.394 59.5121 87.562L60.5761 87.842C61.8641 88.164 62.5221 88.906 62.5221 89.942C62.5221 91.3 61.3461 92.168 59.6381 92.168ZM66.6791 92.168C64.8871 92.168 63.6271 91.188 63.5851 89.802H65.5171C65.5871 90.362 65.9511 90.712 66.6791 90.712C67.1971 90.712 67.6311 90.53 67.6311 90.096C67.6311 89.76 67.4211 89.522 66.8751 89.354L65.8111 89.074C64.4671 88.724 63.7811 87.968 63.7811 86.96C63.7811 85.63 64.9711 84.776 66.5811 84.776C68.1771 84.776 69.2831 85.644 69.3951 86.918H67.4631C67.3931 86.498 67.0291 86.218 66.5391 86.218C66.0631 86.218 65.7131 86.47 65.7131 86.876C65.7131 87.198 65.9231 87.394 66.5531 87.562L67.6171 87.842C68.9051 88.164 69.5631 88.906 69.5631 89.942C69.5631 91.3 68.3871 92.168 66.6791 92.168ZM71.0011 92V84.944H72.8771V92H71.0011ZM71.9531 84.202C71.3091 84.202 70.7911 83.698 70.7911 83.04C70.7911 82.396 71.3091 81.892 71.9531 81.892C72.5831 81.892 73.1011 82.396 73.1011 83.04C73.1011 83.698 72.5831 84.202 71.9531 84.202ZM78.0695 92.168C75.9415 92.168 74.3175 90.572 74.3175 88.472C74.3175 86.372 75.9415 84.776 78.0695 84.776C80.1975 84.776 81.8075 86.372 81.8075 88.472C81.8075 90.572 80.1975 92.168 78.0695 92.168ZM78.0695 90.474C79.1055 90.474 79.8615 89.634 79.8615 88.472C79.8615 87.31 79.1055 86.47 78.0695 86.47C77.0335 86.47 76.2775 87.31 76.2775 88.472C76.2775 89.634 77.0335 90.474 78.0695 90.474ZM87.9415 87.996C87.9415 87.03 87.4235 86.456 86.5695 86.456C85.6875 86.456 85.1135 87.086 85.1135 88.08V92H83.2375V84.944H84.8755L84.9595 85.7H85.0435C85.4635 85.126 86.2055 84.776 87.1155 84.776C88.7535 84.776 89.8175 85.882 89.8175 87.618V92H87.9415V87.996Z" fill="#509DEA"/>
    </g>
  </g>

  <g id="branch-1">
    <path class="connector-line" d="M137 88 L162.186 88 C181.516 88 197.186 72.33 197.186 53 C197.186 33.6701 212.856 18.0001 232.186 18.0001 L296 18" stroke="url(#paint1_linear_9881_871)" stroke-width="2"/>
    <g class="branch-group content-box">
        <g filter="url(#filter0_d_9881_871)">
            <rect x="169" y="77" width="7" height="20" rx="3.5" fill="#509DEA"/>
        </g>
        <rect x="263" width="95" height="36" rx="18" fill="url(#paint5_linear_9881_871)"/>
        <path xmlns="http://www.w3.org/2000/svg" d="M276.442 23V13.2H282.896V14.908H278.402V17.204H282.238V18.912H278.402V21.292H282.896V23H276.442ZM283.698 23L286.036 19.374L283.824 15.944H286.008L287.254 18.002H287.338L288.598 15.944H290.782L288.57 19.374L290.908 23H288.71L287.338 20.746H287.254L285.896 23H283.698ZM294.796 23.168C292.682 23.168 291.142 21.614 291.142 19.486C291.142 17.358 292.64 15.776 294.768 15.776C296.714 15.776 298.198 17.134 298.198 19.262C298.198 19.472 298.184 19.724 298.156 19.934H293.088C293.186 20.956 293.844 21.6 294.782 21.6C295.468 21.6 296.042 21.264 296.196 20.774H298.128C297.89 22.16 296.504 23.168 294.796 23.168ZM293.13 18.66H296.224C296.14 17.862 295.594 17.316 294.782 17.316C293.984 17.316 293.326 17.862 293.13 18.66ZM303.026 23.168C300.87 23.168 299.372 21.614 299.372 19.472C299.372 17.344 300.884 15.776 303.026 15.776C304.86 15.776 306.26 16.896 306.4 18.506H304.44C304.314 17.89 303.754 17.47 303.026 17.47C302.032 17.47 301.332 18.296 301.332 19.472C301.332 20.648 302.018 21.488 303.026 21.488C303.74 21.488 304.314 21.068 304.44 20.438H306.4C306.26 22.062 304.86 23.168 303.026 23.168ZM316.183 23.168C313.313 23.168 311.325 21.054 311.325 18.114C311.325 15.188 313.355 13.032 316.183 13.032C318.479 13.032 320.341 14.418 320.635 16.434H318.591C318.255 15.398 317.359 14.81 316.183 14.81C314.461 14.81 313.327 16.112 313.327 18.1C313.327 20.004 314.391 21.39 316.183 21.39C317.331 21.39 318.269 20.83 318.591 19.766H320.649C320.355 21.796 318.493 23.168 316.183 23.168ZM325.423 23.168C323.295 23.168 321.671 21.572 321.671 19.472C321.671 17.372 323.295 15.776 325.423 15.776C327.551 15.776 329.161 17.372 329.161 19.472C329.161 21.572 327.551 23.168 325.423 23.168ZM325.423 21.474C326.459 21.474 327.215 20.634 327.215 19.472C327.215 18.31 326.459 17.47 325.423 17.47C324.387 17.47 323.631 18.31 323.631 19.472C323.631 20.634 324.387 21.474 325.423 21.474ZM333.559 23.168C331.669 23.168 330.339 21.614 330.339 19.472C330.339 17.372 331.669 15.776 333.531 15.776C334.357 15.776 335.141 16.084 335.575 16.63H335.659V12.92H337.535V23H335.897L335.813 22.202H335.729C335.323 22.818 334.469 23.168 333.559 23.168ZM333.993 21.53C334.987 21.53 335.659 20.718 335.659 19.472C335.659 18.226 334.987 17.414 333.993 17.414C332.971 17.414 332.299 18.254 332.299 19.472C332.299 20.704 332.971 21.53 333.993 21.53ZM342.62 23.168C340.506 23.168 338.966 21.614 338.966 19.486C338.966 17.358 340.464 15.776 342.592 15.776C344.538 15.776 346.022 17.134 346.022 19.262C346.022 19.472 346.008 19.724 345.98 19.934H340.912C341.01 20.956 341.668 21.6 342.606 21.6C343.292 21.6 343.866 21.264 344.02 20.774H345.952C345.714 22.16 344.328 23.168 342.62 23.168ZM340.954 18.66H344.048C343.964 17.862 343.418 17.316 342.606 17.316C341.808 17.316 341.15 17.862 340.954 18.66Z" fill="white"/>
        <g clip-path="url(#clip0_9881_871)">
        <path d="M347.999 26L342 29.5003V36.4997L347.999 40L354 36.4997V29.5003L347.999 26Z" fill="#DC150B"/>
        <path d="M346 36.4997V31.8338L344 33.0006V30.667L348 28.3335L350.001 29.5003L348 30.667V37.6664L346 36.4997Z" fill="white"/>
        <path d="M350 36.4997V31.8339L352 30.6671V35.333L350 36.4997Z" fill="white"/>
        </g>
    </g>
  </g>

  <g id="branch-3">
    <path class="connector-line" d="M348 88 L373.186 88 C392.516 88 408.186 72.33 408.186 53 C408.186 33.6701 423.856 18.0001 443.186 18.0001 L507 18" stroke="url(#paint2_linear_9881_871)" stroke-width="2"/>
    <g class="branch-group content-box">
        <g filter="url(#filter1_d_9881_871)">
            <rect x="373" y="77" width="7" height="20" rx="3.5" fill="#509DEA"/>
        </g>
        <rect x="475" width="95" height="36" rx="18" fill="url(#paint6_linear_9881_871)"/>
        <path xmlns="http://www.w3.org/2000/svg" d="M503.324 23V13.2H506.572C509.722 13.2 511.696 15.09 511.696 18.1C511.696 21.11 509.722 23 506.572 23H503.324ZM506.502 21.306C508.504 21.306 509.694 20.102 509.694 18.1C509.694 16.098 508.504 14.894 506.502 14.894H505.284V21.306H506.502ZM516.552 23.168C514.438 23.168 512.898 21.614 512.898 19.486C512.898 17.358 514.396 15.776 516.524 15.776C518.47 15.776 519.954 17.134 519.954 19.262C519.954 19.472 519.94 19.724 519.912 19.934H514.844C514.942 20.956 515.6 21.6 516.538 21.6C517.224 21.6 517.798 21.264 517.952 20.774H519.884C519.646 22.16 518.26 23.168 516.552 23.168ZM514.886 18.66H517.98C517.896 17.862 517.35 17.316 516.538 17.316C515.74 17.316 515.082 17.862 514.886 18.66ZM525.356 23.168C524.418 23.168 523.592 22.818 523.186 22.202H523.102L523.018 23H521.38V12.92H523.256V16.63H523.34C523.774 16.084 524.53 15.776 525.384 15.776C527.218 15.776 528.576 17.358 528.576 19.472C528.576 21.6 527.218 23.168 525.356 23.168ZM524.936 21.53C525.944 21.53 526.63 20.704 526.63 19.472C526.63 18.254 525.944 17.414 524.936 17.414C523.914 17.414 523.256 18.226 523.256 19.472C523.256 20.718 523.914 21.53 524.936 21.53ZM532.654 23.168C531.1 23.168 529.966 22.076 529.966 20.396V15.944H531.842V20.046C531.842 20.956 532.346 21.502 533.144 21.502C533.984 21.502 534.53 20.872 534.53 19.948V15.944H536.406V23H534.768L534.684 22.244H534.6C534.166 22.832 533.522 23.168 532.654 23.168ZM541.159 25.968C539.465 25.968 538.023 25.128 537.519 23.882L538.681 22.622C538.121 22.328 537.743 21.81 537.743 21.208C537.743 20.592 538.121 20.018 538.737 19.682C538.303 19.262 538.051 18.73 538.051 18.128C538.051 16.784 539.325 15.776 541.061 15.776C541.551 15.776 542.013 15.86 542.405 16.014C542.783 15.566 543.161 15.048 543.385 14.67L544.757 15.636C544.575 15.986 544.127 16.434 543.595 16.84C543.889 17.204 544.057 17.638 544.057 18.128C544.057 19.486 542.797 20.494 541.061 20.494C540.613 20.494 540.207 20.424 539.843 20.312C539.633 20.424 539.535 20.578 539.535 20.788C539.535 21.138 539.801 21.348 540.235 21.348H541.845C543.427 21.348 544.449 22.3 544.449 23.532C544.449 24.988 542.993 25.968 541.159 25.968ZM541.061 19.122C541.719 19.122 542.195 18.702 542.195 18.128C542.195 17.568 541.719 17.148 541.061 17.148C540.403 17.148 539.927 17.568 539.927 18.128C539.927 18.702 540.403 19.122 541.061 19.122ZM539.409 23.728C539.787 24.204 540.403 24.498 541.145 24.498C541.901 24.498 542.573 24.176 542.573 23.644C542.573 23.224 542.195 22.888 541.621 22.888H540.207L539.409 23.728Z" fill="white"/>
        <g clip-path="url(#clip1_9881_871)">
        <path d="M562.999 26L557 29.5003V36.4997L562.999 40L569 36.4997V29.5003L562.999 26Z" fill="#DC150B"/>
        <path d="M561 36.4997V31.8338L559 33.0006V30.667L563 28.3335L565.001 29.5003L563 30.667V37.6664L561 36.4997Z" fill="white"/>
        <path d="M565 36.4997V31.8339L567 30.6671V35.333L565 36.4997Z" fill="white"/>
        </g>
    </g>
  </g>

  <g id="branch-2">
    <path class="connector-line" d="M273.75 88L280.653 88C298.878 88.0001 313.653 102.775 313.653 121C313.653 139.225 328.427 154 346.653 154L428.75 154" stroke="url(#paint3_linear_9881_871)" stroke-width="2"/>

    <g class="branch-group content-box">
        <rect x="372" y="131" width="95" height="36" rx="18" fill="url(#paint8_linear_9881_871)"/>
        <path xmlns="http://www.w3.org/2000/svg" d="M388.249 154V144.2H392.239C394.031 144.2 395.319 145.474 395.319 147.224C395.319 148.456 394.661 149.394 393.541 149.856L395.571 154H393.443L391.609 150.234H390.209V154H388.249ZM391.945 148.596C392.715 148.596 393.317 147.98 393.317 147.21C393.317 146.44 392.715 145.838 391.945 145.838H390.209V148.596H391.945ZM399.341 154.168C397.787 154.168 396.653 153.076 396.653 151.396V146.944H398.529V151.046C398.529 151.956 399.033 152.502 399.831 152.502C400.671 152.502 401.217 151.872 401.217 150.948V146.944H403.093V154H401.455L401.371 153.244H401.287C400.853 153.832 400.209 154.168 399.341 154.168ZM409.478 149.996C409.478 149.03 408.96 148.456 408.106 148.456C407.224 148.456 406.65 149.086 406.65 150.08V154H404.774V146.944H406.412L406.496 147.7H406.58C407 147.126 407.742 146.776 408.652 146.776C410.29 146.776 411.354 147.882 411.354 149.618V154H409.478V149.996ZM419.09 154V145.936H416.36V144.2H423.78V145.936H421.036V154H419.09ZM427.439 154.168C425.325 154.168 423.785 152.614 423.785 150.486C423.785 148.358 425.283 146.776 427.411 146.776C429.357 146.776 430.841 148.134 430.841 150.262C430.841 150.472 430.827 150.724 430.799 150.934H425.731C425.829 151.956 426.487 152.6 427.425 152.6C428.111 152.6 428.685 152.264 428.839 151.774H430.771C430.533 153.16 429.147 154.168 427.439 154.168ZM425.773 149.66H428.867C428.783 148.862 428.237 148.316 427.425 148.316C426.627 148.316 425.969 148.862 425.773 149.66ZM434.877 154.168C433.085 154.168 431.825 153.188 431.783 151.802H433.715C433.785 152.362 434.149 152.712 434.877 152.712C435.395 152.712 435.829 152.53 435.829 152.096C435.829 151.76 435.619 151.522 435.073 151.354L434.009 151.074C432.665 150.724 431.979 149.968 431.979 148.96C431.979 147.63 433.169 146.776 434.779 146.776C436.375 146.776 437.481 147.644 437.593 148.918H435.661C435.591 148.498 435.227 148.218 434.737 148.218C434.261 148.218 433.911 148.47 433.911 148.876C433.911 149.198 434.121 149.394 434.751 149.562L435.815 149.842C437.103 150.164 437.761 150.906 437.761 151.942C437.761 153.3 436.585 154.168 434.877 154.168ZM442.285 154.168C440.745 154.168 439.793 153.314 439.793 151.704V148.554H438.435V146.944H438.645C439.499 146.944 439.947 146.426 440.017 145.488L440.045 144.9H441.655V146.944H443.349V148.554H441.669V151.578C441.669 152.194 442.047 152.572 442.635 152.572C442.817 152.572 443.041 152.544 443.209 152.488L443.461 153.986C443.153 154.098 442.719 154.168 442.285 154.168ZM447.319 154.168C445.527 154.168 444.267 153.188 444.225 151.802H446.157C446.227 152.362 446.591 152.712 447.319 152.712C447.837 152.712 448.271 152.53 448.271 152.096C448.271 151.76 448.061 151.522 447.515 151.354L446.451 151.074C445.107 150.724 444.421 149.968 444.421 148.96C444.421 147.63 445.611 146.776 447.221 146.776C448.817 146.776 449.923 147.644 450.035 148.918H448.103C448.033 148.498 447.669 148.218 447.179 148.218C446.703 148.218 446.353 148.47 446.353 148.876C446.353 149.198 446.563 149.394 447.193 149.562L448.257 149.842C449.545 150.164 450.203 150.906 450.203 151.942C450.203 153.3 449.027 154.168 447.319 154.168Z" fill="white"/>
        <g clip-path="url(#clip3_9881_871)">
        <path d="M457.999 156L452 159.5V166.5L457.999 170L464 166.5V159.5L457.999 156Z" fill="#DC150B"/>
        <path d="M456 166.5V161.834L454 163.001V160.667L458 158.333L460.001 159.5L458 160.667V167.666L456 166.5Z" fill="white"/>
        <path d="M460 166.5V161.834L462 160.667V165.333L460 166.5Z" fill="white"/>
        </g>
         <g filter="url(#filter2_d_9881_871)">
          <rect x="271" y="77" width="7" height="20" rx="3.5" fill="#50DBD9"/>
        </g>
    </g>
  </g>
    <g id="branch-4">
    <path xmlns="http://www.w3.org/2000/svg" class="connector-line" d="M466.75 88L473.718 88C491.943 88.0001 506.718 102.775 506.718 121C506.718 139.225 521.493 154 539.718 154L569.75 154" stroke="url(#paint4_linear_9881_871)" stroke-width="2"/>
    <g class="branch-group content-box">
        <rect x="545" y="131" width="95" height="36" rx="18" fill="url(#paint7_linear_9881_871)"/>
        <path xmlns="http://www.w3.org/2000/svg" d="M551.834 154.098C551.19 154.098 550.7 153.608 550.7 153.006C550.7 152.404 551.19 151.914 551.834 151.914C552.478 151.914 552.954 152.404 552.954 153.006C552.954 153.608 552.478 154.098 551.834 154.098ZM555.238 154.098C554.594 154.098 554.104 153.608 554.104 153.006C554.104 152.404 554.594 151.914 555.238 151.914C555.882 151.914 556.358 152.404 556.358 153.006C556.358 153.608 555.882 154.098 555.238 154.098ZM558.642 154.098C557.998 154.098 557.508 153.608 557.508 153.006C557.508 152.404 557.998 151.914 558.642 151.914C559.286 151.914 559.762 152.404 559.762 153.006C559.762 153.608 559.286 154.098 558.642 154.098ZM561.999 154V145.936H559.269V144.2H566.689V145.936H563.945V154H561.999ZM568.674 154.168C567.288 154.168 566.378 153.342 566.378 152.138C566.378 150.71 567.582 149.856 569.724 149.688L570.62 149.604V149.408C570.62 148.75 570.228 148.33 569.57 148.33C568.982 148.33 568.548 148.666 568.45 149.24H566.532C566.602 147.798 567.89 146.776 569.612 146.776C571.376 146.776 572.496 147.868 572.496 149.59V152.166C572.496 152.488 572.664 152.67 572.958 152.67C573.028 152.67 573.07 152.656 573.168 152.628L573.294 154C573.07 154.084 572.79 154.126 572.51 154.126C571.698 154.126 571.138 153.72 570.942 153.048H570.858C570.368 153.79 569.612 154.168 568.674 154.168ZM568.352 151.928C568.352 152.334 568.632 152.628 569.15 152.628C569.99 152.628 570.62 151.928 570.62 150.948V150.85L569.934 150.906C568.954 150.976 568.352 151.34 568.352 151.928ZM577.021 154.168C575.229 154.168 573.969 153.188 573.927 151.802H575.859C575.929 152.362 576.293 152.712 577.021 152.712C577.539 152.712 577.973 152.53 577.973 152.096C577.973 151.76 577.763 151.522 577.217 151.354L576.153 151.074C574.809 150.724 574.123 149.968 574.123 148.96C574.123 147.63 575.313 146.776 576.923 146.776C578.519 146.776 579.625 147.644 579.737 148.918H577.805C577.735 148.498 577.371 148.218 576.881 148.218C576.405 148.218 576.055 148.47 576.055 148.876C576.055 149.198 576.265 149.394 576.895 149.562L577.959 149.842C579.247 150.164 579.905 150.906 579.905 151.942C579.905 153.3 578.729 154.168 577.021 154.168ZM581.343 154V143.92H583.219V149.24H583.303L585.585 146.944H587.951L585.319 149.604L587.951 154H585.823L584.003 150.92L583.219 151.704V154H581.343ZM592.465 151.914V150.458H594.131L594.537 148.582H593.123V147.126H594.859L595.307 145.04H596.959L596.511 147.126H598.107L598.555 145.04H600.207L599.759 147.126H601.117V148.582H599.437L599.031 150.458H600.459V151.914H598.709L598.261 154H596.609L597.057 151.914H595.461L595.013 154H593.361L593.809 151.914H592.465ZM595.783 150.458H597.379L597.785 148.582H596.189L595.783 150.458ZM606.343 154V152.04H602.185V150.962L606.021 145.04H608.191V150.444H609.591V152.04H608.191V154H606.343ZM604.411 150.444H606.343V147.532H606.259L604.411 150.444ZM614.456 154.168C612.174 154.168 610.872 152.488 610.872 149.534C610.872 146.552 612.174 144.872 614.456 144.872C616.752 144.872 618.054 146.552 618.054 149.534C618.054 152.488 616.752 154.168 614.456 154.168ZM614.456 152.572C615.562 152.572 616.122 151.536 616.122 149.534C616.122 147.518 615.548 146.468 614.456 146.468C613.378 146.468 612.804 147.518 612.804 149.534C612.804 151.536 613.378 152.572 614.456 152.572ZM622.967 144.872C624.983 144.872 626.369 146.104 626.369 147.98C626.369 149.114 625.851 150.178 624.927 151.424L623.051 154H620.769L623.303 150.71L623.247 150.668C623.051 150.766 622.701 150.836 622.337 150.836C620.629 150.836 619.509 149.646 619.509 147.924C619.509 146.146 621.021 144.872 622.967 144.872ZM622.939 146.468C622.071 146.468 621.413 147.056 621.413 147.91C621.413 148.75 622.071 149.338 622.939 149.338C623.807 149.338 624.451 148.75 624.451 147.91C624.451 147.056 623.793 146.468 622.939 146.468ZM630.895 154.168C628.879 154.168 627.493 152.936 627.493 151.06C627.493 149.926 628.011 148.862 628.935 147.616L630.811 145.04H633.093L630.559 148.33L630.615 148.372C630.811 148.274 631.161 148.204 631.525 148.204C633.233 148.204 634.353 149.394 634.353 151.116C634.353 152.894 632.841 154.168 630.895 154.168ZM630.923 152.572C631.791 152.572 632.449 151.984 632.449 151.13C632.449 150.29 631.791 149.702 630.923 149.702C630.055 149.702 629.411 150.29 629.411 151.13C629.411 151.984 630.069 152.572 630.923 152.572Z" fill="white"/>
        <g clip-path="url(#clip2_9881_871)">
        <path d="M628.999 156L623 159.5V166.5L628.999 170L635 166.5V159.5L628.999 156Z" fill="#DC150B"/>
        <path d="M627 166.5V161.834L625 163.001V160.667L629 158.333L631.001 159.5L629 160.667V167.666L627 166.5Z" fill="white"/>
        <path d="M631 166.5V161.834L633 160.667V165.333L631 166.5Z" fill="white"/>
        </g>
         <g xmlns="http://www.w3.org/2000/svg" filter="url(#filter3_d_9881_871)">
          <rect x="475" y="77" width="7" height="20" rx="3.5" fill="#50DBD9"/>
        </g>
    </g>
  </g>

<defs>
<filter id="filter0_d_9881_871" x="161" y="69" width="23" height="36" filterUnits="userSpaceOnUse" color-interpolation-filters="sRGB">
<feFlood flood-opacity="0" result="BackgroundImageFix"/>
<feColorMatrix in="SourceAlpha" type="matrix" values="0 0 0 0 0 0 0 0 0 0 0 0 0 0 0 0 0 0 127 0" result="hardAlpha"/>
<feMorphology radius="4" operator="dilate" in="SourceAlpha" result="effect1_dropShadow_9881_871"/>
<feOffset/>
<feGaussianBlur stdDeviation="2"/>
<feComposite in2="hardAlpha" operator="out"/>
<feColorMatrix type="matrix" values="0 0 0 0 0 0 0 0 0 0 0 0 0 0 0 0 0 0 0.25 0"/>
<feBlend mode="normal" in2="BackgroundImageFix" result="effect1_dropShadow_9881_871"/>
<feBlend mode="normal" in="SourceGraphic" in2="effect1_dropShadow_9881_871" result="shape"/>
</filter>
<filter id="filter1_d_9881_871" x="365" y="69" width="23" height="36" filterUnits="userSpaceOnUse" color-interpolation-filters="sRGB">
<feFlood flood-opacity="0" result="BackgroundImageFix"/>
<feColorMatrix in="SourceAlpha" type="matrix" values="0 0 0 0 0 0 0 0 0 0 0 0 0 0 0 0 0 0 127 0" result="hardAlpha"/>
<feMorphology radius="4" operator="dilate" in="SourceAlpha" result="effect1_dropShadow_9881_871"/>
<feOffset/>
<feGaussianBlur stdDeviation="2"/>
<feComposite in2="hardAlpha" operator="out"/>
<feColorMatrix type="matrix" values="0 0 0 0 0 0 0 0 0 0 0 0 0 0 0 0 0 0 0.25 0"/>
<feBlend mode="normal" in2="BackgroundImageFix" result="effect1_dropShadow_9881_871"/>
<feBlend mode="normal" in="SourceGraphic" in2="effect1_dropShadow_9881_871" result="shape"/>
</filter>
<filter id="filter2_d_9881_871" x="263" y="69" width="23" height="36" filterUnits="userSpaceOnUse" color-interpolation-filters="sRGB">
<feFlood flood-opacity="0" result="BackgroundImageFix"/>
<feColorMatrix in="SourceAlpha" type="matrix" values="0 0 0 0 0 0 0 0 0 0 0 0 0 0 0 0 0 0 127 0" result="hardAlpha"/>
<feMorphology radius="4" operator="dilate" in="SourceAlpha" result="effect1_dropShadow_9881_871"/>
<feOffset/>
<feGaussianBlur stdDeviation="2"/>
<feComposite in2="hardAlpha" operator="out"/>
<feColorMatrix type="matrix" values="0 0 0 0 0 0 0 0 0 0 0 0 0 0 0 0 0 0 0.25 0"/>
<feBlend mode="normal" in2="BackgroundImageFix" result="effect1_dropShadow_9881_871"/>
<feBlend mode="normal" in="SourceGraphic" in2="effect1_dropShadow_9881_871" result="shape"/>
</filter>
<filter id="filter3_d_9881_871" x="467" y="69" width="23" height="36" filterUnits="userSpaceOnUse" color-interpolation-filters="sRGB">
<feFlood flood-opacity="0" result="BackgroundImageFix"/>
<feColorMatrix in="SourceAlpha" type="matrix" values="0 0 0 0 0 0 0 0 0 0 0 0 0 0 0 0 0 0 127 0" result="hardAlpha"/>
<feMorphology radius="4" operator="dilate" in="SourceAlpha" result="effect1_dropShadow_9881_871"/>
<feOffset/>
<feGaussianBlur stdDeviation="2"/>
<feComposite in2="hardAlpha" operator="out"/>
<feColorMatrix type="matrix" values="0 0 0 0 0 0 0 0 0 0 0 0 0 0 0 0 0 0 0.25 0"/>
<feBlend mode="normal" in2="BackgroundImageFix" result="effect1_dropShadow_9881_871"/>
<feBlend mode="normal" in="SourceGraphic" in2="effect1_dropShadow_9881_871" result="shape"/>
</filter>
<linearGradient id="paint0_linear_9881_871" x1="59" y1="88.5" x2="598.5" y2="88.5" gradientUnits="userSpaceOnUse">
<stop stop-color="#509DEA"/>
<stop offset="1" stop-color="#50DBD9"/>
</linearGradient>
<linearGradient id="paint1_linear_9881_871" x1="216.5" y1="18" x2="216.5" y2="88" gradientUnits="userSpaceOnUse">
<stop stop-color="#50DBD9"/>
<stop offset="1" stop-color="#509DEA"/>
</linearGradient>
<linearGradient id="paint2_linear_9881_871" x1="427.5" y1="18" x2="427.5" y2="88" gradientUnits="userSpaceOnUse">
<stop stop-color="#50DBD9"/>
<stop offset="1" stop-color="#509DEA"/>
</linearGradient>
<linearGradient id="paint3_linear_9881_871" x1="305.854" y1="88" x2="305.854" y2="154" gradientUnits="userSpaceOnUse">
<stop stop-color="#50DBD9"/>
<stop offset="1" stop-color="#509DEA"/>
</linearGradient>
<linearGradient id="paint4_linear_9881_871" x1="498.906" y1="88" x2="498.906" y2="154" gradientUnits="userSpaceOnUse">
<stop stop-color="#50DBD9"/>
<stop offset="1" stop-color="#509DEA"/>
</linearGradient>
<linearGradient id="paint5_linear_9881_871" x1="358" y1="18" x2="263" y2="18" gradientUnits="userSpaceOnUse">
<stop stop-color="#50A1E8"/>
<stop offset="1" stop-color="#50D5DA"/>
</linearGradient>
<linearGradient id="paint6_linear_9881_871" x1="475" y1="18" x2="570" y2="18" gradientUnits="userSpaceOnUse">
<stop stop-color="#51D3DB"/>
<stop offset="1" stop-color="#50A2E7"/>
</linearGradient>
<linearGradient id="paint7_linear_9881_871" x1="640" y1="149" x2="545" y2="149" gradientUnits="userSpaceOnUse">
<stop stop-color="#C76FF2"/>
<stop offset="1" stop-color="#50DBD9"/>
</linearGradient>
<linearGradient id="paint8_linear_9881_871" x1="467" y1="149" x2="372" y2="149" gradientUnits="userSpaceOnUse">
<stop stop-color="#C76FF2"/>
<stop offset="1" stop-color="#50DBD9"/>
</linearGradient>
<clipPath id="clip0_9881_871">
<rect width="12" height="14" fill="white" transform="translate(342 26)"/>
</clipPath>
<clipPath id="clip1_9881_871">
<rect width="12" height="14" fill="white" transform="translate(557 26)"/>
</clipPath>
<clipPath id="clip2_9881_871">
<rect width="12" height="14" fill="white" transform="translate(623 156)"/>
</clipPath>
<clipPath id="clip3_9881_871">
<rect width="12" height="14" fill="white" transform="translate(452 156)"/>
</clipPath>
</defs>
</svg>