<svg xmlns="http://www.w3.org/2000/svg" viewBox="0 0 32 34" fill="none" class="h-8"><rect width="32" height="32" rx="6" fill="url(#paint0_linear_982_12828)"></rect><rect x="0.5" y="0.5" width="31" height="31" rx="5.5" stroke="white" stroke-opacity="0.5"></rect><g filter="url(#filter0_d_982_12828)"><path d="M16.3894 7L8.46778 16.6191C8.15754 16.9958 8.00242 17.1841 8.00005 17.3432C7.99799 17.4815 8.05889 17.6131 8.1652 17.7C8.28748 17.8 8.52979 17.8 9.01439 17.8H15.5L14.6106 25L22.5322 15.3809C22.8425 15.0042 22.9976 14.8159 23 14.6568C23.002 14.5185 22.9411 14.3869 22.8348 14.3C22.7125 14.2 22.4702 14.2 21.9856 14.2H15.5L16.3894 7Z" stroke="white" stroke-width="2" stroke-linecap="round" stroke-linejoin="round" shape-rendering="crispEdges"></path></g><defs><filter id="filter0_d_982_12828" x="3" y="6" width="25" height="28" filterUnits="userSpaceOnUse" color-interpolation-filters="sRGB"><feFlood flood-opacity="0" result="BackgroundImageFix"></feFlood><feColorMatrix in="SourceAlpha" type="matrix" values="0 0 0 0 0 0 0 0 0 0 0 0 0 0 0 0 0 0 127 0" result="hardAlpha"></feColorMatrix><feOffset dy="4"></feOffset><feGaussianBlur stdDeviation="2"></feGaussianBlur><feComposite in2="hardAlpha" operator="out"></feComposite><feColorMatrix type="matrix" values="0 0 0 0 0 0 0 0 0 0 0 0 0 0 0 0 0 0 0.25 0"></feColorMatrix><feBlend mode="normal" in2="BackgroundImageFix" result="effect1_dropShadow_982_12828"></feBlend><feBlend mode="normal" in="SourceGraphic" in2="effect1_dropShadow_982_12828" result="shape"></feBlend></filter><linearGradient id="paint0_linear_982_12828" x1="-12.046" y1="-12.9562" x2="30.903" y2="32.0767" gradientUnits="userSpaceOnUse"><stop stop-color="#0CB1F2"></stop><stop offset="0.135417" stop-color="#12C0C5"></stop><stop offset="0.28125" stop-color="#256CD4"></stop><stop offset="0.40625" stop-color="#15A1E6"></stop><stop offset="0.640625" stop-color="#0CA6F2"></stop><stop offset="0.915447" stop-color="#01ECB0"></stop><stop offset="1" stop-color="#0CF06E"></stop></linearGradient></defs></svg>