<svg viewBox="0 0 32 34" fill="none" class="h-8"><rect width="32" height="32" rx="6" fill="url(#paint0_linear_1674_25649)"></rect><rect x="0.5" y="0.5" width="31" height="31" rx="5.5" stroke="white" stroke-opacity="0.5"></rect><g filter="url(#filter0_d_1674_25649)"><path d="M23.7241 10.55C23.7241 11.9583 20.3663 13.1 16.2241 13.1C12.082 13.1 8.72412 11.9583 8.72412 10.55M23.7241 10.55C23.7241 9.14167 20.3663 8 16.2241 8C12.082 8 8.72412 9.14167 8.72412 10.55M23.7241 10.55V22.45C23.7241 23.861 20.3908 25 16.2241 25C12.0575 25 8.72412 23.861 8.72412 22.45V10.55M23.7241 16.5C23.7241 17.911 20.3908 19.05 16.2241 19.05C12.0575 19.05 8.72412 17.911 8.72412 16.5" stroke="white" stroke-width="2" stroke-linecap="round" stroke-linejoin="round" shape-rendering="crispEdges"></path></g><defs><filter id="filter0_d_1674_25649" x="3.72412" y="7" width="25" height="27" filterUnits="userSpaceOnUse" color-interpolation-filters="sRGB"><feFlood flood-opacity="0" result="BackgroundImageFix"></feFlood><feColorMatrix in="SourceAlpha" type="matrix" values="0 0 0 0 0 0 0 0 0 0 0 0 0 0 0 0 0 0 127 0" result="hardAlpha"></feColorMatrix><feOffset dy="4"></feOffset><feGaussianBlur stdDeviation="2"></feGaussianBlur><feComposite in2="hardAlpha" operator="out"></feComposite><feColorMatrix type="matrix" values="0 0 0 0 0 0 0 0 0 0 0 0 0 0 0 0 0 0 0.25 0"></feColorMatrix><feBlend mode="normal" in2="BackgroundImageFix" result="effect1_dropShadow_1674_25649"></feBlend><feBlend mode="normal" in="SourceGraphic" in2="effect1_dropShadow_1674_25649" result="shape"></feBlend></filter><linearGradient id="paint0_linear_1674_25649" x1="-12.046" y1="-12.9562" x2="30.903" y2="32.0767" gradientUnits="userSpaceOnUse"><stop stop-color="#0CB1F2"></stop><stop offset="0.135417" stop-color="#12C0C5"></stop><stop offset="0.28125" stop-color="#256CD4"></stop><stop offset="0.40625" stop-color="#15A1E6"></stop><stop offset="0.640625" stop-color="#0CA6F2"></stop><stop offset="0.915447" stop-color="#01ECB0"></stop><stop offset="1" stop-color="#0CF06E"></stop></linearGradient></defs></svg>