<svg width="128" height="128" viewBox="0 0 128 128" fill="none" xmlns="http://www.w3.org/2000/svg">
<g clip-path="url(#clip0_3136_1214)">
<mask id="mask0_3136_1214" style="mask-type:luminance" maskUnits="userSpaceOnUse" x="0" y="0" width="128" height="128">
<path d="M128 0H0V128H128V0Z" fill="white"/>
</mask>
<g mask="url(#mask0_3136_1214)">
<path d="M41.3765 36.8789C40.0621 36.855 38.9197 37.352 38.3222 38.8C37.3185 41.242 39.8231 43.6267 40.7169 44.8692C41.3431 45.7389 42.1461 46.7138 42.5954 47.6887C42.8917 48.3291 42.9443 48.979 43.1929 49.6576C43.8142 51.3302 44.3544 53.151 45.1574 54.6946C45.5637 55.4783 46.013 56.305 46.5244 57.0028C46.8399 57.4329 47.38 57.624 47.466 58.2835C46.9355 59.0242 46.9068 60.1664 46.6104 61.0983C45.2769 65.3085 45.7787 70.5461 47.7194 73.662C48.3168 74.6177 49.7221 76.6679 51.6531 75.8842C53.3404 75.196 52.9676 73.0646 53.4503 71.1817C53.5603 70.7564 53.4886 70.441 53.7037 70.159V70.2451C54.2151 71.2725 54.7313 72.2952 55.2428 73.3179C56.3804 75.153 58.4022 77.0693 60.123 78.3644C61.012 79.0334 61.7099 80.1947 62.857 80.5866V80.5006H62.771C62.5511 80.1517 62.2022 80.0083 61.9154 79.7312C61.2462 79.0765 60.5006 78.2593 59.9461 77.509C58.3879 75.3967 57.0113 73.0837 55.759 70.6752C55.1615 69.5235 54.6405 68.257 54.1386 67.0862C53.9427 66.637 53.9474 65.9536 53.5412 65.7195C52.9867 66.5749 52.1694 67.2726 51.7439 68.2857C51.0604 69.9058 50.9744 71.8794 50.7211 73.9248C50.5681 73.9774 50.6398 73.9439 50.549 74.0108C49.3588 73.7241 48.943 72.5007 48.4985 71.4446C47.38 68.7875 47.1697 64.5056 48.1543 61.4471C48.4076 60.6538 49.5596 58.164 49.0959 57.4281C48.8761 56.6969 48.14 56.2811 47.7289 55.722C47.2175 55.0339 46.7108 54.1259 46.3619 53.3278C45.4442 51.2538 45.0187 48.9264 44.0532 46.8285C43.5944 45.8249 42.8153 44.8118 42.1748 43.923C41.4674 42.9337 40.6691 42.2121 40.1194 41.0174C39.9235 40.5921 39.6606 39.9182 39.9522 39.4834C40.043 39.1919 40.172 39.0676 40.4636 38.9672C40.9607 38.5849 42.3421 39.0963 42.8583 39.3113C44.2301 39.88 45.3725 40.42 46.534 41.1894C47.0932 41.5574 47.6572 42.2742 48.3312 42.4702H49.1007C50.3052 42.7473 51.6531 42.5562 52.7764 42.9003C54.7648 43.5072 56.5477 44.4438 58.1632 45.4665C63.0912 48.5776 67.1206 53.0028 69.8738 58.2883C70.3183 59.1389 70.5095 59.9513 70.9014 60.8545C71.6901 62.6753 72.6843 64.5439 73.4682 66.3216C74.2521 68.0946 75.0121 69.8867 76.121 71.3633C76.7041 72.1375 78.9506 72.558 79.9687 72.9834C80.6857 73.2844 81.8568 73.5998 82.5355 74.006C83.8308 74.785 85.0832 75.7169 86.2972 76.5723C86.9043 77.0024 88.7684 77.9343 88.864 78.7085C85.8575 78.6272 83.5632 78.9044 81.5987 79.7312C81.0394 79.9653 80.1504 79.9749 80.0596 80.6726C80.3655 80.9928 80.4181 81.4754 80.657 81.8673C81.1255 82.6272 81.9141 83.6403 82.6215 84.1755C83.3911 84.7585 84.1893 85.3798 85.0162 85.8864C86.4884 86.7848 88.1279 87.2961 89.5475 88.1946C90.384 88.725 91.2109 89.3893 92.0282 89.9866C92.4297 90.2829 92.7022 90.7417 93.2232 90.9233V90.8421C92.946 90.4932 92.879 90.0058 92.6257 89.6426L91.5168 88.5339C90.4318 87.0906 89.0504 85.8242 87.583 84.7729C86.4119 83.9318 83.7926 82.804 83.3051 81.442C83.2764 81.4133 83.2477 81.3847 83.219 81.356C84.0459 81.2604 85.021 80.9641 85.7858 80.7586C87.0716 80.4145 88.2187 80.5006 89.5427 80.1565C90.1402 79.9844 90.7425 79.8172 91.3399 79.6451V79.3011C90.6708 78.6129 90.188 77.7049 89.4567 77.0789C87.54 75.4397 85.4512 73.8197 83.3003 72.4625C82.1053 71.7074 80.6331 71.2247 79.3713 70.5844C78.9459 70.3693 78.2002 70.2594 77.9182 69.901C77.2538 69.0551 76.8905 67.9846 76.3791 67.0002C75.3036 64.9357 74.2521 62.6753 73.3057 60.5009C72.6556 59.0194 72.2302 57.5571 71.4224 56.2286C67.5412 49.8488 63.3637 45.997 56.887 42.2121C55.5104 41.4045 53.8519 41.0938 52.0977 40.6781C51.156 40.6207 50.2144 40.5634 49.2776 40.506C48.704 40.2671 48.1065 39.5646 47.5664 39.2253C46.228 38.3794 43.5752 36.9123 41.3861 36.8741M50.6446 46.1451C50.0184 46.1308 49.5739 46.2168 49.1055 46.3172V46.4032H49.1915C49.4879 47.0197 50.0184 47.4115 50.3865 47.942C50.6733 48.5394 50.9553 49.1367 51.2421 49.7341C51.2708 49.7054 51.2994 49.6815 51.3281 49.6528C51.8587 49.2801 52.1024 48.6827 52.0977 47.77C51.8874 47.5454 51.8539 47.2682 51.6675 47.0005C51.4237 46.6469 50.9505 46.4414 50.6446 46.1451Z" fill="white"/>
<path fill-rule="evenodd" clip-rule="evenodd" d="M20.8643 36.2988C20.8643 25.8393 40.5061 17 63.752 17C87.1527 17 106.397 25.389 106.658 35.7046L106.691 93.1546C105.641 103.278 86.7805 111.21 63.752 111.21C40.9373 111.21 22.1319 103.334 20.9379 93.3428L20.8643 64.7138V36.2988ZM63.752 19.6352C40.0676 19.6352 23.805 27.9283 23.4807 35.6751L23.4512 35.9076C23.4512 36.0036 23.466 36.0959 23.4954 36.2693C23.7959 41.0536 30.219 46.048 40.6874 49.1381C40.6726 49.9998 40.6896 50.9839 40.7731 51.8571C33.7291 49.872 27.9796 46.9792 24.4536 43.4478L23.4954 42.4882V64.7544C23.9301 71.6755 37.1778 79.0363 56.9493 80.4356C57.7481 81.3283 58.6692 82.3208 59.5594 83.2129C44.2755 82.546 30.7827 78.2679 24.4536 71.9292L23.4954 70.9696V92.2873V92.66C23.9782 100.348 40.2702 108.578 63.752 108.578C82.4394 108.578 103.216 102.153 104.027 92.863L104.06 70.9142L103.098 71.8812C100.781 74.2194 97.4851 76.2788 93.4836 77.9819C93.0604 77.3101 92.5324 76.5161 91.9823 75.7721C98.8729 73.0425 103.647 69.315 104.027 64.9574L104.06 42.4365L103.098 43.4035C97.6389 48.9123 86.7463 52.874 73.9946 54.2728C73.6043 53.3387 73.2268 52.4665 72.8762 51.6999C89.0072 49.9983 104.053 43.985 104.053 35.9113C104.053 26.3191 82.8153 19.6352 63.752 19.6352Z" fill="white"/>
</g>
</g>
<defs>
<clipPath id="clip0_3136_1214">
<rect width="128" height="128" fill="white"/>
</clipPath>
</defs>
</svg>
