<svg width="32" height="32" viewBox="0 0 32 32" fill="none" xmlns="http://www.w3.org/2000/svg">
	<rect width="32" height="32" rx="6" fill="url(#paint0_linear_3136_2766)" />
	<rect x="0.5" y="0.5" width="31" height="31" rx="5.5" stroke="white" stroke-opacity="0.5" />
	<path d="M11.9082 13.2178C11.1823 13.2178 10.5959 13.8043 10.5959 14.5301C10.5959 15.256 11.1823 15.8425 11.9082 15.8425C12.6341 15.8425 13.2205 15.256 13.2205 14.5301C13.2205 13.8043 12.6341 13.2178 11.9082 13.2178ZM16.5014 13.2178C15.7755 13.2178 15.189 13.8043 15.189 14.5301C15.189 15.256 15.7755 15.8425 16.5014 15.8425C17.2272 15.8425 17.8137 15.256 17.8137 14.5301C17.8137 13.8043 17.2272 13.2178 16.5014 13.2178ZM21.0945 13.2178C20.3686 13.2178 19.7822 13.8043 19.7822 14.5301C19.7822 15.256 20.3686 15.8425 21.0945 15.8425C21.8204 15.8425 22.4068 15.256 22.4068 14.5301C22.4068 13.8043 21.8204 13.2178 21.0945 13.2178ZM16.5014 6C10.7025 6 6.00272 9.81806 6.00272 14.5301C6.00272 16.4822 6.81883 18.2703 8.17217 19.7097C7.56111 21.3256 6.28979 22.6953 6.26929 22.7117C5.99862 22.9988 5.9248 23.4171 6.08064 23.778C6.23648 24.1389 6.59327 24.3726 6.98697 24.3726C9.5091 24.3726 11.4981 23.3187 12.6915 22.4738C13.8767 22.847 15.1562 23.0603 16.5014 23.0603C22.3002 23.0603 27 19.2422 27 14.5301C27 9.81806 22.3002 6 16.5014 6ZM16.5014 21.0918C15.4064 21.0918 14.3237 20.9237 13.2862 20.5956L12.3552 20.3003L11.5555 20.8662C10.9691 21.2804 10.1653 21.7439 9.19742 22.0555C9.4968 21.5593 9.78797 21.0016 10.0135 20.4069L10.4482 19.2545L9.60343 18.3605C8.86114 17.569 7.97122 16.2608 7.97122 14.5301C7.97122 10.913 11.7975 7.9685 16.5014 7.9685C21.2052 7.9685 25.0315 10.913 25.0315 14.5301C25.0315 18.1473 21.2052 21.0918 16.5014 21.0918Z" fill="white" />
	<defs>
		<linearGradient id="paint0_linear_3136_2766" x1="-12.046" y1="-12.9562" x2="30.903" y2="32.0767" gradientUnits="userSpaceOnUse">
			<stop stop-color="#0CB1F2" />
			<stop offset="0.135417" stop-color="#12C0C5" />
			<stop offset="0.28125" stop-color="#256CD4" />
			<stop offset="0.40625" stop-color="#15A1E6" />
			<stop offset="0.640625" stop-color="#0CA6F2" />
			<stop offset="0.915447" stop-color="#01ECB0" />
			<stop offset="1" stop-color="#0CF06E" />
		</linearGradient>
	</defs>
</svg>
