<svg width="32" height="32" viewBox="0 0 32 32" fill="none" xmlns="http://www.w3.org/2000/svg">
	<rect width="32" height="32" rx="6" fill="url(#paint0_linear_3136_2710)" />
	<rect x="0.5" y="0.5" width="31" height="31" rx="5.5" stroke="white" stroke-opacity="0.5" />
	<path d="M23.9062 8.26257C21.6484 6.36414 18.1602 6.64929 16 8.84851C13.8398 6.64929 10.3516 6.36023 8.09375 8.26257C5.15626 10.7352 5.58594 14.7665 7.67969 16.9032L14.5312 23.8837C14.9219 24.2821 15.4453 24.5048 16 24.5048C16.5586 24.5048 17.0781 24.286 17.4687 23.8876L24.3203 16.9071C26.4101 14.7704 26.8476 10.7391 23.9062 8.26257ZM22.9844 15.5868L16.1328 22.5673C16.0391 22.661 15.9609 22.661 15.8672 22.5673L9.01563 15.5868C7.58985 14.1337 7.30078 11.3837 9.30078 9.70007C10.8203 8.42273 13.1641 8.61414 14.6328 10.1102L16 11.5048L17.3672 10.1102C18.8437 8.60632 21.1875 8.42273 22.6992 9.69617C24.6953 11.3798 24.3984 14.1454 22.9844 15.5868Z" fill="white" />
	<defs>
		<linearGradient id="paint0_linear_3136_2710" x1="-12.046" y1="-12.9562" x2="30.903" y2="32.0767" gradientUnits="userSpaceOnUse">
			<stop stop-color="#0CB1F2" />
			<stop offset="0.135417" stop-color="#12C0C5" />
			<stop offset="0.28125" stop-color="#256CD4" />
			<stop offset="0.40625" stop-color="#15A1E6" />
			<stop offset="0.640625" stop-color="#0CA6F2" />
			<stop offset="0.915447" stop-color="#01ECB0" />
			<stop offset="1" stop-color="#0CF06E" />
		</linearGradient>
	</defs>
</svg>
