<?xml version="1.0" standalone="no"?>
<!DOCTYPE svg PUBLIC "-//W3C//DTD SVG 20010904//EN"
 "http://www.w3.org/TR/2001/REC-SVG-20010904/DTD/svg10.dtd">
<svg version="1.0" xmlns="http://www.w3.org/2000/svg"
 width="512.000000pt" height="512.000000pt" viewBox="0 0 512.000000 512.000000"
 preserveAspectRatio="xMidYMid meet">
<metadata>
Created by potrace 1.14, written by Peter Selinger 2001-2017
</metadata>
<g transform="translate(0.000000,512.000000) scale(0.100000,-0.100000)"
fill="#000000" stroke="none">
<path d="M1471 5067 c-48 -15 -125 -93 -142 -147 -12 -35 -15 -98 -14 -277 0
-128 -2 -233 -5 -233 -5 0 -313 88 -390 111 -127 38 -243 -9 -300 -121 -20
-39 -20 -62 -20 -2109 0 -1603 3 -2076 12 -2098 38 -86 115 -143 201 -148 36
-2 116 12 257 46 170 41 307 74 435 104 11 2 78 19 148 36 71 17 136 32 145
34 23 5 262 62 337 80 33 9 69 17 80 20 11 2 36 8 55 13 19 5 37 9 40 10 3 0
12 3 20 5 13 4 197 47 225 53 6 1 68 16 139 33 70 17 138 33 150 35 72 14 274
69 291 80 32 21 73 66 92 100 17 28 18 81 21 646 l3 616 237 57 c130 32 246
59 257 62 11 2 94 22 185 45 191 47 324 79 360 87 160 34 228 79 259 170 16
48 17 116 16 885 -1 819 -2 834 -22 879 -11 25 -33 58 -49 73 -49 46 -45 45
-339 128 -38 10 -77 21 -85 23 -8 3 -132 38 -275 80 -143 42 -282 82 -310 89
-27 8 -84 24 -125 37 -41 12 -79 23 -85 25 -26 6 -163 44 -190 52 -16 6 -55
17 -85 26 -30 9 -165 48 -300 86 -135 39 -256 73 -269 76 -14 3 -28 7 -33 10
-4 3 -18 7 -30 9 -12 3 -54 14 -93 26 -38 11 -92 27 -120 35 -27 8 -106 30
-175 50 -69 20 -154 44 -190 54 -36 10 -92 26 -125 35 -73 21 -149 25 -194 12z"/>
</g>
</svg>
