<svg xmlns="http://www.w3.org/2000/svg" width="32" height="32" fill="none" viewBox="0 0 32 32">
  <g clip-path="url(#a)">
    <path fill="#20222B" d="M6 8.9h.033C7.8 8.9 8.9 7.634 8.9 6.05 8.867 4.432 7.8 3.2 6.066 3.2 4.333 3.2 3.2 4.432 3.2 6.05 3.2 7.634 4.3 8.9 6 8.9Zm-2.8 1.9h5.7v16.467H3.2V10.8Zm25.333 6.017a6.016 6.016 0 0 0-6.016-6.017 6 6 0 0 0-4.75 2.333V10.8h-5.7v16.467h5.7v-9.5a2.534 2.534 0 0 1 5.066 0v9.5h5.7v-10.45Z"/>
  </g>
  <defs>
    <clipPath id="a">
      <path fill="#fff" d="M0 0h32v32H0z"/>
    </clipPath>
  </defs>
</svg>
