<svg xmlns="http://www.w3.org/2000/svg" width="32" height="32" fill="none" viewBox="0 0 32 32">
  <g clip-path="url(#a)">
    <path fill="#20222B" d="M16.5 3.2a13.3 13.3 0 1 0 0 26.6 13.3 13.3 0 0 0 0-26.6Z"/>
    <path fill="#fff" d="M18.28 20.026h3.442l.54-3.497H18.28v-1.91c0-1.453.474-2.741 1.833-2.741h2.183V8.826c-.383-.051-1.194-.165-2.727-.165-3.202 0-5.078 1.69-5.078 5.542v2.326H11.2v3.497h3.29v9.61c.652.098 1.313.164 1.99.164.613 0 1.21-.056 1.8-.135v-9.64Z"/>
  </g>
  <defs>
    <clipPath id="a">
      <path fill="#fff" d="M0 0h32v32H0z"/>
    </clipPath>
  </defs>
</svg>
