<svg width="56" height="56" viewBox="0 0 56 56" fill="none" xmlns="http://www.w3.org/2000/svg">
<g clip-path="url(#clip0_1476_3989)">
<path d="M27.9977 55.9954C43.4604 55.9954 55.9954 43.4604 55.9954 27.9977C55.9954 12.535 43.4604 0 27.9977 0C12.535 0 0 12.535 0 27.9977C0 43.4604 12.535 55.9954 27.9977 55.9954Z" fill="#093434"/>
<mask id="mask0_1476_3989" style="mask-type:luminance" maskUnits="userSpaceOnUse" x="0" y="0" width="56" height="56">
<path d="M27.9977 55.9954C43.4604 55.9954 55.9954 43.4604 55.9954 27.9977C55.9954 12.535 43.4604 0 27.9977 0C12.535 0 0 12.535 0 27.9977C0 43.4604 12.535 55.9954 27.9977 55.9954Z" fill="white"/>
</mask>
<g mask="url(#mask0_1476_3989)">
<path d="M42.5907 41.1883H13.4092V10.1308L27.9977 3.26001L42.5907 10.1308V41.1883Z" fill="#0F5353"/>
<path d="M40.7831 55.9999H46.9026V44.7125L40.7831 39.5901V55.9999Z" fill="#116E6E"/>
<path d="M32.2413 37.9009L27.9977 41.1883L23.7586 37.9009L15.2168 39.5901V55.9999H40.7831V39.5901L32.2413 37.9009Z" fill="#1AA8A8"/>
<path d="M15.2168 55.9999H9.09729V44.7125L15.2168 39.5901V55.9999Z" fill="#116E6E"/>
<path d="M32.2413 37.9009L27.9977 41.1883L23.786 37.9009V32.1274H32.2413V37.9009Z" fill="#50DBD9"/>
<path d="M38.074 21.277V20.5849L27.9977 13.4819L18.1947 20.5849V21.277H16.6056V26.5223H18.1947V29.9919L27.9977 36.635L38.074 29.9919V26.5223H39.6631V21.277H38.074Z" fill="#50DBD9"/>
<g opacity="0.15">
<path d="M13.4092 10.1308V41.1063L9.09729 44.7125V55.9999H15.2168H27.9977V3.26001L13.4092 10.1308Z" fill="#093434"/>
</g>
</g>
</g>
<defs>
<clipPath id="clip0_1476_3989">
<rect width="56" height="56" fill="white"/>
</clipPath>
</defs>
</svg>
