<svg width="56" height="56" viewBox="0 0 56 56" fill="none" xmlns="http://www.w3.org/2000/svg">
<g clip-path="url(#clip0_1476_2025)">
<path d="M27.9977 55.9954C43.4604 55.9954 55.9954 43.4604 55.9954 27.9977C55.9954 12.535 43.4604 0 27.9977 0C12.535 0 0 12.535 0 27.9977C0 43.4604 12.535 55.9954 27.9977 55.9954Z" fill="#0D3152"/>
<mask id="mask0_1476_2025" style="mask-type:luminance" maskUnits="userSpaceOnUse" x="0" y="0" width="56" height="56">
<path d="M27.9977 55.9954C43.4604 55.9954 55.9954 43.4604 55.9954 27.9977C55.9954 12.535 43.4604 0 27.9977 0C12.535 0 0 12.535 0 27.9977C0 43.4604 12.535 55.9954 27.9977 55.9954Z" fill="white"/>
</mask>
<g mask="url(#mask0_1476_2025)">
<path d="M40.7832 55.9999H46.9027V44.7125L40.7832 39.5901V55.9999Z" fill="#1C5990"/>
<path d="M32.2413 37.9009L27.9977 41.1883L23.7587 37.9009L15.2169 39.5901V55.9999H40.7832V39.5901L32.2413 37.9009Z" fill="#2C80CE"/>
<path d="M15.2169 55.9999H9.09735V44.7125L15.2169 39.5901V55.9999Z" fill="#1C5990"/>
<path d="M32.2413 37.9009L27.9977 41.1883L23.786 37.9009V32.1274H32.2413V37.9009Z" fill="#509DEA"/>
<path d="M39.6631 9.32495L16.6056 3.96582V21.3454H39.6631V9.32495Z" fill="#10487B"/>
<path d="M38.074 21.277V15.1621L27.9977 14.2878L18.1947 17.9213V21.277H16.6056V26.5223H18.1947V29.9919L27.9977 36.635L38.074 29.9919V26.5223H39.6631V21.277H38.074Z" fill="#509DEA"/>
<g opacity="0.15">
<path d="M16.6056 3.96582V21.2771V21.3454V26.5225H18.1947V29.992L23.786 33.7803V37.9009H23.7587L15.2169 39.5902L9.09735 44.7125V56H15.2169H28.0114V6.62035L16.6056 3.96582Z" fill="#0D3152"/>
</g>
</g>
</g>
<defs>
<clipPath id="clip0_1476_2025">
<rect width="56" height="56" fill="white"/>
</clipPath>
</defs>
</svg>
