<svg width="205" height="205" viewBox="0 0 205 205" fill="none" xmlns="http://www.w3.org/2000/svg">
<path d="M102.5 203.222C158.127 203.222 203.222 158.127 203.222 102.5C203.222 46.8726 158.127 1.77777 102.5 1.77777C46.8726 1.77777 1.77777 46.8726 1.77777 102.5C1.77777 158.127 46.8726 203.222 102.5 203.222Z" stroke="white" stroke-width="2"/>
<path d="M70.2222 152.522V53.2551C70.2222 52.6933 70.5125 52.19 70.9988 51.9086C71.4851 51.6273 72.0661 51.6265 72.5532 51.9066L158.872 101.54C159.361 101.821 159.652 102.325 159.652 102.889C159.652 103.452 159.361 103.956 158.872 104.237L72.5532 153.871C72.0661 154.151 71.4851 154.15 70.9988 153.868C70.5125 153.587 70.2222 153.084 70.2222 152.522Z" fill="white" fill-opacity="0.17"/>
<path d="M158.875 102.889C158.875 102.753 158.837 102.417 158.484 102.214L72.1654 52.5808C71.8145 52.379 71.505 52.5143 71.3883 52.5819C71.2715 52.6494 71 52.8502 71 53.2551V152.522C71 152.927 71.2715 153.128 71.3883 153.195C71.505 153.263 71.8145 153.398 72.1655 153.196L158.484 103.563C158.837 103.36 158.875 103.024 158.875 102.889ZM160.43 102.889C160.43 103.676 160.04 104.463 159.26 104.911L72.9408 154.545C71.3853 155.439 69.4444 154.316 69.4444 152.522V53.2551C69.4444 51.4607 71.3853 50.3379 72.9408 51.2323L159.26 100.866C160.04 101.314 160.43 102.101 160.43 102.889Z" fill="white"/>
</svg>
