<svg width="120" height="50" viewBox="0 0 120 50" fill="none" xmlns="http://www.w3.org/2000/svg">
<g clip-path="url(#clip0_188_1654)">
<path d="M49.2754 17.0474H56.0643V37.4118H60.8394V17.0474H67.6283V12.666H49.2754V17.0474Z" fill="white"/>
<path d="M72.3708 12.1367C71.6442 12.1367 71.0089 12.3994 70.4774 12.9206C69.9459 13.4418 69.6719 14.0943 69.6719 14.8571C69.6719 15.5774 69.9418 16.2088 70.4733 16.7427C71.0048 17.2723 71.64 17.5435 72.3667 17.5435C73.0933 17.5435 73.6913 17.2723 74.2144 16.7427C74.7376 16.213 74.9992 15.5774 74.9992 14.8571C74.9992 14.0943 74.7418 13.446 74.2311 12.9249C73.7203 12.4037 73.0933 12.141 72.3708 12.141V12.1367Z" fill="white"/>
<path d="M74.6908 19.6621H70.0527V37.4121H74.6908V19.6621Z" fill="white"/>
<path d="M87.3888 12.666H78.8643V37.4118H87.3888C91.0636 37.4118 93.9826 36.2931 96.067 34.0855C98.1473 31.8779 99.2061 28.8355 99.2061 25.0389C99.2061 21.2423 98.1515 18.1703 96.067 15.9753C93.9826 13.7804 91.0636 12.666 87.3888 12.666ZM83.6393 17.0474H87.2186C89.5937 17.0474 91.3874 17.7508 92.5584 19.1364C93.7335 20.5304 94.3272 22.4669 94.3272 24.8948C94.3272 27.3228 93.7293 29.3397 92.5542 30.8143C91.3833 32.2804 89.5895 33.0262 87.2144 33.0262H83.6352V17.0431L83.6393 17.0474Z" fill="white"/>
<path d="M118.651 26.3736C117.862 25.3948 116.923 24.6914 115.869 24.2847V24.2423C118.078 23.1491 119.195 21.3567 119.195 18.916C119.195 17.0219 118.58 15.488 117.372 14.3609C116.164 13.238 114.382 12.666 112.078 12.666H102.079V37.4118H112.011C114.453 37.4118 116.396 36.8016 117.783 35.5982C119.178 34.3906 119.884 32.6745 119.884 30.4965C119.884 28.7719 119.469 27.3864 118.655 26.3736H118.651ZM106.746 22.7042V16.6236H111.455C112.352 16.6236 113.078 16.8948 113.614 17.4287C114.146 17.9626 114.415 18.7084 114.415 19.6491C114.415 20.5897 114.15 21.344 113.627 21.8864C113.103 22.4287 112.352 22.7042 111.384 22.7042H106.742H106.746ZM115.001 30.1448C115.001 31.1321 114.706 31.9372 114.129 32.5389C113.552 33.1406 112.696 33.4457 111.596 33.4457H106.75V26.666H111.596C112.651 26.666 113.494 26.9923 114.096 27.6406C114.698 28.2889 115.005 29.1321 115.005 30.1406L115.001 30.1448Z" fill="white"/>
<path d="M21.2877 0.300781L0.293945 12.6694V37.4025L21.2877 49.7711L42.2773 37.4025V12.6694L21.2877 0.300781Z" fill="#DC150B"/>
<path d="M14.2876 37.4028V20.9155L7.29102 25.0384V16.7926L21.2882 8.54688L28.2848 12.6698L21.2882 16.7926V41.5257L14.2876 37.4028Z" fill="white"/>
<path d="M28.2842 37.4031V20.9159L35.2807 16.793V33.2803L28.2842 37.4031Z" fill="white"/>
</g>
<defs>
<clipPath id="clip0_188_1654">
<rect width="120" height="50" fill="white"/>
</clipPath>
</defs>
</svg>
