<svg viewBox="0 0 250 244" xmlns="http://www.w3.org/2000/svg">
    <path fill="currentColor" d="M83.619 196.516c0 1.008-1.16 1.815-2.621 1.815-1.663.151-2.823-.655-2.823-1.815 0-1.008 1.16-1.814 2.621-1.814 1.512-.151 2.823.655 2.823 1.814zm-15.675-2.268c-.353 1.008.655 2.168 2.167 2.47 1.31.504 2.822 0 3.125-1.008.302-1.008-.655-2.167-2.167-2.621-1.31-.353-2.773.151-3.125 1.16zm22.278-.857c-1.462.353-2.47 1.31-2.319 2.47.151 1.008 1.462 1.663 2.974 1.31 1.462-.352 2.47-1.31 2.319-2.318-.152-.958-1.513-1.613-2.974-1.462zM123.387.246C53.477.246 0 53.321 0 123.23c0 55.897 35.181 103.73 85.433 120.565 6.452 1.159 8.72-2.823 8.72-6.1 0-3.124-.151-20.362-.151-30.947 0 0-35.282 7.56-42.692-15.02 0 0-5.745-14.667-14.012-18.447 0 0-11.542-7.914.807-7.763 0 0 12.55 1.008 19.455 13.004 11.039 19.456 29.537 13.861 36.744 10.535 1.16-8.065 4.436-13.66 8.065-16.986-28.175-3.125-56.603-7.208-56.603-55.696 0-13.86 3.83-20.816 11.895-29.687-1.31-3.276-5.594-16.784 1.31-34.224C69.507 49.188 93.75 66.073 93.75 66.073c10.08-2.823 20.917-4.284 31.653-4.284 10.736 0 21.573 1.461 31.653 4.284 0 0 24.244-16.936 34.779-13.609 6.905 17.49 2.62 30.948 1.31 34.224 8.065 8.921 13.004 15.877 13.004 29.687 0 48.64-29.687 52.52-57.863 55.696 4.637 3.982 8.569 11.542 8.569 23.387 0 16.986-.151 38.004-.151 42.137 0 3.276 2.318 7.258 8.72 6.099C215.826 226.96 250 179.127 250 123.23 250 53.32 193.296.246 123.387.246zM48.992 174.087c-.655.504-.504 1.663.353 2.62.806.807 1.965 1.16 2.62.505.656-.504.505-1.663-.352-2.621-.807-.806-1.966-1.16-2.621-.504zm-5.444-4.083c-.352.656.152 1.462 1.16 1.966.806.504 1.814.353 2.167-.353.353-.655-.151-1.461-1.16-1.966-1.007-.302-1.814-.15-2.167.353zm16.331 17.944c-.806.655-.504 2.167.655 3.125 1.16 1.16 2.621 1.31 3.276.504.656-.655.353-2.167-.655-3.125-1.109-1.16-2.62-1.31-3.276-.504zm-5.746-7.41c-.806.505-.806 1.815 0 2.974.807 1.16 2.167 1.664 2.823 1.16.806-.656.806-1.966 0-3.125-.706-1.16-2.016-1.664-2.823-1.008z"/>
</svg>
